<svg width="266" height="305" viewBox="0 0 266 305" fill="none" xmlns="http://www.w3.org/2000/svg">
<g clip-path="url(#clip0_26_119)">
<path d="M127.651 286.127L127.312 278.475C127.277 278.456 127.242 278.438 127.207 278.419C123.574 276.506 119.411 279.97 120.571 283.92C121.663 287.636 122.396 291.643 124.394 294.896C125.575 296.785 127.164 298.384 129.044 299.573C130.924 300.762 133.046 301.511 135.253 301.765L139.868 304.602C140.502 301.058 140.362 297.418 139.459 293.933C138.556 290.449 136.911 287.202 134.638 284.417C133.348 282.867 131.868 281.487 130.233 280.308C129.128 283.234 127.651 286.127 127.651 286.127Z" fill="#F2F2F2"/>
<path d="M86.3319 208.472C77.4467 199.273 64.5707 193.998 51.0056 193.998L50.4824 193.999C41.5474 194.002 32.7718 191.623 25.0532 187.105L24.25 186.635L24.8969 185.966C28.3992 182.329 31.3236 178.172 33.5676 173.643C31.9738 175.134 30.0729 176.256 27.9995 176.928C25.926 177.601 23.7306 177.808 21.5687 177.534C19.2863 177.261 17.0951 176.472 15.1596 175.228C13.224 173.983 11.5943 172.315 10.3927 170.348C5.65152 162.625 0 151.668 0 143.32C0.00738033 136.264 1.47902 129.287 4.32114 122.834C7.16325 116.381 11.3135 110.593 16.5073 105.839C19.7954 102.863 22.4218 99.224 24.2152 95.1603C26.0085 91.0967 26.9287 86.6992 26.9156 82.2546L26.9129 81.6221C26.912 75.7705 27.6243 69.9408 29.034 64.2629L29.1771 63.6896L29.7648 63.7102C33.5542 63.8396 37.3456 63.5207 41.0608 62.7602C37.576 62.331 34.1669 61.4208 30.9302 60.0552L30.298 59.7985L30.5125 59.1482C45.3016 49.9558 78.6848 54.7161 98.0614 10.2116C113.773 -25.8755 169.21 42.2461 169.21 81.6221C169.21 85.64 165.249 90.9495 168.214 93.605C200.267 122.312 178.151 140.746 171.178 159.295C169.523 163.696 173.111 168.528 173.111 173.289C173.111 174.097 173.09 174.931 173.05 175.768L172.988 177.054L171.919 176.34C169.805 174.95 167.845 173.336 166.073 171.527C167.911 175.773 168.778 180.379 168.608 185.006C168.439 189.633 167.238 194.164 165.095 198.263C161.736 204.628 158.486 209.184 155.436 211.805C145.665 220.199 133.07 224.529 120.225 223.909C107.38 223.29 95.2559 217.768 86.3319 208.472Z" fill="white"/>
<path d="M139.996 304.224C140.214 304.224 140.425 304.145 140.59 304.001C140.755 303.857 140.863 303.659 140.894 303.441C140.932 303.169 144.71 275.816 141.317 239.462C138.184 205.888 128.12 157.53 97.9753 117.814C97.9031 117.719 97.8129 117.639 97.7098 117.579C97.6067 117.518 97.4928 117.479 97.3746 117.463C97.2563 117.447 97.1361 117.454 97.0207 117.485C96.9053 117.515 96.7971 117.568 96.7022 117.641C96.6073 117.714 96.5275 117.804 96.4675 117.908C96.4076 118.011 96.3685 118.126 96.3526 118.244C96.3367 118.363 96.3443 118.484 96.3749 118.6C96.4055 118.715 96.4586 118.824 96.531 118.919C126.416 158.292 136.398 206.295 139.509 239.632C142.883 275.774 139.134 302.915 139.096 303.185C139.078 303.314 139.087 303.446 139.124 303.571C139.161 303.696 139.224 303.812 139.31 303.91C139.395 304.009 139.501 304.088 139.619 304.142C139.737 304.196 139.866 304.224 139.996 304.224Z" fill="#3F3D56"/>
<path d="M115.396 173.835C115.588 173.835 115.774 173.775 115.93 173.661C116.085 173.548 116.2 173.389 116.26 173.206C116.319 173.023 116.319 172.826 116.26 172.642C116.201 172.459 116.085 172.3 115.93 172.187C115.821 172.107 104.793 164.13 88.3062 158.07C73.0655 152.468 49.8898 147.39 26.0307 155.013C25.917 155.05 25.8114 155.108 25.7201 155.185C25.6288 155.262 25.5535 155.357 25.4986 155.463C25.4437 155.569 25.4103 155.685 25.4001 155.805C25.39 155.924 25.4034 156.044 25.4396 156.159C25.4758 156.273 25.534 156.379 25.611 156.47C25.688 156.562 25.7822 156.637 25.8883 156.692C25.9943 156.747 26.1101 156.78 26.229 156.79C26.348 156.8 26.4677 156.787 26.5813 156.75C49.9515 149.284 72.7071 154.278 87.6818 159.782C103.933 165.755 114.755 173.583 114.863 173.661C115.018 173.774 115.204 173.835 115.396 173.835Z" fill="#3F3D56"/>
<path d="M156.948 69.9429C156.962 69.7509 156.915 69.5594 156.814 69.3958C156.712 69.2323 156.562 69.1051 156.385 69.0324C156.207 68.9598 156.011 68.9456 155.825 68.9917C155.639 69.0378 155.472 69.1418 155.348 69.289C155.261 69.3928 146.541 79.8604 139.333 95.9317C132.67 110.788 125.956 133.628 131.812 158.066C131.868 158.301 132.015 158.504 132.22 158.63C132.426 158.757 132.673 158.796 132.907 158.739C133.141 158.683 133.343 158.535 133.469 158.329C133.594 158.123 133.633 157.875 133.577 157.64C127.842 133.702 134.442 111.277 140.989 96.6801C148.094 80.8382 156.651 70.566 156.736 70.464C156.86 70.3172 156.934 70.1347 156.948 69.9429Z" fill="#3F3D56"/>
<path d="M155.719 116.938C156.485 123.142 160.767 128.257 166.995 128.257C169.985 128.257 172.853 127.065 174.968 124.942C177.083 122.819 178.271 119.94 178.271 116.938C178.271 110.686 173.196 106.196 166.995 105.618C160.415 105.005 154.736 108.973 155.719 116.938Z" fill="#2F2E41"/>
<path d="M172.217 299.239L176.511 299.238L178.554 282.612L172.216 282.612L172.217 299.239Z" fill="#FFB6B6"/>
<path d="M172.066 303.735L185.271 303.735V303.567C185.271 302.199 184.729 300.887 183.765 299.919C182.801 298.952 181.494 298.408 180.131 298.408L177.719 296.571L173.219 298.408L172.066 298.408L172.066 303.735Z" fill="#2F2E41"/>
<path d="M155.304 299.239L159.598 299.238L161.64 282.612L155.303 282.612L155.304 299.239Z" fill="#FFB6B6"/>
<path d="M155.153 303.735L168.357 303.735V303.567C168.357 302.199 167.815 300.887 166.852 299.919C165.888 298.952 164.581 298.408 163.218 298.408L160.805 296.571L156.305 298.408L155.153 298.408L155.153 303.735Z" fill="#2F2E41"/>
<path d="M186.994 195.103L190.029 205.552L186.453 249.805C186.453 249.805 188.295 252.571 186.994 252.571C185.693 252.571 184.024 253.185 185.075 254.837C186.126 256.49 182.534 262.422 182.534 262.422L177.453 293.931L170.978 293.835C170.978 293.835 167.686 291.994 169.534 290.133C171.381 288.271 172.682 288.271 170.947 286.53C169.213 284.788 169.213 285.313 169.213 283.962C169.213 282.612 167.475 266.105 171.596 259.774L170.354 233.959L167.429 259.28L161.406 293.06L155.169 293.009C155.169 293.009 152.288 290.221 152.294 288.158C152.299 286.094 154.074 285.923 152.753 284.703C151.432 283.482 151.432 264.734 155.335 254.313C155.335 254.313 157.543 248.49 155.33 246.495C153.117 244.5 155.327 242.217 155.327 242.217C155.327 242.217 158.832 240.945 155.324 237.28C151.816 233.616 155.305 207.698 155.305 207.698C155.305 207.698 151.47 197.236 155.354 193.122C159.238 189.008 186.994 195.103 186.994 195.103Z" fill="#2F2E41"/>
<path d="M132.925 213.105L138.341 199.965L142.608 202.345L140.031 215.712C140.289 216.559 140.307 217.461 140.082 218.318C139.858 219.174 139.399 219.951 138.759 220.56C138.119 221.169 137.322 221.587 136.458 221.767C135.594 221.946 134.698 221.88 133.869 221.576C133.04 221.272 132.313 220.742 131.768 220.046C131.223 219.35 130.882 218.515 130.784 217.634C130.686 216.754 130.834 215.864 131.212 215.064C131.59 214.264 132.183 213.586 132.925 213.105Z" fill="#FFB6B6"/>
<path d="M223.813 109.196L215.572 120.763L211.953 117.474L217.48 105.041C217.419 104.157 217.606 103.275 218.018 102.492C218.43 101.709 219.052 101.057 219.813 100.609C220.574 100.161 221.444 99.9351 222.326 99.9567C223.208 99.9783 224.067 100.246 224.805 100.731C225.544 101.215 226.133 101.897 226.506 102.699C226.88 103.501 227.023 104.392 226.92 105.272C226.817 106.152 226.472 106.985 225.923 107.678C225.374 108.371 224.643 108.897 223.813 109.196Z" fill="#FFB6B6"/>
<path d="M187.811 196.174C193.157 204.498 166.287 215.061 155.977 210.82C154.172 210.078 147.962 207.625 152.207 204.225C156.451 200.824 151.715 200.346 151.603 198.132C151.528 196.652 152.669 193.406 151.478 193.545C150.287 193.684 148.894 191.638 151.487 190.757C154.081 189.876 151.515 189.073 151.538 188.237C151.786 179.114 158.758 164.602 158.758 164.602L146.194 196.844C146.194 196.844 146.287 202.422 144.685 200.718C143.083 199.013 143.199 204.53 143.199 204.53C143.199 204.53 140.817 206.199 142.187 207.128C143.557 208.057 140.712 210.913 140.712 210.913L134.073 210.437C134.073 210.437 134.177 205.487 135.311 204.392C136.444 203.297 135.888 201.574 135.888 201.574C135.888 201.574 138.839 198.952 136.86 196.823C134.316 194.084 143.593 147.831 146.794 148.289C147.247 146.078 148.3 144.035 149.837 142.387C151.374 140.739 153.334 139.549 155.503 138.95L162.672 136.968L163.945 131.897H174.041L175.799 135.229L183.475 138.706C184.92 136.658 186.001 134.501 191.921 133.801C191.921 133.801 207.873 119.231 207.094 118.093C206.315 116.955 208.788 114.292 208.788 114.292C208.788 114.292 210.9 113.598 209.708 113.228C208.516 112.857 210.769 112.001 210.769 112.001C210.769 112.001 212.855 111.45 211.871 110.726C210.887 110.001 215.155 109.525 215.155 109.525L220.691 114.06L219.572 115.965C219.572 115.965 220.255 118.559 219.364 117.612C218.474 116.665 218.306 119.413 218.306 119.413C218.306 119.413 217.851 122.423 215.155 123.329C212.458 124.236 210.413 132.849 210.413 132.849C204.053 141.15 196.548 147.626 187.653 151.889C191.12 155.883 187.811 196.174 187.811 196.174Z" fill="black"/>
<path d="M168.241 128.93C173.763 128.93 178.24 124.436 178.24 118.892C178.24 113.348 173.763 108.854 168.241 108.854C162.719 108.854 158.242 113.348 158.242 118.892C158.242 124.436 162.719 128.93 168.241 128.93Z" fill="#FFB6B6"/>
<path d="M157.887 119.985C158.204 122.167 160.056 125.21 159.622 125.21C159.189 125.21 156.105 116.218 159.189 115.632C161.425 115.207 161.925 115.58 164.015 114.67L163.721 114.948C165.104 115.958 167.03 115.336 168.608 114.678C170.191 114.025 172.112 113.403 173.5 114.408C174.372 115.04 174.74 116.137 175.282 117.069C175.825 118.005 176.826 118.888 177.859 118.601C178.687 118.37 179.164 117.439 179.16 116.577C179.155 115.715 178.037 114.895 178.414 114.121C179.53 111.829 178.526 110.267 176.093 109.188C175.209 109.053 174.324 108.916 173.439 108.775C173.903 108.13 174.465 107.563 175.105 107.094C174.834 106.399 174.367 105.798 173.76 105.366C173.053 104.944 172.177 104.974 171.358 105.018C169.528 105.113 167.699 105.209 165.872 105.305C164.519 105.375 163.118 105.457 161.908 106.08C160.399 106.859 159.41 108.379 158.69 109.924C157.077 113.398 157.332 116.193 157.887 119.985Z" fill="#2F2E41"/>
<path d="M116.293 304.866L214.63 305C214.767 305 214.899 304.945 214.995 304.848C215.092 304.751 215.147 304.619 215.147 304.482C215.147 304.344 215.092 304.212 214.995 304.115C214.899 304.018 214.767 303.963 214.63 303.963L116.293 303.829C116.156 303.829 116.025 303.884 115.928 303.981C115.831 304.079 115.776 304.21 115.776 304.348C115.776 304.485 115.831 304.617 115.928 304.714C116.025 304.812 116.156 304.866 116.293 304.866Z" fill="#CACACA"/>
<path d="M80.7267 259.679C80.908 258.428 79.603 257.202 77.8119 256.941C76.0208 256.679 74.4219 257.481 74.2406 258.732C74.0593 259.983 75.3643 261.209 77.1554 261.47C78.9465 261.732 80.5454 260.93 80.7267 259.679Z" fill="#E6E6E6"/>
<path d="M102.051 257.59C102.233 256.34 100.928 255.113 99.1366 254.852C97.3456 254.59 95.7466 255.392 95.5654 256.643C95.3841 257.894 96.6891 259.12 98.4802 259.381C100.271 259.643 101.87 258.841 102.051 257.59Z" fill="#3F3D56"/>
<path d="M74.8873 242.348C75.0686 241.097 73.7636 239.871 71.9725 239.61C70.1814 239.348 68.5825 240.15 68.4012 241.401C68.22 242.652 69.5249 243.878 71.316 244.139C73.1071 244.401 74.706 243.599 74.8873 242.348Z" fill="#FF6584"/>
<path d="M65.6211 235.249C65.6298 234.101 64.9917 233.165 64.196 233.159C63.4003 233.153 62.7482 234.079 62.7395 235.227C62.7309 236.375 63.3689 237.311 64.1647 237.317C64.9604 237.323 65.6125 236.397 65.6211 235.249Z" fill="#E6E6E6"/>
<path d="M62.4788 222.026C62.4874 220.878 61.8494 219.942 61.0537 219.936C60.2579 219.93 59.6059 220.856 59.5972 222.004C59.5886 223.153 60.2266 224.089 61.0223 224.095C61.8181 224.101 62.4701 223.175 62.4788 222.026Z" fill="#3F3D56"/>
<path d="M86.9147 245.297C86.9233 244.149 86.2853 243.213 85.4896 243.207C84.6938 243.201 84.0418 244.127 84.0331 245.276C84.0245 246.424 84.6625 247.36 85.4582 247.366C86.254 247.372 86.906 246.446 86.9147 245.297Z" fill="#E6E6E6"/>
<path d="M76.6096 250.463C76.6183 249.314 75.9802 248.379 75.1845 248.373C74.3888 248.366 73.7367 249.292 73.7281 250.441C73.7194 251.589 74.3574 252.525 75.1532 252.531C75.9489 252.537 76.601 251.611 76.6096 250.463Z" fill="#FF6584"/>
<path d="M90.9546 260.009C90.9632 258.861 90.3252 257.925 89.5295 257.919C88.7338 257.913 88.0817 258.839 88.073 259.987C88.0644 261.136 88.7024 262.071 89.4982 262.077C90.2939 262.083 90.9459 261.157 90.9546 260.009Z" fill="#3F3D56"/>
<path d="M244.658 192.633C244.84 191.382 243.535 190.156 241.744 189.894C239.953 189.633 238.354 190.435 238.172 191.686C237.991 192.936 239.296 194.162 241.087 194.424C242.878 194.686 244.477 193.884 244.658 192.633Z" fill="#E6E6E6"/>
<path d="M265.983 190.544C266.164 189.293 264.859 188.067 263.068 187.806C261.277 187.544 259.678 188.346 259.497 189.597C259.316 190.847 260.621 192.074 262.412 192.335C264.203 192.597 265.802 191.795 265.983 190.544Z" fill="#3F3D56"/>
<path d="M238.819 175.302C239 174.051 237.695 172.825 235.904 172.563C234.113 172.302 232.514 173.104 232.333 174.354C232.151 175.605 233.456 176.831 235.247 177.093C237.039 177.355 238.637 176.553 238.819 175.302Z" fill="#FF6584"/>
<path d="M229.553 168.203C229.562 167.054 228.923 166.119 228.128 166.113C227.332 166.107 226.68 167.033 226.671 168.181C226.663 169.329 227.301 170.265 228.096 170.271C228.892 170.277 229.544 169.351 229.553 168.203Z" fill="#E6E6E6"/>
<path d="M226.411 154.98C226.419 153.832 225.781 152.896 224.985 152.89C224.19 152.884 223.538 153.81 223.529 154.958C223.52 156.106 224.158 157.042 224.954 157.048C225.75 157.054 226.402 156.128 226.411 154.98Z" fill="#3F3D56"/>
<path d="M250.846 178.251C250.855 177.103 250.217 176.167 249.421 176.161C248.626 176.155 247.974 177.081 247.965 178.229C247.956 179.378 248.594 180.313 249.39 180.319C250.186 180.325 250.838 179.399 250.846 178.251Z" fill="#E6E6E6"/>
<path d="M240.541 183.416C240.55 182.268 239.912 181.332 239.116 181.326C238.32 181.32 237.668 182.246 237.66 183.394C237.651 184.543 238.289 185.478 239.085 185.485C239.881 185.491 240.533 184.565 240.541 183.416Z" fill="#FF6584"/>
<path d="M254.886 192.963C254.895 191.815 254.257 190.879 253.461 190.873C252.666 190.867 252.013 191.793 252.005 192.941C251.996 194.089 252.634 195.025 253.43 195.031C254.226 195.037 254.878 194.111 254.886 192.963Z" fill="#3F3D56"/>
<path d="M165.295 68.5538C165.476 67.303 164.171 66.077 162.38 65.8154C160.589 65.5538 158.99 66.3557 158.809 67.6065C158.627 68.8573 159.932 70.0834 161.723 70.345C163.514 70.6066 165.113 69.8047 165.295 68.5538Z" fill="white"/>
<path d="M186.619 66.4649C186.801 65.2141 185.496 63.9881 183.705 63.7265C181.914 63.4649 180.315 64.2668 180.133 65.5176C179.952 66.7684 181.257 67.9944 183.048 68.256C184.839 68.5176 186.438 67.7157 186.619 66.4649Z" fill="#3F3D56"/>
<path d="M159.455 51.2227C159.637 49.9719 158.332 48.7459 156.54 48.4843C154.749 48.2227 153.15 49.0246 152.969 50.2754C152.788 51.5262 154.093 52.7522 155.884 53.0138C157.675 53.2755 159.274 52.4735 159.455 51.2227Z" fill="#FF6584"/>
<path d="M150.189 44.1237C150.198 42.9754 149.56 42.0396 148.764 42.0336C147.968 42.0275 147.316 42.9535 147.308 44.1018C147.299 45.2501 147.937 46.1859 148.733 46.1919C149.528 46.1979 150.18 45.272 150.189 44.1237Z" fill="#E6E6E6"/>
<path d="M147.047 30.901C147.055 29.7527 146.417 28.8169 145.622 28.8109C144.826 28.8048 144.174 29.7308 144.165 30.8791C144.157 32.0274 144.795 32.9631 145.59 32.9692C146.386 32.9752 147.038 32.0493 147.047 30.901Z" fill="#3F3D56"/>
<path d="M171.483 54.172C171.491 53.0237 170.853 52.088 170.058 52.0819C169.262 52.0759 168.61 53.0019 168.601 54.1501C168.592 55.2984 169.231 56.2342 170.026 56.2402C170.822 56.2463 171.474 55.3203 171.483 54.172Z" fill="#E6E6E6"/>
<path d="M161.178 59.3372C161.186 58.1889 160.548 57.2531 159.752 57.2471C158.957 57.2411 158.305 58.167 158.296 59.3153C158.287 60.4636 158.925 61.3994 159.721 61.4054C160.517 61.4114 161.169 60.4855 161.178 59.3372Z" fill="#FF6584"/>
<path d="M175.523 68.8837C175.531 67.7355 174.893 66.7997 174.097 66.7937C173.302 66.7876 172.65 67.7136 172.641 68.8619C172.632 70.0102 173.27 70.9459 174.066 70.952C174.862 70.958 175.514 70.032 175.523 68.8837Z" fill="#3F3D56"/>
</g>
<defs>
<clipPath id="clip0_26_119">
<rect width="266" height="305" fill="white"/>
</clipPath>
</defs>
</svg>
