<svg width="256" height="266" viewBox="0 0 256 266" fill="none" xmlns="http://www.w3.org/2000/svg">
<g clip-path="url(#clip0_30_378)">
<path d="M227.44 202.434L227.435 202.553L233.445 266H189.587L183.903 227.033L181.4 265.001L136.362 264.501L141.146 214.653L145.215 191.548V191.543L145.825 188.066H226.244L226.349 189.325L227.44 202.434Z" fill="#2F2E41"/>
<path d="M111.537 239.214C116.182 240.059 121.025 234.836 122.355 227.55C122.937 224.36 122.749 221.304 121.964 218.804L122.677 214.604L134.628 158.097C134.628 158.097 156.637 114.146 156.637 106.516C156.636 98.8859 150.27 95.144 150.27 95.144L141.656 95.2245L114.641 161.092L109.776 209.766L108.989 216.444C107.372 218.507 106.116 221.301 105.534 224.49C104.204 231.777 106.892 238.369 111.537 239.214Z" fill="#FFB6B6"/>
<path d="M199.166 67.9169L191.159 49.4325L165.137 53.9287L163.385 75.6761L199.166 67.9169Z" fill="#FFB6B6"/>
<path opacity="0.1" d="M199.166 67.9169L191.159 49.4325L165.137 53.9287L163.385 75.6761L199.166 67.9169Z" fill="black"/>
<path d="M255.714 106.385C255.714 106.385 237.198 71.9136 233.695 68.4166C232.136 66.8598 229.684 66.8381 227.443 67.2919L201.668 58.425L192.931 53.5245L192.356 62.8477L163.674 67.9871C163.833 62.3014 164.636 60.1388 164.636 60.1388L154.127 72.4132L133.61 82.4048L133.621 82.4947C132.115 83.0195 130.688 83.9173 129.606 85.4023C125.603 90.8976 114.594 157.841 114.594 157.841L138.114 162.837L141.315 142.784L143.618 160.839L145.37 194.56C145.37 194.56 177.397 222.037 192.91 212.046C208.424 202.054 227.44 202.554 227.44 202.554L227.914 186.923C228.252 186.384 228.441 186.067 228.441 186.067L227.94 130.622V115.868C231.753 121.171 236.353 125.731 241.702 127.866C259.217 134.861 255.714 106.385 255.714 106.385Z" fill="#E6E6E6"/>
<path d="M175.428 57.181C188.649 57.181 199.367 46.481 199.367 33.2819C199.367 20.0828 188.649 9.38281 175.428 9.38281C162.206 9.38281 151.488 20.0828 151.488 33.2819C151.488 46.481 162.206 57.181 175.428 57.181Z" fill="#FFB6B6"/>
<path d="M192.602 40.036C192.602 40.036 194.684 32.7624 199.367 33.2819C204.051 33.8015 205.092 29.6451 204.051 27.5669C203.01 25.4887 200.929 15.0978 200.929 15.0978C200.929 15.0978 201.97 7.82417 195.724 6.78508C189.479 5.74599 187.398 4.7069 186.357 2.62872C185.316 0.550533 169.703 -1.52765 164.499 1.58963C159.295 4.7069 155.131 10.6878 151.488 12.3733C147.845 14.0587 144.723 17.176 146.804 22.3715C148.886 27.5669 151.905 37.7281 151.905 37.7281C151.905 37.7281 157.213 35.8796 158.254 38.9969C159.295 42.1142 155.131 37.9578 160.335 29.6451C165.54 21.3324 165.54 13.0196 173.867 16.1369C182.193 19.2542 191.561 18.2151 190.52 24.4496C189.479 30.6842 192.602 40.036 192.602 40.036Z" fill="#2F2E41"/>
<path d="M191.138 229.499H9.32458C4.1829 229.499 0 225.323 0 220.19V123.775C0 118.642 4.1829 114.466 9.32458 114.466H191.138C196.28 114.466 200.463 118.642 200.463 123.775V220.19C200.463 225.323 196.28 229.499 191.138 229.499Z" fill="white"/>
<path d="M191.138 229.499H9.32458C4.1829 229.499 0 225.323 0 220.19V123.775C0 118.642 4.1829 114.466 9.32458 114.466H191.138C196.28 114.466 200.463 118.642 200.463 123.775V220.19C200.463 225.323 196.28 229.499 191.138 229.499ZM9.32458 116.02C5.04169 116.02 1.55714 119.499 1.55714 123.775V220.19C1.55714 224.466 5.04169 227.944 9.32458 227.944H191.138C195.421 227.944 198.905 224.466 198.905 220.19V123.775C198.905 119.499 195.421 116.02 191.138 116.02H9.32458Z" fill="#3F3D56"/>
<path d="M177.106 126.125C178.396 126.125 179.441 125.081 179.441 123.793C179.441 122.505 178.396 121.461 177.106 121.461C175.816 121.461 174.77 122.505 174.77 123.793C174.77 125.081 175.816 126.125 177.106 126.125Z" fill="#3F3D56"/>
<path d="M183.334 126.125C184.624 126.125 185.67 125.081 185.67 123.793C185.67 122.505 184.624 121.461 183.334 121.461C182.044 121.461 180.998 122.505 180.998 123.793C180.998 125.081 182.044 126.125 183.334 126.125Z" fill="#3F3D56"/>
<path d="M189.563 126.125C190.853 126.125 191.898 125.081 191.898 123.793C191.898 122.505 190.853 121.461 189.563 121.461C188.273 121.461 187.227 122.505 187.227 123.793C187.227 125.081 188.273 126.125 189.563 126.125Z" fill="#3F3D56"/>
<path d="M13.2357 161.49C12.5917 161.49 12.0679 162.012 12.0679 162.655C12.0679 162.969 12.1891 163.259 12.4093 163.473C12.6313 163.7 12.9221 163.821 13.2357 163.821H188.006C188.65 163.821 189.173 163.298 189.173 162.655C189.173 162.342 189.052 162.052 188.832 161.838C188.61 161.611 188.319 161.49 188.006 161.49H13.2357Z" fill="#E6E6E6"/>
<path d="M166.205 161.101V164.21H13.2356C12.8074 164.21 12.4181 164.039 12.1378 163.751C11.8497 163.471 11.6785 163.083 11.6785 162.655C11.6785 161.8 12.3792 161.101 13.2356 161.101H166.205Z" fill="black"/>
<path d="M186.059 155.271H170.488C168.771 155.271 167.373 153.877 167.373 152.162C167.373 150.448 168.771 149.053 170.488 149.053H186.059C187.776 149.053 189.173 150.448 189.173 152.162C189.173 153.877 187.776 155.271 186.059 155.271Z" fill="#E6E6E6"/>
<path d="M84.0665 138.949H14.4035C12.6863 138.949 11.2892 137.555 11.2892 135.84C11.2892 134.126 12.6863 132.731 14.4035 132.731H84.0665C85.7837 132.731 87.1808 134.126 87.1808 135.84C87.1808 137.555 85.7837 138.949 84.0665 138.949Z" fill="#E6E6E6"/>
<path d="M13.2357 196.466C12.5917 196.466 12.0679 196.989 12.0679 197.631C12.0679 197.945 12.1891 198.235 12.4093 198.449C12.6313 198.676 12.9221 198.797 13.2357 198.797H188.006C188.65 198.797 189.173 198.274 189.173 197.631C189.173 197.318 189.052 197.028 188.832 196.814C188.61 196.587 188.319 196.466 188.006 196.466H13.2357Z" fill="#E6E6E6"/>
<path d="M106.256 196.077V199.186H13.2356C12.8074 199.186 12.4181 199.015 12.1378 198.727C11.8497 198.448 11.6785 198.059 11.6785 197.632C11.6785 196.777 12.3792 196.077 13.2356 196.077H106.256Z" fill="black"/>
<path d="M186.059 190.248H170.488C168.771 190.248 167.373 188.853 167.373 187.139C167.373 185.424 168.771 184.03 170.488 184.03H186.059C187.776 184.03 189.173 185.424 189.173 187.139C189.173 188.853 187.776 190.248 186.059 190.248Z" fill="#E6E6E6"/>
<path d="M213.319 59.0205C226.786 59.0205 237.703 48.3516 237.703 35.1908C237.703 22.0299 226.786 11.361 213.319 11.361C199.852 11.361 188.935 22.0299 188.935 35.1908C188.935 48.3516 199.852 59.0205 213.319 59.0205Z" fill="black"/>
<path d="M221.595 23.1709C218.349 29.072 215.102 34.9731 211.856 40.8742C209.787 37.2248 207.729 33.569 205.655 29.9224C204.939 28.663 202.991 29.7958 203.709 31.0583C206.113 35.2855 208.493 39.5267 210.897 43.7539C211.308 44.4767 212.436 44.4934 212.843 43.7539C216.409 37.2715 219.975 30.7891 223.541 24.3067C224.24 23.0365 222.294 21.8997 221.595 23.1709Z" fill="white"/>
<path d="M246.98 98.0033L222.686 86.4014C222.686 86.4014 221.71 78.6361 217.154 75.8663C216.379 74.0216 215.488 71.9951 214.679 70.3893C212.677 66.4182 215.68 58.9246 213.178 58.9246C210.675 58.9246 206.977 66.8056 207.172 68.9161C207.323 70.5362 208.664 73.3648 208.941 75.8408C205.89 76.9895 203.429 78.9585 201.81 80.5263C200.41 81.8831 199.889 83.9072 200.437 85.7773C202.023 91.1962 205.987 102.388 211.676 102.388C219.183 102.388 221.184 100.889 221.184 100.889C221.184 100.889 236.698 120.373 248.208 121.871C259.717 123.37 246.98 98.0033 246.98 98.0033Z" fill="#FFB6B6"/>
</g>
<defs>
<clipPath id="clip0_30_378">
<rect width="256" height="266" fill="white"/>
</clipPath>
</defs>
</svg>
