<svg width="361" height="326" viewBox="0 0 361 326" fill="none" xmlns="http://www.w3.org/2000/svg">
<rect x="0.5" y="0.5" width="360" height="325" rx="25.5" fill="white" stroke="#E9E9E9"/>
<path d="M18 257C18 252.582 21.5817 249 26 249H335C339.418 249 343 252.582 343 257V294C343 298.418 339.418 302 335 302H26C21.5817 302 18 298.418 18 294V257Z" fill="#DFF26A"/>
<path d="M154.982 282.033C154.016 282.918 152.779 283.36 151.273 283.36C149.41 283.36 147.945 282.763 146.879 281.567C145.812 280.366 145.279 278.72 145.279 276.628C145.279 274.366 145.886 272.623 147.099 271.398C148.153 270.332 149.495 269.799 151.124 269.799C153.304 269.799 154.897 270.514 155.905 271.943C156.462 272.746 156.761 273.552 156.802 274.36H154.095C153.919 273.739 153.693 273.271 153.418 272.954C152.926 272.392 152.196 272.11 151.229 272.11C150.245 272.11 149.469 272.509 148.9 273.306C148.332 274.097 148.048 275.219 148.048 276.672C148.048 278.125 148.347 279.215 148.944 279.941C149.548 280.662 150.312 281.022 151.238 281.022C152.188 281.022 152.911 280.712 153.409 280.091C153.685 279.757 153.913 279.256 154.095 278.588H156.775C156.541 280 155.943 281.148 154.982 282.033ZM167.305 277.375V283H164.747V277.173C164.747 276.657 164.659 276.241 164.483 275.925C164.255 275.479 163.821 275.257 163.183 275.257C162.521 275.257 162.017 275.479 161.671 275.925C161.331 276.364 161.161 276.994 161.161 277.814V283H158.665V270.089H161.161V274.668C161.524 274.111 161.943 273.725 162.418 273.508C162.898 273.285 163.402 273.174 163.93 273.174C164.521 273.174 165.058 273.276 165.538 273.481C166.024 273.687 166.423 274 166.733 274.422C166.997 274.779 167.158 275.148 167.217 275.529C167.275 275.904 167.305 276.52 167.305 277.375ZM177.641 274.633C178.449 275.646 178.854 276.845 178.854 278.228C178.854 279.634 178.449 280.838 177.641 281.84C176.832 282.836 175.604 283.334 173.958 283.334C172.312 283.334 171.084 282.836 170.275 281.84C169.467 280.838 169.062 279.634 169.062 278.228C169.062 276.845 169.467 275.646 170.275 274.633C171.084 273.619 172.312 273.112 173.958 273.112C175.604 273.112 176.832 273.619 177.641 274.633ZM173.949 275.23C173.217 275.23 172.651 275.491 172.253 276.013C171.86 276.528 171.664 277.267 171.664 278.228C171.664 279.188 171.86 279.93 172.253 280.451C172.651 280.973 173.217 281.233 173.949 281.233C174.682 281.233 175.244 280.973 175.637 280.451C176.029 279.93 176.226 279.188 176.226 278.228C176.226 277.267 176.029 276.528 175.637 276.013C175.244 275.491 174.682 275.23 173.949 275.23ZM188.645 274.633C189.453 275.646 189.857 276.845 189.857 278.228C189.857 279.634 189.453 280.838 188.645 281.84C187.836 282.836 186.608 283.334 184.962 283.334C183.315 283.334 182.088 282.836 181.279 281.84C180.471 280.838 180.066 279.634 180.066 278.228C180.066 276.845 180.471 275.646 181.279 274.633C182.088 273.619 183.315 273.112 184.962 273.112C186.608 273.112 187.836 273.619 188.645 274.633ZM184.953 275.23C184.221 275.23 183.655 275.491 183.257 276.013C182.864 276.528 182.668 277.267 182.668 278.228C182.668 279.188 182.864 279.93 183.257 280.451C183.655 280.973 184.221 281.233 184.953 281.233C185.686 281.233 186.248 280.973 186.641 280.451C187.033 279.93 187.229 279.188 187.229 278.228C187.229 277.267 187.033 276.528 186.641 276.013C186.248 275.491 185.686 275.23 184.953 275.23ZM198.26 273.859C199.01 274.34 199.44 275.166 199.552 276.338H197.047C197.012 276.016 196.921 275.761 196.774 275.573C196.499 275.233 196.03 275.063 195.368 275.063C194.823 275.063 194.434 275.148 194.199 275.318C193.971 275.488 193.856 275.688 193.856 275.916C193.856 276.203 193.979 276.411 194.226 276.54C194.472 276.675 195.342 276.906 196.836 277.234C197.832 277.469 198.579 277.823 199.077 278.298C199.569 278.778 199.815 279.379 199.815 280.1C199.815 281.049 199.461 281.825 198.752 282.429C198.049 283.026 196.959 283.325 195.482 283.325C193.977 283.325 192.863 283.009 192.143 282.376C191.428 281.737 191.07 280.926 191.07 279.941H193.61C193.663 280.387 193.777 280.703 193.953 280.891C194.264 281.225 194.838 281.392 195.676 281.392C196.168 281.392 196.558 281.318 196.845 281.172C197.138 281.025 197.284 280.806 197.284 280.513C197.284 280.231 197.167 280.018 196.933 279.871C196.698 279.725 195.828 279.473 194.322 279.115C193.238 278.846 192.474 278.509 192.028 278.104C191.583 277.706 191.36 277.132 191.36 276.382C191.36 275.497 191.706 274.738 192.397 274.105C193.095 273.467 194.073 273.147 195.333 273.147C196.528 273.147 197.504 273.385 198.26 273.859ZM209.879 280.188C209.814 280.756 209.519 281.333 208.991 281.919C208.171 282.851 207.022 283.316 205.546 283.316C204.327 283.316 203.252 282.924 202.32 282.139C201.389 281.354 200.923 280.076 200.923 278.307C200.923 276.648 201.342 275.377 202.18 274.492C203.023 273.607 204.116 273.165 205.458 273.165C206.255 273.165 206.973 273.314 207.611 273.613C208.25 273.912 208.777 274.384 209.193 275.028C209.568 275.597 209.812 276.256 209.923 277.006C209.987 277.445 210.014 278.078 210.002 278.904H203.445C203.48 279.865 203.782 280.539 204.351 280.926C204.696 281.166 205.112 281.286 205.599 281.286C206.114 281.286 206.533 281.14 206.855 280.847C207.031 280.688 207.187 280.469 207.321 280.188H209.879ZM207.4 277.252C207.359 276.59 207.157 276.089 206.794 275.749C206.437 275.403 205.991 275.23 205.458 275.23C204.878 275.23 204.427 275.412 204.104 275.775C203.788 276.139 203.589 276.631 203.507 277.252H207.4Z" fill="#1C1C1C"/>
<path d="M225 279.782L230 274.121L225 268.461" stroke="#1C1C1C" stroke-width="2" stroke-linecap="round" stroke-linejoin="round"/>
<rect x="20" y="20" width="321" height="214" rx="16" fill="#1C1C1C"/>
<rect x="20" y="20" width="321" height="214" rx="8" fill="#1C1C1C"/>
<path d="M50.7725 59.2959C51.695 59.2959 52.444 59.1943 53.0195 58.9912C54.1113 58.6019 54.6572 57.8783 54.6572 56.8203C54.6572 56.2025 54.3864 55.7243 53.8447 55.3857C53.3031 55.0557 52.4525 54.7637 51.293 54.5098L49.3125 54.0654C47.3659 53.6253 46.0202 53.1471 45.2754 52.6309C44.0143 51.7676 43.3838 50.4176 43.3838 48.5811C43.3838 46.9053 43.9932 45.513 45.2119 44.4043C46.4307 43.2956 48.2207 42.7412 50.582 42.7412C52.554 42.7412 54.234 43.266 55.6221 44.3154C57.0186 45.3564 57.7507 46.8714 57.8184 48.8604H54.0605C53.9928 47.7347 53.502 46.9349 52.5879 46.4609C51.9785 46.1478 51.221 45.9912 50.3154 45.9912C49.3083 45.9912 48.5042 46.1943 47.9033 46.6006C47.3024 47.0068 47.002 47.5739 47.002 48.3018C47.002 48.9704 47.2982 49.4697 47.8906 49.7998C48.2715 50.0199 49.084 50.278 50.3281 50.5742L53.5527 51.3486C54.9661 51.6872 56.0326 52.14 56.752 52.707C57.8691 53.5872 58.4277 54.861 58.4277 56.5283C58.4277 58.238 57.7718 59.6598 56.46 60.7939C55.1566 61.9196 53.3115 62.4824 50.9248 62.4824C48.4873 62.4824 46.5703 61.9281 45.1738 60.8193C43.7773 59.7021 43.0791 58.1702 43.0791 56.2236H46.8115C46.93 57.0785 47.1628 57.7174 47.5098 58.1406C48.1445 58.9108 49.2321 59.2959 50.7725 59.2959ZM72.4814 62V53.6465H65.1689V62H61.2969V43.2871H65.1689V50.4219H72.4814V43.2871H76.3662V62H72.4814ZM88.3887 62.5205C85.7142 62.5205 83.6702 61.7926 82.2568 60.3369C80.361 58.5511 79.4131 55.9782 79.4131 52.6182C79.4131 49.1904 80.361 46.6175 82.2568 44.8994C83.6702 43.4437 85.7142 42.7158 88.3887 42.7158C91.0632 42.7158 93.1071 43.4437 94.5205 44.8994C96.4079 46.6175 97.3516 49.1904 97.3516 52.6182C97.3516 55.9782 96.4079 58.5511 94.5205 60.3369C93.1071 61.7926 91.0632 62.5205 88.3887 62.5205ZM92.083 57.4932C92.9886 56.3506 93.4414 54.7256 93.4414 52.6182C93.4414 50.5192 92.9844 48.8984 92.0703 47.7559C91.1647 46.6048 89.9375 46.0293 88.3887 46.0293C86.8398 46.0293 85.6042 46.6006 84.6816 47.7432C83.7591 48.8857 83.2979 50.5107 83.2979 52.6182C83.2979 54.7256 83.7591 56.3506 84.6816 57.4932C85.6042 58.6357 86.8398 59.207 88.3887 59.207C89.9375 59.207 91.1689 58.6357 92.083 57.4932ZM108.295 54.6621H104.258V62H100.437V43.2871H109.615C110.927 43.3125 111.934 43.4733 112.637 43.7695C113.348 44.0658 113.949 44.5016 114.439 45.0771C114.846 45.5511 115.167 46.0758 115.404 46.6514C115.641 47.2269 115.76 47.8828 115.76 48.6191C115.76 49.5078 115.535 50.3838 115.087 51.2471C114.638 52.1019 113.898 52.707 112.865 53.0625C113.729 53.4095 114.338 53.9046 114.693 54.5479C115.057 55.1826 115.239 56.1559 115.239 57.4678V58.7246C115.239 59.5794 115.273 60.1592 115.341 60.4639C115.442 60.9463 115.679 61.3018 116.052 61.5303V62H111.748C111.63 61.5853 111.545 61.251 111.494 60.9971C111.393 60.4723 111.338 59.9349 111.329 59.3848L111.304 57.6455C111.287 56.4521 111.067 55.6566 110.644 55.2588C110.229 54.861 109.446 54.6621 108.295 54.6621ZM110.669 51.2598C111.448 50.9043 111.837 50.2018 111.837 49.1523C111.837 48.0182 111.46 47.2565 110.707 46.8672C110.284 46.6471 109.649 46.5371 108.803 46.5371H104.258V51.5645H108.688C109.569 51.5645 110.229 51.4629 110.669 51.2598ZM132.733 43.2871V46.6006H127.135V62H123.199V46.6006H117.575V43.2871H132.733ZM155.864 43.2871V46.6006H150.266V62H146.33V46.6006H140.706V43.2871H155.864ZM171.188 53.8242H162.098V58.6357H172.457V62H158.276V43.2871H172V46.6006H162.098V50.5742H171.188V53.8242ZM183.451 54.6621H179.414V62H175.593V43.2871H184.771C186.083 43.3125 187.09 43.4733 187.793 43.7695C188.504 44.0658 189.105 44.5016 189.596 45.0771C190.002 45.5511 190.324 46.0758 190.561 46.6514C190.798 47.2269 190.916 47.8828 190.916 48.6191C190.916 49.5078 190.692 50.3838 190.243 51.2471C189.795 52.1019 189.054 52.707 188.021 53.0625C188.885 53.4095 189.494 53.9046 189.85 54.5479C190.214 55.1826 190.396 56.1559 190.396 57.4678V58.7246C190.396 59.5794 190.429 60.1592 190.497 60.4639C190.599 60.9463 190.836 61.3018 191.208 61.5303V62H186.904C186.786 61.5853 186.701 61.251 186.65 60.9971C186.549 60.4723 186.494 59.9349 186.485 59.3848L186.46 57.6455C186.443 56.4521 186.223 55.6566 185.8 55.2588C185.385 54.861 184.602 54.6621 183.451 54.6621ZM185.825 51.2598C186.604 50.9043 186.993 50.2018 186.993 49.1523C186.993 48.0182 186.617 47.2565 185.863 46.8672C185.44 46.6471 184.805 46.5371 183.959 46.5371H179.414V51.5645H183.845C184.725 51.5645 185.385 51.4629 185.825 51.2598ZM197.873 62H194.229V43.2871H199.917L203.319 58.001L206.696 43.2871H212.32V62H208.677V49.3428C208.677 48.9788 208.681 48.471 208.689 47.8193C208.698 47.1592 208.702 46.6514 208.702 46.2959L205.16 62H201.364L197.848 46.2959C197.848 46.6514 197.852 47.1592 197.86 47.8193C197.869 48.471 197.873 48.9788 197.873 49.3428V62Z" fill="white"/>
<path d="M51.5391 133.544C52.0117 133.544 52.3877 133.361 52.667 132.996C52.9463 132.624 53.1504 132.176 53.2793 131.653H55.1055C54.9121 132.985 54.5146 134.128 53.9131 135.08C53.3187 136.033 52.513 136.509 51.4961 136.509C51.2956 136.509 51.0843 136.491 50.8623 136.455C50.4326 136.391 49.9242 136.237 49.3369 135.993L47.0918 135.145C46.8841 135.066 46.6299 134.994 46.3291 134.93C46.0283 134.865 45.8063 134.833 45.6631 134.833C45.2549 134.833 44.8932 134.991 44.5781 135.306C44.263 135.614 44.0374 136.086 43.9014 136.724H42.043C42.1647 135.871 42.3366 135.137 42.5586 134.521C42.7878 133.906 43.0671 133.401 43.3965 133.007C43.7474 132.591 44.109 132.301 44.4814 132.137C44.8538 131.965 45.237 131.879 45.6309 131.879C45.8027 131.879 46.0283 131.9 46.3076 131.943C46.7516 132.015 47.1634 132.122 47.543 132.266L50.0459 133.232C50.3395 133.347 50.6224 133.429 50.8945 133.479C51.1738 133.522 51.3887 133.544 51.5391 133.544ZM60.5625 140.451C59.3952 140.451 58.346 140.107 57.415 139.42C56.484 138.725 55.9505 137.715 55.8145 136.391H58.8652C58.9368 136.849 59.1302 137.221 59.4453 137.508C59.7604 137.794 60.1794 137.938 60.7021 137.938C61.7119 137.938 62.4209 137.379 62.8291 136.262C63.0511 135.646 63.1908 134.747 63.248 133.565C62.9688 133.916 62.6715 134.185 62.3564 134.371C61.7835 134.715 61.0781 134.887 60.2402 134.887C59.0013 134.887 57.902 134.461 56.9424 133.608C55.9827 132.749 55.5029 131.514 55.5029 129.902C55.5029 128.234 55.9827 126.884 56.9424 125.853C57.9092 124.814 59.1624 124.295 60.7021 124.295C63.0726 124.295 64.6982 125.344 65.5791 127.442C66.0804 128.631 66.3311 130.196 66.3311 132.137C66.3311 134.02 66.0911 135.592 65.6113 136.853C64.6947 139.252 63.0117 140.451 60.5625 140.451ZM59.4883 127.292C58.901 127.75 58.6074 128.527 58.6074 129.623C58.6074 130.547 58.7936 131.242 59.166 131.707C59.5456 132.165 60.1257 132.395 60.9062 132.395C61.3288 132.395 61.7262 132.273 62.0986 132.029C62.7933 131.585 63.1406 130.815 63.1406 129.72C63.1406 128.839 62.9329 128.141 62.5176 127.625C62.1094 127.109 61.5472 126.852 60.8311 126.852C60.3083 126.852 59.8607 126.998 59.4883 127.292ZM78.5986 134.253V136.648H76.8369V140H73.8398V136.648H67.6738V133.974L73.3994 124.521H76.8369V134.253H78.5986ZM69.9404 134.253H73.8398V127.528L69.9404 134.253ZM85.2051 132.266C84.8327 132.266 84.5104 132.312 84.2383 132.405C83.7585 132.577 83.3968 132.896 83.1533 133.361L80.4033 133.232L81.499 124.628H90.082V127.228H83.7119L83.1533 130.633C83.626 130.325 83.9948 130.121 84.2598 130.021C84.7038 129.856 85.2445 129.773 85.8818 129.773C87.1709 129.773 88.2952 130.207 89.2549 131.073C90.2145 131.94 90.6943 133.2 90.6943 134.854C90.6943 136.294 90.2324 137.579 89.3086 138.711C88.3848 139.842 87.0026 140.408 85.1621 140.408C83.6797 140.408 82.4622 140.011 81.5098 139.216C80.5573 138.421 80.0273 137.293 79.9199 135.832H82.9707C83.0924 136.498 83.3252 137.014 83.6689 137.379C84.0127 137.737 84.514 137.916 85.1729 137.916C85.932 137.916 86.5085 137.651 86.9023 137.121C87.3034 136.584 87.5039 135.911 87.5039 135.102C87.5039 134.307 87.3177 133.637 86.9453 133.093C86.5729 132.541 85.9928 132.266 85.2051 132.266ZM102.532 136.315C102.532 135.205 102.923 134.26 103.703 133.479C104.484 132.706 105.425 132.319 106.528 132.319C107.631 132.319 108.573 132.71 109.354 133.49C110.134 134.271 110.524 135.213 110.524 136.315C110.524 137.418 110.134 138.36 109.354 139.141C108.573 139.921 107.631 140.312 106.528 140.312C105.425 140.312 104.484 139.921 103.703 139.141C102.923 138.36 102.532 137.418 102.532 136.315ZM93.2617 131.32C92.4811 130.54 92.0908 129.598 92.0908 128.495C92.0908 127.392 92.4811 126.451 93.2617 125.67C94.0423 124.889 94.984 124.499 96.0869 124.499C97.1898 124.499 98.1315 124.889 98.9121 125.67C99.6927 126.451 100.083 127.392 100.083 128.495C100.083 129.598 99.6927 130.54 98.9121 131.32C98.1387 132.101 97.1969 132.491 96.0869 132.491C94.984 132.491 94.0423 132.101 93.2617 131.32ZM97.7734 140.408H96.1084L104.82 124.424H106.453L97.7734 140.408ZM105.325 137.519C105.655 137.855 106.056 138.023 106.528 138.023C107.001 138.023 107.402 137.859 107.731 137.529C108.068 137.193 108.236 136.788 108.236 136.315C108.236 135.843 108.068 135.442 107.731 135.112C107.402 134.776 107.001 134.607 106.528 134.607C106.056 134.607 105.651 134.776 105.314 135.112C104.985 135.442 104.82 135.843 104.82 136.315C104.82 136.788 104.989 137.189 105.325 137.519ZM94.8838 129.698C95.2132 130.035 95.6143 130.203 96.0869 130.203C96.5596 130.203 96.9606 130.038 97.29 129.709C97.6266 129.372 97.7949 128.968 97.7949 128.495C97.7949 128.022 97.6266 127.621 97.29 127.292C96.9606 126.955 96.5596 126.787 96.0869 126.787C95.6143 126.787 95.2096 126.955 94.873 127.292C94.5436 127.621 94.3789 128.022 94.3789 128.495C94.3789 128.968 94.5472 129.369 94.8838 129.698Z" fill="white"/>
<path d="M51.6895 195.43C50.873 196.59 50.1891 197.786 49.6377 199.018C49.2008 199.984 48.807 201.166 48.4561 202.562C48.1051 203.959 47.9297 205.105 47.9297 206H44.75C44.8431 203.207 45.7598 200.303 47.5 197.288C48.6243 195.419 49.5661 194.116 50.3252 193.378H42.5586L42.6016 190.628H53.6016V193.023C53.1432 193.475 52.5059 194.277 51.6895 195.43ZM68.8662 206H62.0449V190.166H68.8662C69.8473 190.18 70.6637 190.295 71.3154 190.51C72.4255 190.875 73.3242 191.545 74.0117 192.519C74.5632 193.306 74.9391 194.159 75.1396 195.075C75.3402 195.992 75.4404 196.866 75.4404 197.696C75.4404 199.802 75.0179 201.585 74.1729 203.046C73.027 205.015 71.2581 206 68.8662 206ZM71.3262 194.205C70.8177 193.346 69.8115 192.916 68.3076 192.916H65.2568V203.25H68.3076C69.8688 203.25 70.9574 202.48 71.5732 200.94C71.9098 200.095 72.0781 199.089 72.0781 197.922C72.0781 196.311 71.8275 195.072 71.3262 194.205ZM78.1367 195.559C78.946 194.527 80.3353 194.012 82.3047 194.012C83.5866 194.012 84.7253 194.266 85.7207 194.774C86.7161 195.283 87.2139 196.243 87.2139 197.653V203.024C87.2139 203.397 87.221 203.848 87.2354 204.378C87.2568 204.779 87.3177 205.051 87.418 205.194C87.5182 205.338 87.6686 205.456 87.8691 205.549V206H84.5391C84.446 205.764 84.3815 205.542 84.3457 205.334C84.3099 205.126 84.2812 204.89 84.2598 204.625C83.8372 205.083 83.3503 205.474 82.7988 205.796C82.14 206.175 81.3952 206.365 80.5645 206.365C79.5046 206.365 78.6273 206.064 77.9326 205.463C77.2451 204.854 76.9014 203.995 76.9014 202.885C76.9014 201.445 77.4564 200.403 78.5664 199.759C79.1751 199.408 80.0703 199.157 81.252 199.007L82.2939 198.878C82.8597 198.806 83.2643 198.717 83.5078 198.609C83.9447 198.423 84.1631 198.133 84.1631 197.739C84.1631 197.259 83.9948 196.93 83.6582 196.751C83.3288 196.565 82.8418 196.472 82.1973 196.472C81.474 196.472 80.9619 196.651 80.6611 197.009C80.4463 197.274 80.3031 197.632 80.2314 198.083H77.2773C77.3418 197.059 77.6283 196.217 78.1367 195.559ZM80.4141 203.787C80.7005 204.023 81.0514 204.142 81.4668 204.142C82.1257 204.142 82.7308 203.948 83.2822 203.562C83.8408 203.175 84.1309 202.469 84.1523 201.445V200.307C83.959 200.428 83.762 200.529 83.5615 200.607C83.3682 200.679 83.0996 200.747 82.7559 200.812L82.0684 200.94C81.4238 201.055 80.9619 201.195 80.6826 201.359C80.21 201.639 79.9736 202.072 79.9736 202.659C79.9736 203.182 80.1204 203.558 80.4141 203.787ZM94.7012 202.928L97.1182 194.291H100.373L96.3555 205.807C95.582 208.027 94.9697 209.402 94.5186 209.932C94.0674 210.469 93.165 210.737 91.8115 210.737C91.5394 210.737 91.321 210.734 91.1562 210.727C90.9915 210.727 90.7445 210.716 90.415 210.694V208.245L90.8018 208.267C91.1025 208.281 91.389 208.27 91.6611 208.234C91.9333 208.199 92.1624 208.116 92.3486 207.987C92.5277 207.866 92.6924 207.611 92.8428 207.225C93.0003 206.838 93.0648 206.602 93.0361 206.516L88.7393 194.291H92.1445L94.7012 202.928ZM110.256 194.828C111.173 195.415 111.699 196.425 111.835 197.857H108.773C108.73 197.464 108.619 197.152 108.44 196.923C108.104 196.507 107.531 196.3 106.722 196.3C106.056 196.3 105.579 196.404 105.293 196.611C105.014 196.819 104.874 197.062 104.874 197.342C104.874 197.693 105.024 197.947 105.325 198.104C105.626 198.269 106.689 198.552 108.516 198.953C109.733 199.24 110.646 199.673 111.255 200.253C111.856 200.84 112.157 201.574 112.157 202.455C112.157 203.615 111.724 204.564 110.857 205.302C109.998 206.032 108.666 206.397 106.861 206.397C105.021 206.397 103.66 206.011 102.779 205.237C101.906 204.457 101.469 203.465 101.469 202.262H104.573C104.638 202.806 104.777 203.193 104.992 203.422C105.372 203.83 106.074 204.034 107.098 204.034C107.699 204.034 108.175 203.945 108.526 203.766C108.884 203.587 109.063 203.318 109.063 202.96C109.063 202.616 108.92 202.355 108.634 202.176C108.347 201.997 107.284 201.689 105.443 201.252C104.118 200.923 103.184 200.511 102.64 200.017C102.095 199.53 101.823 198.828 101.823 197.911C101.823 196.83 102.246 195.902 103.091 195.129C103.943 194.348 105.139 193.958 106.679 193.958C108.14 193.958 109.332 194.248 110.256 194.828Z" fill="white"/>
<path d="M201.865 132.266C201.493 132.266 201.171 132.312 200.898 132.405C200.419 132.577 200.057 132.896 199.813 133.361L197.063 133.232L198.159 124.628H206.742V127.228H200.372L199.813 130.633C200.286 130.325 200.655 130.121 200.92 130.021C201.364 129.856 201.905 129.773 202.542 129.773C203.831 129.773 204.955 130.207 205.915 131.073C206.875 131.94 207.354 133.2 207.354 134.854C207.354 136.294 206.893 137.579 205.969 138.711C205.045 139.842 203.663 140.408 201.822 140.408C200.34 140.408 199.122 140.011 198.17 139.216C197.217 138.421 196.688 137.293 196.58 135.832H199.631C199.753 136.498 199.985 137.014 200.329 137.379C200.673 137.737 201.174 137.916 201.833 137.916C202.592 137.916 203.169 137.651 203.562 137.121C203.964 136.584 204.164 135.911 204.164 135.102C204.164 134.307 203.978 133.637 203.605 133.093C203.233 132.541 202.653 132.266 201.865 132.266ZM212.629 141.096C212.5 141.626 212.26 142.084 211.909 142.471C211.53 142.886 211.082 143.198 210.566 143.405C210.058 143.62 209.707 143.728 209.514 143.728V142.546C210.13 142.374 210.581 142.088 210.867 141.687C211.161 141.285 211.329 140.723 211.372 140H209.514V136.799H212.822V139.57C212.822 140.057 212.758 140.566 212.629 141.096ZM218.58 127.528C218.236 127.987 218.072 128.599 218.086 129.365H215.229C215.257 128.592 215.39 127.858 215.626 127.163C215.877 126.554 216.271 125.992 216.808 125.477C217.209 125.111 217.685 124.832 218.236 124.639C218.788 124.445 219.465 124.349 220.267 124.349C221.756 124.349 222.956 124.735 223.865 125.509C224.782 126.275 225.24 127.306 225.24 128.603C225.24 129.519 224.968 130.293 224.424 130.923C224.08 131.317 223.722 131.585 223.35 131.729C223.629 131.729 224.03 131.968 224.553 132.448C225.333 133.172 225.724 134.16 225.724 135.413C225.724 136.731 225.265 137.891 224.349 138.894C223.439 139.889 222.089 140.387 220.299 140.387C218.093 140.387 216.561 139.667 215.701 138.228C215.25 137.461 214.999 136.459 214.949 135.22H217.957C217.957 135.843 218.057 136.358 218.258 136.767C218.63 137.519 219.307 137.895 220.288 137.895C220.89 137.895 221.412 137.69 221.856 137.282C222.308 136.867 222.533 136.272 222.533 135.499C222.533 134.475 222.118 133.791 221.287 133.447C220.814 133.254 220.07 133.157 219.053 133.157V130.966C220.048 130.951 220.743 130.855 221.137 130.676C221.817 130.375 222.157 129.766 222.157 128.85C222.157 128.255 221.982 127.772 221.631 127.399C221.287 127.027 220.8 126.841 220.17 126.841C219.447 126.841 218.917 127.07 218.58 127.528ZM238.12 134.253V136.648H236.358V140H233.361V136.648H227.195V133.974L232.921 124.521H236.358V134.253H238.12ZM229.462 134.253H233.361V127.528L229.462 134.253ZM248.551 129.43C247.734 130.59 247.05 131.786 246.499 133.018C246.062 133.984 245.668 135.166 245.317 136.562C244.966 137.959 244.791 139.105 244.791 140H241.611C241.704 137.207 242.621 134.303 244.361 131.288C245.486 129.419 246.427 128.116 247.187 127.378H239.42L239.463 124.628H250.463V127.023C250.005 127.475 249.367 128.277 248.551 129.43ZM255.49 141.096C255.361 141.626 255.121 142.084 254.771 142.471C254.391 142.886 253.943 143.198 253.428 143.405C252.919 143.62 252.568 143.728 252.375 143.728V142.546C252.991 142.374 253.442 142.088 253.729 141.687C254.022 141.285 254.19 140.723 254.233 140H252.375V136.799H255.684V139.57C255.684 140.057 255.619 140.566 255.49 141.096ZM264.879 127.593C264.514 127.156 263.991 126.938 263.311 126.938C262.38 126.938 261.746 127.285 261.409 127.979C261.216 128.381 261.101 129.018 261.065 129.892H258.09C258.14 128.567 258.38 127.496 258.81 126.68C259.626 125.126 261.076 124.349 263.16 124.349C264.807 124.349 266.118 124.807 267.092 125.724C268.066 126.633 268.553 127.84 268.553 129.344C268.553 130.497 268.209 131.521 267.521 132.416C267.07 133.01 266.329 133.673 265.298 134.403L264.073 135.273C263.307 135.818 262.781 136.212 262.494 136.455C262.215 136.699 261.979 136.981 261.785 137.304H268.585V140H257.918C257.947 138.883 258.187 137.862 258.638 136.938C259.075 135.9 260.106 134.801 261.731 133.641C263.142 132.631 264.055 131.908 264.471 131.471C265.108 130.79 265.427 130.046 265.427 129.236C265.427 128.577 265.244 128.03 264.879 127.593ZM277.802 140H274.665V129.258H271.002V127.174C271.969 127.131 272.646 127.066 273.032 126.98C273.648 126.844 274.149 126.572 274.536 126.164C274.801 125.885 275.002 125.512 275.138 125.047C275.216 124.768 275.256 124.56 275.256 124.424H277.802V140ZM285.934 127.528C285.59 127.987 285.425 128.599 285.439 129.365H282.582C282.611 128.592 282.743 127.858 282.979 127.163C283.23 126.554 283.624 125.992 284.161 125.477C284.562 125.111 285.038 124.832 285.59 124.639C286.141 124.445 286.818 124.349 287.62 124.349C289.11 124.349 290.309 124.735 291.219 125.509C292.135 126.275 292.594 127.306 292.594 128.603C292.594 129.519 292.322 130.293 291.777 130.923C291.434 131.317 291.076 131.585 290.703 131.729C290.982 131.729 291.383 131.968 291.906 132.448C292.687 133.172 293.077 134.16 293.077 135.413C293.077 136.731 292.619 137.891 291.702 138.894C290.793 139.889 289.443 140.387 287.652 140.387C285.447 140.387 283.914 139.667 283.055 138.228C282.604 137.461 282.353 136.459 282.303 135.22H285.311C285.311 135.843 285.411 136.358 285.611 136.767C285.984 137.519 286.66 137.895 287.642 137.895C288.243 137.895 288.766 137.69 289.21 137.282C289.661 136.867 289.887 136.272 289.887 135.499C289.887 134.475 289.471 133.791 288.641 133.447C288.168 133.254 287.423 133.157 286.406 133.157V130.966C287.402 130.951 288.096 130.855 288.49 130.676C289.171 130.375 289.511 129.766 289.511 128.85C289.511 128.255 289.335 127.772 288.984 127.399C288.641 127.027 288.154 126.841 287.523 126.841C286.8 126.841 286.27 127.07 285.934 127.528Z" fill="white"/>
<path d="M260.211 193.528C259.867 193.987 259.702 194.599 259.717 195.365H256.859C256.888 194.592 257.021 193.858 257.257 193.163C257.507 192.554 257.901 191.992 258.438 191.477C258.84 191.111 259.316 190.832 259.867 190.639C260.419 190.445 261.095 190.349 261.897 190.349C263.387 190.349 264.587 190.735 265.496 191.509C266.413 192.275 266.871 193.306 266.871 194.603C266.871 195.519 266.599 196.293 266.055 196.923C265.711 197.317 265.353 197.585 264.98 197.729C265.26 197.729 265.661 197.968 266.184 198.448C266.964 199.172 267.354 200.16 267.354 201.413C267.354 202.731 266.896 203.891 265.979 204.894C265.07 205.889 263.72 206.387 261.93 206.387C259.724 206.387 258.191 205.667 257.332 204.228C256.881 203.461 256.63 202.459 256.58 201.22H259.588C259.588 201.843 259.688 202.358 259.889 202.767C260.261 203.519 260.938 203.895 261.919 203.895C262.521 203.895 263.043 203.69 263.487 203.282C263.938 202.867 264.164 202.272 264.164 201.499C264.164 200.475 263.749 199.791 262.918 199.447C262.445 199.254 261.701 199.157 260.684 199.157V196.966C261.679 196.951 262.374 196.855 262.768 196.676C263.448 196.375 263.788 195.766 263.788 194.85C263.788 194.255 263.613 193.772 263.262 193.399C262.918 193.027 262.431 192.841 261.801 192.841C261.077 192.841 260.548 193.07 260.211 193.528ZM269.621 202.799H272.876V206H269.621V202.799ZM280.428 206.387C278.444 206.387 277.051 205.692 276.249 204.303C275.454 202.913 275.057 200.933 275.057 198.362C275.057 195.791 275.454 193.808 276.249 192.411C277.051 191.015 278.444 190.316 280.428 190.316C282.411 190.316 283.804 191.015 284.606 192.411C285.401 193.808 285.799 195.791 285.799 198.362C285.799 200.933 285.398 202.913 284.596 204.303C283.801 205.692 282.411 206.387 280.428 206.387ZM282.222 202.466C282.501 201.521 282.641 200.153 282.641 198.362C282.641 196.486 282.497 195.097 282.211 194.194C281.932 193.292 281.337 192.841 280.428 192.841C279.518 192.841 278.917 193.292 278.623 194.194C278.329 195.097 278.183 196.486 278.183 198.362C278.183 200.153 278.329 201.524 278.623 202.477C278.917 203.422 279.518 203.895 280.428 203.895C281.337 203.895 281.935 203.418 282.222 202.466ZM292.674 206.387C290.69 206.387 289.297 205.692 288.495 204.303C287.7 202.913 287.303 200.933 287.303 198.362C287.303 195.791 287.7 193.808 288.495 192.411C289.297 191.015 290.69 190.316 292.674 190.316C294.658 190.316 296.05 191.015 296.853 192.411C297.647 193.808 298.045 195.791 298.045 198.362C298.045 200.933 297.644 202.913 296.842 204.303C296.047 205.692 294.658 206.387 292.674 206.387ZM294.468 202.466C294.747 201.521 294.887 200.153 294.887 198.362C294.887 196.486 294.743 195.097 294.457 194.194C294.178 193.292 293.583 192.841 292.674 192.841C291.764 192.841 291.163 193.292 290.869 194.194C290.576 195.097 290.429 196.486 290.429 198.362C290.429 200.153 290.576 201.524 290.869 202.477C291.163 203.422 291.764 203.895 292.674 203.895C293.583 203.895 294.181 203.418 294.468 202.466ZM309.808 202.315C309.808 201.205 310.198 200.26 310.979 199.479C311.759 198.706 312.701 198.319 313.804 198.319C314.907 198.319 315.848 198.71 316.629 199.49C317.41 200.271 317.8 201.213 317.8 202.315C317.8 203.418 317.41 204.36 316.629 205.141C315.848 205.921 314.907 206.312 313.804 206.312C312.701 206.312 311.759 205.921 310.979 205.141C310.198 204.36 309.808 203.418 309.808 202.315ZM300.537 197.32C299.757 196.54 299.366 195.598 299.366 194.495C299.366 193.392 299.757 192.451 300.537 191.67C301.318 190.889 302.259 190.499 303.362 190.499C304.465 190.499 305.407 190.889 306.188 191.67C306.968 192.451 307.358 193.392 307.358 194.495C307.358 195.598 306.968 196.54 306.188 197.32C305.414 198.101 304.472 198.491 303.362 198.491C302.259 198.491 301.318 198.101 300.537 197.32ZM305.049 206.408H303.384L312.096 190.424H313.729L305.049 206.408ZM312.601 203.519C312.93 203.855 313.331 204.023 313.804 204.023C314.276 204.023 314.677 203.859 315.007 203.529C315.343 203.193 315.512 202.788 315.512 202.315C315.512 201.843 315.343 201.442 315.007 201.112C314.677 200.776 314.276 200.607 313.804 200.607C313.331 200.607 312.926 200.776 312.59 201.112C312.26 201.442 312.096 201.843 312.096 202.315C312.096 202.788 312.264 203.189 312.601 203.519ZM302.159 195.698C302.489 196.035 302.89 196.203 303.362 196.203C303.835 196.203 304.236 196.038 304.565 195.709C304.902 195.372 305.07 194.968 305.07 194.495C305.07 194.022 304.902 193.621 304.565 193.292C304.236 192.955 303.835 192.787 303.362 192.787C302.89 192.787 302.485 192.955 302.148 193.292C301.819 193.621 301.654 194.022 301.654 194.495C301.654 194.968 301.823 195.369 302.159 195.698Z" fill="white"/>
<g clip-path="url(#clip0_73_193)">
<path d="M309 122C313.97 122 318 126.03 318 131C318 135.97 313.97 140 309 140C304.03 140 300 135.971 300 131C300 126.029 304.029 122 309 122Z" fill="#53AE94"/>
<path d="M310.111 129.801V128.462H313.172V126.422H304.835V128.462H307.897V129.8C305.409 129.914 303.538 130.407 303.538 130.997C303.538 131.588 305.41 132.081 307.897 132.196V136.484H310.111V132.195C312.595 132.081 314.463 131.588 314.463 130.998C314.463 130.408 312.595 129.916 310.111 129.801M310.111 131.832V131.831C310.049 131.835 309.728 131.854 309.013 131.854C308.442 131.854 308.04 131.838 307.899 131.831V131.832C305.7 131.735 304.059 131.352 304.059 130.894C304.059 130.436 305.7 130.054 307.899 129.956V131.451C308.043 131.461 308.454 131.485 309.023 131.485C309.706 131.485 310.049 131.457 310.112 131.451V129.956C312.306 130.054 313.943 130.437 313.943 130.893C313.943 131.35 312.305 131.733 310.112 131.831" fill="white"/>
</g>
<path d="M42.27 113L47.364 100.04H48.75L53.718 113H52.458L50.964 108.932H45.06L43.53 113H42.27ZM45.474 107.888H50.55L48.012 101.084L45.474 107.888ZM55.4099 113V100.04H60.1439C60.9839 100.04 61.6739 100.136 62.2139 100.328C62.7659 100.52 63.1979 100.784 63.5099 101.12C63.8339 101.456 64.0559 101.846 64.1759 102.29C64.3079 102.722 64.3739 103.178 64.3739 103.658C64.3739 104.378 64.2239 104.972 63.9239 105.44C63.6359 105.908 63.2579 106.28 62.7899 106.556C62.3219 106.82 61.7879 107.006 61.1879 107.114C60.5999 107.222 60.0059 107.276 59.4059 107.276H56.6339V113H55.4099ZM59.4419 106.232C60.0179 106.232 60.5339 106.196 60.9899 106.124C61.4459 106.052 61.8299 105.92 62.1419 105.728C62.4659 105.524 62.7119 105.254 62.8799 104.918C63.0599 104.57 63.1499 104.12 63.1499 103.568C63.1499 102.752 62.8799 102.134 62.3399 101.714C61.8119 101.294 60.9659 101.084 59.8019 101.084H56.6339V106.232H59.4419ZM70.4458 106.286L74.3518 100.04H75.7738L71.0758 107.348V113H69.8518V107.438L65.2258 100.04H66.6298L70.4458 106.286Z" fill="#DFF26A"/>
<path d="M44.458 179V166.04H45.682V177.956H52.63V179H44.458ZM53.956 172.538C53.956 171.59 54.082 170.702 54.334 169.874C54.598 169.046 54.982 168.326 55.486 167.714C55.99 167.09 56.614 166.598 57.358 166.238C58.102 165.878 58.96 165.698 59.932 165.698C60.94 165.698 61.822 165.878 62.578 166.238C63.346 166.586 63.982 167.072 64.486 167.696C65.002 168.308 65.386 169.034 65.638 169.874C65.902 170.702 66.034 171.59 66.034 172.538C66.034 173.474 65.902 174.356 65.638 175.184C65.386 176 65.008 176.72 64.504 177.344C64 177.956 63.37 178.442 62.614 178.802C61.858 179.162 60.982 179.342 59.986 179.342C58.99 179.342 58.114 179.162 57.358 178.802C56.602 178.442 55.972 177.956 55.468 177.344C54.964 176.72 54.586 176 54.334 175.184C54.082 174.356 53.956 173.474 53.956 172.538ZM60.004 178.298C60.844 178.298 61.564 178.142 62.164 177.83C62.776 177.506 63.274 177.08 63.658 176.552C64.054 176.024 64.342 175.412 64.522 174.716C64.714 174.02 64.81 173.294 64.81 172.538C64.81 171.638 64.696 170.834 64.468 170.126C64.252 169.406 63.934 168.794 63.514 168.29C63.094 167.786 62.584 167.402 61.984 167.138C61.384 166.874 60.712 166.742 59.968 166.742C59.14 166.742 58.42 166.904 57.808 167.228C57.208 167.552 56.71 167.984 56.314 168.524C55.93 169.052 55.642 169.664 55.45 170.36C55.27 171.056 55.18 171.782 55.18 172.538C55.18 173.306 55.27 174.038 55.45 174.734C55.642 175.43 55.93 176.042 56.314 176.57C56.71 177.098 57.208 177.518 57.808 177.83C58.42 178.142 59.152 178.298 60.004 178.298ZM77.6677 169.802C77.4157 168.698 76.9477 167.912 76.2637 167.444C75.5797 166.976 74.6857 166.742 73.5817 166.742C72.8017 166.742 72.1297 166.898 71.5657 167.21C71.0017 167.522 70.5337 167.942 70.1617 168.47C69.8017 168.998 69.5317 169.61 69.3517 170.306C69.1837 170.99 69.0997 171.716 69.0997 172.484C69.0997 173.204 69.1717 173.912 69.3157 174.608C69.4717 175.304 69.7237 175.928 70.0717 176.48C70.4197 177.02 70.8877 177.458 71.4757 177.794C72.0637 178.13 72.8017 178.298 73.6897 178.298C74.2417 178.298 74.7457 178.208 75.2017 178.028C75.6577 177.848 76.0537 177.602 76.3897 177.29C76.7377 176.966 77.0257 176.588 77.2537 176.156C77.4937 175.724 77.6737 175.25 77.7937 174.734H79.0717C78.9277 175.358 78.7177 175.952 78.4417 176.516C78.1657 177.068 77.7997 177.554 77.3437 177.974C76.8997 178.394 76.3537 178.73 75.7057 178.982C75.0697 179.222 74.3197 179.342 73.4557 179.342C72.4597 179.342 71.6077 179.162 70.8997 178.802C70.1917 178.43 69.6097 177.932 69.1537 177.308C68.7097 176.684 68.3857 175.964 68.1817 175.148C67.9777 174.32 67.8757 173.444 67.8757 172.52C67.8757 171.284 68.0257 170.234 68.3257 169.37C68.6377 168.506 69.0637 167.804 69.6037 167.264C70.1437 166.712 70.7797 166.316 71.5117 166.076C72.2437 165.824 73.0417 165.698 73.9057 165.698C74.5657 165.698 75.1777 165.788 75.7417 165.968C76.3177 166.136 76.8217 166.394 77.2537 166.742C77.6977 167.09 78.0577 167.522 78.3337 168.038C78.6217 168.542 78.8197 169.13 78.9277 169.802H77.6677ZM81.532 179V166.04H82.756V172.754L89.398 166.04H90.784L85.672 171.206L91.684 179H90.19L84.79 171.962L82.756 173.996V179H81.532ZM98.4216 179V166.04H103.156C103.996 166.04 104.686 166.136 105.226 166.328C105.778 166.52 106.21 166.784 106.522 167.12C106.846 167.456 107.068 167.846 107.188 168.29C107.32 168.722 107.386 169.178 107.386 169.658C107.386 170.378 107.236 170.972 106.936 171.44C106.648 171.908 106.27 172.28 105.802 172.556C105.334 172.82 104.8 173.006 104.2 173.114C103.612 173.222 103.018 173.276 102.418 173.276H99.6456V179H98.4216ZM102.454 172.232C103.03 172.232 103.546 172.196 104.002 172.124C104.458 172.052 104.842 171.92 105.154 171.728C105.478 171.524 105.724 171.254 105.892 170.918C106.072 170.57 106.162 170.12 106.162 169.568C106.162 168.752 105.892 168.134 105.352 167.714C104.824 167.294 103.978 167.084 102.814 167.084H99.6456V172.232H102.454ZM109.479 179V166.04H118.101V167.084H110.703V171.764H117.381V172.808H110.703V177.956H118.281V179H109.479ZM125.505 172.07C125.961 172.07 126.381 172.022 126.765 171.926C127.161 171.83 127.503 171.68 127.791 171.476C128.079 171.26 128.307 170.99 128.475 170.666C128.643 170.342 128.727 169.952 128.727 169.496C128.727 169.016 128.637 168.62 128.457 168.308C128.289 167.996 128.055 167.75 127.755 167.57C127.467 167.39 127.131 167.264 126.747 167.192C126.375 167.12 125.985 167.084 125.577 167.084H121.689V172.07H125.505ZM121.689 173.114V179H120.465V166.04H125.541C126.969 166.04 128.061 166.31 128.817 166.85C129.573 167.378 129.951 168.242 129.951 169.442C129.951 170.258 129.783 170.906 129.447 171.386C129.123 171.866 128.589 172.274 127.845 172.61C128.229 172.742 128.529 172.934 128.745 173.186C128.961 173.438 129.123 173.726 129.231 174.05C129.339 174.374 129.405 174.716 129.429 175.076C129.465 175.436 129.489 175.784 129.501 176.12C129.513 176.612 129.531 177.02 129.555 177.344C129.591 177.668 129.627 177.932 129.663 178.136C129.711 178.34 129.765 178.502 129.825 178.622C129.885 178.73 129.957 178.814 130.041 178.874V179H128.691C128.559 178.784 128.463 178.484 128.403 178.1C128.355 177.716 128.313 177.314 128.277 176.894C128.253 176.474 128.229 176.066 128.205 175.67C128.193 175.274 128.163 174.95 128.115 174.698C128.043 174.35 127.923 174.074 127.755 173.87C127.599 173.654 127.407 173.492 127.179 173.384C126.951 173.276 126.693 173.204 126.405 173.168C126.129 173.132 125.841 173.114 125.541 173.114H121.689ZM132.921 179V166.04H134.145V179H132.921ZM136.995 172.538C136.995 171.59 137.121 170.702 137.373 169.874C137.637 169.046 138.021 168.326 138.525 167.714C139.029 167.09 139.653 166.598 140.397 166.238C141.141 165.878 141.999 165.698 142.971 165.698C143.979 165.698 144.861 165.878 145.617 166.238C146.385 166.586 147.021 167.072 147.525 167.696C148.041 168.308 148.425 169.034 148.677 169.874C148.941 170.702 149.073 171.59 149.073 172.538C149.073 173.474 148.941 174.356 148.677 175.184C148.425 176 148.047 176.72 147.543 177.344C147.039 177.956 146.409 178.442 145.653 178.802C144.897 179.162 144.021 179.342 143.025 179.342C142.029 179.342 141.153 179.162 140.397 178.802C139.641 178.442 139.011 177.956 138.507 177.344C138.003 176.72 137.625 176 137.373 175.184C137.121 174.356 136.995 173.474 136.995 172.538ZM143.043 178.298C143.883 178.298 144.603 178.142 145.203 177.83C145.815 177.506 146.313 177.08 146.697 176.552C147.093 176.024 147.381 175.412 147.561 174.716C147.753 174.02 147.849 173.294 147.849 172.538C147.849 171.638 147.735 170.834 147.507 170.126C147.291 169.406 146.973 168.794 146.553 168.29C146.133 167.786 145.623 167.402 145.023 167.138C144.423 166.874 143.751 166.742 143.007 166.742C142.179 166.742 141.459 166.904 140.847 167.228C140.247 167.552 139.749 167.984 139.353 168.524C138.969 169.052 138.681 169.664 138.489 170.36C138.309 171.056 138.219 171.782 138.219 172.538C138.219 173.306 138.309 174.038 138.489 174.734C138.681 175.43 138.969 176.042 139.353 176.57C139.749 177.098 140.247 177.518 140.847 177.83C141.459 178.142 142.191 178.298 143.043 178.298ZM151.509 179V166.04H155.937C156.297 166.04 156.651 166.052 156.999 166.076C157.347 166.088 157.689 166.13 158.025 166.202C158.361 166.262 158.685 166.358 158.997 166.49C159.321 166.622 159.633 166.796 159.933 167.012C160.365 167.324 160.719 167.708 160.995 168.164C161.271 168.608 161.487 169.082 161.643 169.586C161.811 170.078 161.925 170.582 161.985 171.098C162.057 171.602 162.093 172.07 162.093 172.502C162.093 172.934 162.063 173.372 162.003 173.816C161.955 174.26 161.871 174.698 161.751 175.13C161.631 175.55 161.469 175.958 161.265 176.354C161.073 176.738 160.827 177.092 160.527 177.416C160.227 177.752 159.897 178.022 159.537 178.226C159.189 178.43 158.817 178.592 158.421 178.712C158.037 178.82 157.635 178.898 157.215 178.946C156.795 178.982 156.369 179 155.937 179H151.509ZM152.733 177.956H155.667C156.219 177.956 156.735 177.926 157.215 177.866C157.707 177.794 158.205 177.626 158.709 177.362C159.141 177.146 159.495 176.852 159.771 176.48C160.047 176.108 160.263 175.706 160.419 175.274C160.587 174.83 160.701 174.368 160.761 173.888C160.833 173.408 160.869 172.946 160.869 172.502C160.869 172.034 160.839 171.56 160.779 171.08C160.719 170.588 160.605 170.126 160.437 169.694C160.269 169.25 160.041 168.848 159.753 168.488C159.465 168.116 159.093 167.81 158.637 167.57C158.253 167.366 157.797 167.234 157.269 167.174C156.741 167.114 156.207 167.084 155.667 167.084H152.733V177.956Z" fill="#DFF26A"/>
<path d="M286.288 99.04H295.72V100.084H291.616V112H290.392V100.084H286.288V99.04ZM296.326 99.04H297.604L301.51 110.56L305.398 99.04H306.676L302.176 112H300.826L296.326 99.04ZM308.464 112V99.04H309.688V110.956H316.636V112H308.464Z" fill="#DFF26A"/>
<path d="M212.656 168.802C212.404 167.698 211.936 166.912 211.252 166.444C210.568 165.976 209.674 165.742 208.57 165.742C207.79 165.742 207.118 165.898 206.554 166.21C205.99 166.522 205.522 166.942 205.15 167.47C204.79 167.998 204.52 168.61 204.34 169.306C204.172 169.99 204.088 170.716 204.088 171.484C204.088 172.204 204.16 172.912 204.304 173.608C204.46 174.304 204.712 174.928 205.06 175.48C205.408 176.02 205.876 176.458 206.464 176.794C207.052 177.13 207.79 177.298 208.678 177.298C209.23 177.298 209.734 177.208 210.19 177.028C210.646 176.848 211.042 176.602 211.378 176.29C211.726 175.966 212.014 175.588 212.242 175.156C212.482 174.724 212.662 174.25 212.782 173.734H214.06C213.916 174.358 213.706 174.952 213.43 175.516C213.154 176.068 212.788 176.554 212.332 176.974C211.888 177.394 211.342 177.73 210.694 177.982C210.058 178.222 209.308 178.342 208.444 178.342C207.448 178.342 206.596 178.162 205.888 177.802C205.18 177.43 204.598 176.932 204.142 176.308C203.698 175.684 203.374 174.964 203.17 174.148C202.966 173.32 202.864 172.444 202.864 171.52C202.864 170.284 203.014 169.234 203.314 168.37C203.626 167.506 204.052 166.804 204.592 166.264C205.132 165.712 205.768 165.316 206.5 165.076C207.232 164.824 208.03 164.698 208.894 164.698C209.554 164.698 210.166 164.788 210.73 164.968C211.306 165.136 211.81 165.394 212.242 165.742C212.686 166.09 213.046 166.522 213.322 167.038C213.61 167.542 213.808 168.13 213.916 168.802H212.656ZM215.944 171.538C215.944 170.59 216.07 169.702 216.322 168.874C216.586 168.046 216.97 167.326 217.474 166.714C217.978 166.09 218.602 165.598 219.346 165.238C220.09 164.878 220.948 164.698 221.92 164.698C222.928 164.698 223.81 164.878 224.566 165.238C225.334 165.586 225.97 166.072 226.474 166.696C226.99 167.308 227.374 168.034 227.626 168.874C227.89 169.702 228.022 170.59 228.022 171.538C228.022 172.474 227.89 173.356 227.626 174.184C227.374 175 226.996 175.72 226.492 176.344C225.988 176.956 225.358 177.442 224.602 177.802C223.846 178.162 222.97 178.342 221.974 178.342C220.978 178.342 220.102 178.162 219.346 177.802C218.59 177.442 217.96 176.956 217.456 176.344C216.952 175.72 216.574 175 216.322 174.184C216.07 173.356 215.944 172.474 215.944 171.538ZM221.992 177.298C222.832 177.298 223.552 177.142 224.152 176.83C224.764 176.506 225.262 176.08 225.646 175.552C226.042 175.024 226.33 174.412 226.51 173.716C226.702 173.02 226.798 172.294 226.798 171.538C226.798 170.638 226.684 169.834 226.456 169.126C226.24 168.406 225.922 167.794 225.502 167.29C225.082 166.786 224.572 166.402 223.972 166.138C223.372 165.874 222.7 165.742 221.956 165.742C221.128 165.742 220.408 165.904 219.796 166.228C219.196 166.552 218.698 166.984 218.302 167.524C217.918 168.052 217.63 168.664 217.438 169.36C217.258 170.056 217.168 170.782 217.168 171.538C217.168 172.306 217.258 173.038 217.438 173.734C217.63 174.43 217.918 175.042 218.302 175.57C218.698 176.098 219.196 176.518 219.796 176.83C220.408 177.142 221.14 177.298 221.992 177.298ZM230.404 178V165.04H232.276L236.524 176.47H236.56L240.736 165.04H242.59V178H241.366V166.444H241.33L237.082 178H235.93L231.664 166.444H231.628V178H230.404ZM245.398 178V165.04H247.27L251.518 176.47H251.554L255.73 165.04H257.584V178H256.36V166.444H256.324L252.076 178H250.924L246.658 166.444H246.622V178H245.398ZM260.878 178V165.04H262.102V178H260.878ZM265.96 174.13C266.008 174.706 266.134 175.198 266.338 175.606C266.554 176.002 266.824 176.326 267.148 176.578C267.484 176.83 267.868 177.016 268.3 177.136C268.732 177.244 269.194 177.298 269.686 177.298C270.262 177.298 270.76 177.226 271.18 177.082C271.6 176.938 271.942 176.746 272.206 176.506C272.47 176.254 272.662 175.966 272.782 175.642C272.914 175.318 272.98 174.976 272.98 174.616C272.98 174.112 272.866 173.704 272.638 173.392C272.41 173.08 272.11 172.828 271.738 172.636C271.378 172.432 270.958 172.27 270.478 172.15C270.01 172.03 269.524 171.916 269.02 171.808C268.528 171.688 268.042 171.55 267.562 171.394C267.094 171.238 266.674 171.028 266.302 170.764C265.942 170.5 265.648 170.164 265.42 169.756C265.192 169.336 265.078 168.808 265.078 168.172C265.078 167.728 265.168 167.296 265.348 166.876C265.54 166.456 265.816 166.084 266.176 165.76C266.548 165.436 267.01 165.178 267.562 164.986C268.114 164.794 268.75 164.698 269.47 164.698C270.202 164.698 270.838 164.8 271.378 165.004C271.93 165.208 272.386 165.49 272.746 165.85C273.106 166.198 273.376 166.606 273.556 167.074C273.736 167.542 273.826 168.04 273.826 168.568H272.656C272.656 168.076 272.566 167.65 272.386 167.29C272.218 166.93 271.984 166.636 271.684 166.408C271.384 166.18 271.042 166.012 270.658 165.904C270.274 165.796 269.878 165.742 269.47 165.742C268.846 165.742 268.318 165.832 267.886 166.012C267.466 166.18 267.13 166.402 266.878 166.678C266.626 166.954 266.452 167.26 266.356 167.596C266.26 167.932 266.242 168.268 266.302 168.604C266.374 169.024 266.542 169.36 266.806 169.612C267.07 169.864 267.394 170.074 267.778 170.242C268.162 170.398 268.582 170.53 269.038 170.638C269.506 170.734 269.98 170.842 270.46 170.962C270.94 171.07 271.402 171.202 271.846 171.358C272.302 171.514 272.704 171.724 273.052 171.988C273.4 172.252 273.676 172.594 273.88 173.014C274.096 173.422 274.204 173.938 274.204 174.562C274.204 175.762 273.79 176.692 272.962 177.352C272.134 178.012 270.97 178.342 269.47 178.342C268.798 178.342 268.174 178.252 267.598 178.072C267.022 177.904 266.524 177.646 266.104 177.298C265.684 176.938 265.354 176.5 265.114 175.984C264.886 175.456 264.772 174.838 264.772 174.13H265.96ZM276.964 174.13C277.012 174.706 277.138 175.198 277.342 175.606C277.558 176.002 277.828 176.326 278.152 176.578C278.488 176.83 278.872 177.016 279.304 177.136C279.736 177.244 280.198 177.298 280.69 177.298C281.266 177.298 281.764 177.226 282.184 177.082C282.604 176.938 282.946 176.746 283.21 176.506C283.474 176.254 283.666 175.966 283.786 175.642C283.918 175.318 283.984 174.976 283.984 174.616C283.984 174.112 283.87 173.704 283.642 173.392C283.414 173.08 283.114 172.828 282.742 172.636C282.382 172.432 281.962 172.27 281.482 172.15C281.014 172.03 280.528 171.916 280.024 171.808C279.532 171.688 279.046 171.55 278.566 171.394C278.098 171.238 277.678 171.028 277.306 170.764C276.946 170.5 276.652 170.164 276.424 169.756C276.196 169.336 276.082 168.808 276.082 168.172C276.082 167.728 276.172 167.296 276.352 166.876C276.544 166.456 276.82 166.084 277.18 165.76C277.552 165.436 278.014 165.178 278.566 164.986C279.118 164.794 279.754 164.698 280.474 164.698C281.206 164.698 281.842 164.8 282.382 165.004C282.934 165.208 283.39 165.49 283.75 165.85C284.11 166.198 284.38 166.606 284.56 167.074C284.74 167.542 284.83 168.04 284.83 168.568H283.66C283.66 168.076 283.57 167.65 283.39 167.29C283.222 166.93 282.988 166.636 282.688 166.408C282.388 166.18 282.046 166.012 281.662 165.904C281.278 165.796 280.882 165.742 280.474 165.742C279.85 165.742 279.322 165.832 278.89 166.012C278.47 166.18 278.134 166.402 277.882 166.678C277.63 166.954 277.456 167.26 277.36 167.596C277.264 167.932 277.246 168.268 277.306 168.604C277.378 169.024 277.546 169.36 277.81 169.612C278.074 169.864 278.398 170.074 278.782 170.242C279.166 170.398 279.586 170.53 280.042 170.638C280.51 170.734 280.984 170.842 281.464 170.962C281.944 171.07 282.406 171.202 282.85 171.358C283.306 171.514 283.708 171.724 284.056 171.988C284.404 172.252 284.68 172.594 284.884 173.014C285.1 173.422 285.208 173.938 285.208 174.562C285.208 175.762 284.794 176.692 283.966 177.352C283.138 178.012 281.974 178.342 280.474 178.342C279.802 178.342 279.178 178.252 278.602 178.072C278.026 177.904 277.528 177.646 277.108 177.298C276.688 176.938 276.358 176.5 276.118 175.984C275.89 175.456 275.776 174.838 275.776 174.13H276.964ZM287.896 178V165.04H289.12V178H287.896ZM291.97 171.538C291.97 170.59 292.096 169.702 292.348 168.874C292.612 168.046 292.996 167.326 293.5 166.714C294.004 166.09 294.628 165.598 295.372 165.238C296.116 164.878 296.974 164.698 297.946 164.698C298.954 164.698 299.836 164.878 300.592 165.238C301.36 165.586 301.996 166.072 302.5 166.696C303.016 167.308 303.4 168.034 303.652 168.874C303.916 169.702 304.048 170.59 304.048 171.538C304.048 172.474 303.916 173.356 303.652 174.184C303.4 175 303.022 175.72 302.518 176.344C302.014 176.956 301.384 177.442 300.628 177.802C299.872 178.162 298.996 178.342 298 178.342C297.004 178.342 296.128 178.162 295.372 177.802C294.616 177.442 293.986 176.956 293.482 176.344C292.978 175.72 292.6 175 292.348 174.184C292.096 173.356 291.97 172.474 291.97 171.538ZM298.018 177.298C298.858 177.298 299.578 177.142 300.178 176.83C300.79 176.506 301.288 176.08 301.672 175.552C302.068 175.024 302.356 174.412 302.536 173.716C302.728 173.02 302.824 172.294 302.824 171.538C302.824 170.638 302.71 169.834 302.482 169.126C302.266 168.406 301.948 167.794 301.528 167.29C301.108 166.786 300.598 166.402 299.998 166.138C299.398 165.874 298.726 165.742 297.982 165.742C297.154 165.742 296.434 165.904 295.822 166.228C295.222 166.552 294.724 166.984 294.328 167.524C293.944 168.052 293.656 168.664 293.464 169.36C293.284 170.056 293.194 170.782 293.194 171.538C293.194 172.306 293.284 173.038 293.464 173.734C293.656 174.43 293.944 175.042 294.328 175.57C294.724 176.098 295.222 176.518 295.822 176.83C296.434 177.142 297.166 177.298 298.018 177.298ZM307.707 166.696H307.671V178H306.447V165.04H307.833L315.321 176.362H315.357V165.04H316.581V178H315.159L307.707 166.696Z" fill="#DFF26A"/>
<line x1="42" y1="80.5" x2="318" y2="80.5" stroke="white" stroke-opacity="0.4"/>
<rect x="227" y="40" width="90" height="25" rx="12.5" fill="#DFF26A"/>
<path d="M244.855 57.2461C243.593 57.2461 242.707 56.804 242.196 55.9199C241.69 55.0358 241.438 53.7757 241.438 52.1396C241.438 50.5036 241.69 49.2412 242.196 48.3525C242.707 47.4639 243.593 47.0195 244.855 47.0195C246.118 47.0195 247.004 47.4639 247.515 48.3525C248.021 49.2412 248.273 50.5036 248.273 52.1396C248.273 53.7757 248.018 55.0358 247.508 55.9199C247.002 56.804 246.118 57.2461 244.855 57.2461ZM245.997 54.751C246.175 54.1494 246.264 53.279 246.264 52.1396C246.264 50.9456 246.173 50.0615 245.99 49.4873C245.812 48.9131 245.434 48.626 244.855 48.626C244.277 48.626 243.894 48.9131 243.707 49.4873C243.52 50.0615 243.427 50.9456 243.427 52.1396C243.427 53.279 243.52 54.1517 243.707 54.7578C243.894 55.3594 244.277 55.6602 244.855 55.6602C245.434 55.6602 245.815 55.3571 245.997 54.751ZM249.668 54.9629H251.739V57H249.668V54.9629ZM256.969 50.5674C257.848 50.5674 258.568 50.8659 259.129 51.4629C259.694 52.0599 259.977 52.8232 259.977 53.7529C259.977 54.6781 259.701 55.4938 259.149 56.2002C258.598 56.9066 257.741 57.2598 256.579 57.2598C255.33 57.2598 254.41 56.738 253.817 55.6943C253.357 54.8786 253.127 53.8258 253.127 52.5361C253.127 51.7796 253.159 51.1644 253.223 50.6904C253.337 49.8473 253.558 49.1455 253.886 48.585C254.168 48.1064 254.537 47.7214 254.993 47.4297C255.453 47.138 256.003 46.9922 256.641 46.9922C257.561 46.9922 258.295 47.2292 258.842 47.7031C259.389 48.1725 259.696 48.7992 259.765 49.583H257.823C257.823 49.4235 257.762 49.248 257.639 49.0566C257.429 48.7467 257.112 48.5918 256.688 48.5918C256.055 48.5918 255.604 48.9473 255.335 49.6582C255.189 50.0501 255.089 50.6289 255.034 51.3945C255.276 51.1074 255.556 50.8978 255.875 50.7656C256.194 50.6335 256.559 50.5674 256.969 50.5674ZM255.656 52.4268C255.273 52.723 255.082 53.2015 255.082 53.8623C255.082 54.3955 255.226 54.8307 255.513 55.168C255.8 55.5052 256.164 55.6738 256.606 55.6738C257.039 55.6738 257.379 55.512 257.625 55.1885C257.876 54.8604 258.001 54.4365 258.001 53.917C258.001 53.3382 257.86 52.8962 257.577 52.5908C257.295 52.2809 256.948 52.126 256.538 52.126C256.205 52.126 255.911 52.2262 255.656 52.4268ZM264.762 50.5674C265.641 50.5674 266.361 50.8659 266.922 51.4629C267.487 52.0599 267.77 52.8232 267.77 53.7529C267.77 54.6781 267.494 55.4938 266.942 56.2002C266.391 56.9066 265.534 57.2598 264.372 57.2598C263.123 57.2598 262.203 56.738 261.61 55.6943C261.15 54.8786 260.92 53.8258 260.92 52.5361C260.92 51.7796 260.952 51.1644 261.016 50.6904C261.13 49.8473 261.351 49.1455 261.679 48.585C261.961 48.1064 262.33 47.7214 262.786 47.4297C263.246 47.138 263.796 46.9922 264.434 46.9922C265.354 46.9922 266.088 47.2292 266.635 47.7031C267.182 48.1725 267.489 48.7992 267.558 49.583H265.616C265.616 49.4235 265.555 49.248 265.432 49.0566C265.222 48.7467 264.905 48.5918 264.481 48.5918C263.848 48.5918 263.397 48.9473 263.128 49.6582C262.982 50.0501 262.882 50.6289 262.827 51.3945C263.069 51.1074 263.349 50.8978 263.668 50.7656C263.987 50.6335 264.352 50.5674 264.762 50.5674ZM263.449 52.4268C263.066 52.723 262.875 53.2015 262.875 53.8623C262.875 54.3955 263.019 54.8307 263.306 55.168C263.593 55.5052 263.957 55.6738 264.399 55.6738C264.832 55.6738 265.172 55.512 265.418 55.1885C265.669 54.8604 265.794 54.4365 265.794 53.917C265.794 53.3382 265.653 52.8962 265.37 52.5908C265.088 52.2809 264.741 52.126 264.331 52.126C263.998 52.126 263.704 52.2262 263.449 52.4268ZM275.241 54.6553C275.241 53.9489 275.49 53.3473 275.986 52.8506C276.483 52.3584 277.082 52.1123 277.784 52.1123C278.486 52.1123 279.085 52.3607 279.582 52.8574C280.079 53.3542 280.327 53.9535 280.327 54.6553C280.327 55.3571 280.079 55.9564 279.582 56.4531C279.085 56.9499 278.486 57.1982 277.784 57.1982C277.082 57.1982 276.483 56.9499 275.986 56.4531C275.49 55.9564 275.241 55.3571 275.241 54.6553ZM269.342 51.4766C268.845 50.9798 268.597 50.3805 268.597 49.6787C268.597 48.9769 268.845 48.3776 269.342 47.8809C269.839 47.3841 270.438 47.1357 271.14 47.1357C271.841 47.1357 272.441 47.3841 272.938 47.8809C273.434 48.3776 273.683 48.9769 273.683 49.6787C273.683 50.3805 273.434 50.9798 272.938 51.4766C272.445 51.9733 271.846 52.2217 271.14 52.2217C270.438 52.2217 269.839 51.9733 269.342 51.4766ZM272.213 57.2598H271.153L276.697 47.0879H277.736L272.213 57.2598ZM277.019 55.4209C277.228 55.6351 277.483 55.7422 277.784 55.7422C278.085 55.7422 278.34 55.6374 278.55 55.4277C278.764 55.2135 278.871 54.9561 278.871 54.6553C278.871 54.3545 278.764 54.0993 278.55 53.8896C278.34 53.6755 278.085 53.5684 277.784 53.5684C277.483 53.5684 277.226 53.6755 277.012 53.8896C276.802 54.0993 276.697 54.3545 276.697 54.6553C276.697 54.9561 276.804 55.2113 277.019 55.4209ZM270.374 50.4443C270.584 50.6585 270.839 50.7656 271.14 50.7656C271.44 50.7656 271.696 50.6608 271.905 50.4512C272.119 50.237 272.227 49.9795 272.227 49.6787C272.227 49.3779 272.119 49.1227 271.905 48.9131C271.696 48.6989 271.44 48.5918 271.14 48.5918C270.839 48.5918 270.581 48.6989 270.367 48.9131C270.158 49.1227 270.053 49.3779 270.053 49.6787C270.053 49.9795 270.16 50.2347 270.374 50.4443Z" fill="#1C1C1C"/>
<path d="M286.017 49.1099H286.833L284.33 57H283.514L286.017 49.1099ZM287.896 54.1909C287.896 54.8068 288.027 55.3224 288.289 55.7378C288.55 56.1532 288.969 56.3608 289.545 56.3608C289.993 56.3608 290.36 56.1693 290.646 55.7861C290.937 55.3994 291.082 54.8462 291.082 54.1265C291.082 53.3996 290.933 52.8625 290.636 52.5151C290.339 52.1642 289.972 51.9888 289.535 51.9888C289.048 51.9888 288.652 52.175 288.348 52.5474C288.047 52.9198 287.896 53.4676 287.896 54.1909ZM289.352 51.1455C289.792 51.1455 290.161 51.2386 290.458 51.4248C290.63 51.5322 290.826 51.7202 291.044 51.9888V49.083H291.973V57H291.103V56.1997C290.877 56.5542 290.611 56.8102 290.303 56.9678C289.995 57.1253 289.642 57.2041 289.245 57.2041C288.604 57.2041 288.049 56.9355 287.58 56.3984C287.111 55.8577 286.876 55.1398 286.876 54.2446C286.876 53.4067 287.089 52.6816 287.515 52.0693C287.945 51.4535 288.557 51.1455 289.352 51.1455ZM294.148 55.4692C294.148 55.7485 294.25 55.9688 294.455 56.1299C294.659 56.291 294.9 56.3716 295.18 56.3716C295.52 56.3716 295.849 56.2928 296.168 56.1353C296.705 55.8739 296.974 55.446 296.974 54.8516V54.0728C296.855 54.1479 296.703 54.2106 296.517 54.2607C296.331 54.3109 296.148 54.3467 295.969 54.3682L295.384 54.4434C295.033 54.4899 294.77 54.5633 294.594 54.6636C294.297 54.8319 294.148 55.1004 294.148 55.4692ZM296.49 53.5142C296.712 53.4855 296.861 53.3924 296.936 53.2349C296.979 53.1489 297 53.0254 297 52.8643C297 52.5348 296.882 52.2967 296.646 52.1499C296.413 51.9995 296.078 51.9243 295.642 51.9243C295.137 51.9243 294.779 52.0604 294.567 52.3325C294.449 52.4829 294.372 52.7067 294.336 53.0039H293.434C293.452 52.2949 293.681 51.8026 294.122 51.5269C294.566 51.2476 295.079 51.1079 295.663 51.1079C296.34 51.1079 296.889 51.2368 297.312 51.4946C297.731 51.7524 297.94 52.1535 297.94 52.6978V56.0117C297.94 56.112 297.96 56.1925 298 56.2534C298.042 56.3143 298.13 56.3447 298.263 56.3447C298.306 56.3447 298.354 56.3429 298.408 56.3394C298.461 56.3322 298.519 56.3232 298.58 56.3125V57.0269C298.429 57.0698 298.315 57.0967 298.236 57.1074C298.157 57.1182 298.05 57.1235 297.914 57.1235C297.581 57.1235 297.339 57.0054 297.188 56.769C297.11 56.6437 297.054 56.4665 297.022 56.2373C296.825 56.4951 296.542 56.7189 296.173 56.9087C295.805 57.0985 295.398 57.1934 294.954 57.1934C294.421 57.1934 293.984 57.0322 293.644 56.71C293.307 56.3841 293.139 55.9777 293.139 55.4907C293.139 54.9572 293.305 54.5436 293.638 54.25C293.971 53.9564 294.408 53.7756 294.949 53.7075L296.49 53.5142ZM303.124 51.2476H304.192C304.056 51.6164 303.754 52.4578 303.285 53.772C302.934 54.7603 302.64 55.5659 302.404 56.189C301.845 57.6571 301.451 58.5522 301.222 58.8745C300.993 59.1968 300.599 59.3579 300.041 59.3579C299.904 59.3579 299.799 59.3525 299.724 59.3418C299.652 59.3311 299.562 59.3114 299.455 59.2827V58.4019C299.623 58.4484 299.745 58.4771 299.82 58.4878C299.896 58.4985 299.962 58.5039 300.019 58.5039C300.198 58.5039 300.329 58.4735 300.411 58.4126C300.497 58.3553 300.569 58.2837 300.626 58.1978C300.644 58.1691 300.708 58.0223 300.819 57.7573C300.93 57.4924 301.011 57.2954 301.061 57.1665L298.934 51.2476H300.03L301.571 55.9312L303.124 51.2476Z" fill="#1C1C1C" fill-opacity="0.7"/>
<defs>
<clipPath id="clip0_73_193">
<rect width="18" height="18" fill="white" transform="translate(300 122)"/>
</clipPath>
</defs>
</svg>
