<svg width="361" height="326" viewBox="0 0 361 326" fill="none" xmlns="http://www.w3.org/2000/svg">
<rect x="0.5" y="0.5" width="360" height="325" rx="25.5" fill="white" stroke="#E9E9E9"/>
<rect x="18" y="251" width="325" height="53" rx="16" fill="#DFF26A"/>
<path d="M153.982 282.033C153.016 282.918 151.779 283.36 150.273 283.36C148.41 283.36 146.945 282.763 145.879 281.567C144.812 280.366 144.279 278.72 144.279 276.628C144.279 274.366 144.886 272.623 146.099 271.398C147.153 270.332 148.495 269.799 150.124 269.799C152.304 269.799 153.897 270.514 154.905 271.943C155.462 272.746 155.761 273.552 155.802 274.36H153.095C152.919 273.739 152.693 273.271 152.418 272.954C151.926 272.392 151.196 272.11 150.229 272.11C149.245 272.11 148.469 272.509 147.9 273.306C147.332 274.097 147.048 275.219 147.048 276.672C147.048 278.125 147.347 279.215 147.944 279.941C148.548 280.662 149.312 281.022 150.238 281.022C151.188 281.022 151.911 280.712 152.409 280.091C152.685 279.757 152.913 279.256 153.095 278.588H155.775C155.541 280 154.943 281.148 153.982 282.033ZM166.305 277.375V283H163.747V277.173C163.747 276.657 163.659 276.241 163.483 275.925C163.255 275.479 162.821 275.257 162.183 275.257C161.521 275.257 161.017 275.479 160.671 275.925C160.331 276.364 160.161 276.994 160.161 277.814V283H157.665V270.089H160.161V274.668C160.524 274.111 160.943 273.725 161.418 273.508C161.898 273.285 162.402 273.174 162.93 273.174C163.521 273.174 164.058 273.276 164.538 273.481C165.024 273.687 165.423 274 165.733 274.422C165.997 274.779 166.158 275.148 166.217 275.529C166.275 275.904 166.305 276.52 166.305 277.375ZM176.641 274.633C177.449 275.646 177.854 276.845 177.854 278.228C177.854 279.634 177.449 280.838 176.641 281.84C175.832 282.836 174.604 283.334 172.958 283.334C171.312 283.334 170.084 282.836 169.275 281.84C168.467 280.838 168.062 279.634 168.062 278.228C168.062 276.845 168.467 275.646 169.275 274.633C170.084 273.619 171.312 273.112 172.958 273.112C174.604 273.112 175.832 273.619 176.641 274.633ZM172.949 275.23C172.217 275.23 171.651 275.491 171.253 276.013C170.86 276.528 170.664 277.267 170.664 278.228C170.664 279.188 170.86 279.93 171.253 280.451C171.651 280.973 172.217 281.233 172.949 281.233C173.682 281.233 174.244 280.973 174.637 280.451C175.029 279.93 175.226 279.188 175.226 278.228C175.226 277.267 175.029 276.528 174.637 276.013C174.244 275.491 173.682 275.23 172.949 275.23ZM187.645 274.633C188.453 275.646 188.857 276.845 188.857 278.228C188.857 279.634 188.453 280.838 187.645 281.84C186.836 282.836 185.608 283.334 183.962 283.334C182.315 283.334 181.088 282.836 180.279 281.84C179.471 280.838 179.066 279.634 179.066 278.228C179.066 276.845 179.471 275.646 180.279 274.633C181.088 273.619 182.315 273.112 183.962 273.112C185.608 273.112 186.836 273.619 187.645 274.633ZM183.953 275.23C183.221 275.23 182.655 275.491 182.257 276.013C181.864 276.528 181.668 277.267 181.668 278.228C181.668 279.188 181.864 279.93 182.257 280.451C182.655 280.973 183.221 281.233 183.953 281.233C184.686 281.233 185.248 280.973 185.641 280.451C186.033 279.93 186.229 279.188 186.229 278.228C186.229 277.267 186.033 276.528 185.641 276.013C185.248 275.491 184.686 275.23 183.953 275.23ZM197.26 273.859C198.01 274.34 198.44 275.166 198.552 276.338H196.047C196.012 276.016 195.921 275.761 195.774 275.573C195.499 275.233 195.03 275.063 194.368 275.063C193.823 275.063 193.434 275.148 193.199 275.318C192.971 275.488 192.856 275.688 192.856 275.916C192.856 276.203 192.979 276.411 193.226 276.54C193.472 276.675 194.342 276.906 195.836 277.234C196.832 277.469 197.579 277.823 198.077 278.298C198.569 278.778 198.815 279.379 198.815 280.1C198.815 281.049 198.461 281.825 197.752 282.429C197.049 283.026 195.959 283.325 194.482 283.325C192.977 283.325 191.863 283.009 191.143 282.376C190.428 281.737 190.07 280.926 190.07 279.941H192.61C192.663 280.387 192.777 280.703 192.953 280.891C193.264 281.225 193.838 281.392 194.676 281.392C195.168 281.392 195.558 281.318 195.845 281.172C196.138 281.025 196.284 280.806 196.284 280.513C196.284 280.231 196.167 280.018 195.933 279.871C195.698 279.725 194.828 279.473 193.322 279.115C192.238 278.846 191.474 278.509 191.028 278.104C190.583 277.706 190.36 277.132 190.36 276.382C190.36 275.497 190.706 274.738 191.397 274.105C192.095 273.467 193.073 273.147 194.333 273.147C195.528 273.147 196.504 273.385 197.26 273.859ZM208.879 280.188C208.814 280.756 208.519 281.333 207.991 281.919C207.171 282.851 206.022 283.316 204.546 283.316C203.327 283.316 202.252 282.924 201.32 282.139C200.389 281.354 199.923 280.076 199.923 278.307C199.923 276.648 200.342 275.377 201.18 274.492C202.023 273.607 203.116 273.165 204.458 273.165C205.255 273.165 205.973 273.314 206.611 273.613C207.25 273.912 207.777 274.384 208.193 275.028C208.568 275.597 208.812 276.256 208.923 277.006C208.987 277.445 209.014 278.078 209.002 278.904H202.445C202.48 279.865 202.782 280.539 203.351 280.926C203.696 281.166 204.112 281.286 204.599 281.286C205.114 281.286 205.533 281.14 205.855 280.847C206.031 280.688 206.187 280.469 206.321 280.188H208.879ZM206.4 277.252C206.359 276.59 206.157 276.089 205.794 275.749C205.437 275.403 204.991 275.23 204.458 275.23C203.878 275.23 203.427 275.412 203.104 275.775C202.788 276.139 202.589 276.631 202.507 277.252H206.4Z" fill="#1C1C1C"/>
<path d="M224 282.31L229 276.649L224 270.988" stroke="#1C1C1C" stroke-width="2" stroke-linecap="round" stroke-linejoin="round"/>
<path d="M244 162.492L249 159.345L244 156.198" stroke="#1C1C1C" stroke-width="2" stroke-linecap="round" stroke-linejoin="round"/>
<rect x="20" y="20" width="321" height="214" rx="16" fill="#1C1C1C"/>
<path d="M43.9805 43.2871H47.8906V58.6357H57.1582V62H43.9805V43.2871ZM68.1523 62.5205C65.4779 62.5205 63.4339 61.7926 62.0205 60.3369C60.1247 58.5511 59.1768 55.9782 59.1768 52.6182C59.1768 49.1904 60.1247 46.6175 62.0205 44.8994C63.4339 43.4437 65.4779 42.7158 68.1523 42.7158C70.8268 42.7158 72.8708 43.4437 74.2842 44.8994C76.1715 46.6175 77.1152 49.1904 77.1152 52.6182C77.1152 55.9782 76.1715 58.5511 74.2842 60.3369C72.8708 61.7926 70.8268 62.5205 68.1523 62.5205ZM71.8467 57.4932C72.7523 56.3506 73.2051 54.7256 73.2051 52.6182C73.2051 50.5192 72.748 48.8984 71.834 47.7559C70.9284 46.6048 69.7012 46.0293 68.1523 46.0293C66.6035 46.0293 65.3678 46.6006 64.4453 47.7432C63.5228 48.8857 63.0615 50.5107 63.0615 52.6182C63.0615 54.7256 63.5228 56.3506 64.4453 57.4932C65.3678 58.6357 66.6035 59.207 68.1523 59.207C69.7012 59.207 70.9326 58.6357 71.8467 57.4932ZM95.2441 62H91.334L83.6914 48.708V62H80.0479V43.2871H84.1484L91.6006 56.3506V43.2871H95.2441V62ZM110.377 61.543C109.344 62.1777 108.075 62.4951 106.568 62.4951C104.089 62.4951 102.057 61.6361 100.475 59.918C98.8242 58.1914 97.999 55.8301 97.999 52.834C97.999 49.804 98.8327 47.375 100.5 45.5469C102.167 43.7188 104.372 42.8047 107.114 42.8047C109.493 42.8047 111.401 43.4098 112.84 44.6201C114.287 45.8219 115.117 47.3242 115.328 49.127H111.481C111.185 47.849 110.462 46.9561 109.311 46.4482C108.667 46.1689 107.952 46.0293 107.165 46.0293C105.659 46.0293 104.419 46.6006 103.445 47.7432C102.48 48.8773 101.998 50.5869 101.998 52.8721C101.998 55.1742 102.523 56.8034 103.572 57.7598C104.622 58.7161 105.815 59.1943 107.152 59.1943C108.464 59.1943 109.539 58.8177 110.377 58.0645C111.215 57.3027 111.731 56.3083 111.926 55.0811H107.597V51.958H115.392V62H112.802L112.408 59.6641C111.655 60.5527 110.978 61.179 110.377 61.543ZM139.97 43.2871V46.6006H134.371V62H130.436V46.6006H124.812V43.2871H139.97ZM155.293 53.8242H146.203V58.6357H156.562V62H142.382V43.2871H156.105V46.6006H146.203V50.5742H155.293V53.8242ZM167.557 54.6621H163.52V62H159.698V43.2871H168.877C170.189 43.3125 171.196 43.4733 171.898 43.7695C172.609 44.0658 173.21 44.5016 173.701 45.0771C174.107 45.5511 174.429 46.0758 174.666 46.6514C174.903 47.2269 175.021 47.8828 175.021 48.6191C175.021 49.5078 174.797 50.3838 174.349 51.2471C173.9 52.1019 173.16 52.707 172.127 53.0625C172.99 53.4095 173.6 53.9046 173.955 54.5479C174.319 55.1826 174.501 56.1559 174.501 57.4678V58.7246C174.501 59.5794 174.535 60.1592 174.603 60.4639C174.704 60.9463 174.941 61.3018 175.313 61.5303V62H171.01C170.891 61.5853 170.807 61.251 170.756 60.9971C170.654 60.4723 170.599 59.9349 170.591 59.3848L170.565 57.6455C170.549 56.4521 170.328 55.6566 169.905 55.2588C169.491 54.861 168.708 54.6621 167.557 54.6621ZM169.931 51.2598C170.709 50.9043 171.099 50.2018 171.099 49.1523C171.099 48.0182 170.722 47.2565 169.969 46.8672C169.546 46.6471 168.911 46.5371 168.064 46.5371H163.52V51.5645H167.95C168.83 51.5645 169.491 51.4629 169.931 51.2598ZM181.979 62H178.335V43.2871H184.022L187.425 58.001L190.802 43.2871H196.426V62H192.782V49.3428C192.782 48.9788 192.786 48.471 192.795 47.8193C192.803 47.1592 192.808 46.6514 192.808 46.2959L189.266 62H185.47L181.953 46.2959C181.953 46.6514 181.957 47.1592 181.966 47.8193C181.974 48.471 181.979 48.9788 181.979 49.3428V62Z" fill="white"/>
<path d="M51.5391 133.544C52.0117 133.544 52.3877 133.361 52.667 132.996C52.9463 132.624 53.1504 132.176 53.2793 131.653H55.1055C54.9121 132.985 54.5146 134.128 53.9131 135.08C53.3187 136.033 52.513 136.509 51.4961 136.509C51.2956 136.509 51.0843 136.491 50.8623 136.455C50.4326 136.391 49.9242 136.237 49.3369 135.993L47.0918 135.145C46.8841 135.066 46.6299 134.994 46.3291 134.93C46.0283 134.865 45.8063 134.833 45.6631 134.833C45.2549 134.833 44.8932 134.991 44.5781 135.306C44.263 135.614 44.0374 136.086 43.9014 136.724H42.043C42.1647 135.871 42.3366 135.137 42.5586 134.521C42.7878 133.906 43.0671 133.401 43.3965 133.007C43.7474 132.591 44.109 132.301 44.4814 132.137C44.8538 131.965 45.237 131.879 45.6309 131.879C45.8027 131.879 46.0283 131.9 46.3076 131.943C46.7516 132.015 47.1634 132.122 47.543 132.266L50.0459 133.232C50.3395 133.347 50.6224 133.429 50.8945 133.479C51.1738 133.522 51.3887 133.544 51.5391 133.544ZM60.7129 132.266C60.3405 132.266 60.0182 132.312 59.7461 132.405C59.2663 132.577 58.9046 132.896 58.6611 133.361L55.9111 133.232L57.0068 124.628H65.5898V127.228H59.2197L58.6611 130.633C59.1338 130.325 59.5026 130.121 59.7676 130.021C60.2116 129.856 60.7523 129.773 61.3896 129.773C62.6787 129.773 63.8031 130.207 64.7627 131.073C65.7223 131.94 66.2021 133.2 66.2021 134.854C66.2021 136.294 65.7402 137.579 64.8164 138.711C63.8926 139.842 62.5104 140.408 60.6699 140.408C59.1875 140.408 57.9701 140.011 57.0176 139.216C56.0651 138.421 55.5352 137.293 55.4277 135.832H58.4785C58.6003 136.498 58.833 137.014 59.1768 137.379C59.5205 137.737 60.0218 137.916 60.6807 137.916C61.4398 137.916 62.0163 137.651 62.4102 137.121C62.8112 136.584 63.0117 135.911 63.0117 135.102C63.0117 134.307 62.8255 133.637 62.4531 133.093C62.0807 132.541 61.5007 132.266 60.7129 132.266ZM78.5986 134.253V136.648H76.8369V140H73.8398V136.648H67.6738V133.974L73.3994 124.521H76.8369V134.253H78.5986ZM69.9404 134.253H73.8398V127.528L69.9404 134.253ZM83.7227 141.096C83.5938 141.626 83.3538 142.084 83.0029 142.471C82.6234 142.886 82.1758 143.198 81.6602 143.405C81.1517 143.62 80.8008 143.728 80.6074 143.728V142.546C81.2233 142.374 81.6745 142.088 81.9609 141.687C82.2546 141.285 82.4229 140.723 82.4658 140H80.6074V136.799H83.916V139.57C83.916 140.057 83.8516 140.566 83.7227 141.096ZM93.7881 140H90.6514V129.258H86.9883V127.174C87.9551 127.131 88.6318 127.066 89.0186 126.98C89.6344 126.844 90.1357 126.572 90.5225 126.164C90.7874 125.885 90.988 125.512 91.124 125.047C91.2028 124.768 91.2422 124.56 91.2422 124.424H93.7881V140ZM99.6318 139.022C98.7367 138.106 98.2891 136.992 98.2891 135.682C98.2891 134.808 98.486 134.017 98.8799 133.308C99.2809 132.599 99.8646 132.065 100.631 131.707C99.8789 131.206 99.3883 130.665 99.1592 130.085C98.9372 129.498 98.8262 128.95 98.8262 128.441C98.8262 127.31 99.2523 126.347 100.104 125.552C100.957 124.75 102.16 124.349 103.714 124.349C105.268 124.349 106.471 124.75 107.323 125.552C108.175 126.347 108.602 127.31 108.602 128.441C108.602 128.95 108.487 129.498 108.258 130.085C108.036 130.665 107.549 131.17 106.797 131.6C107.563 132.029 108.14 132.599 108.526 133.308C108.913 134.017 109.106 134.808 109.106 135.682C109.106 136.992 108.619 138.109 107.646 139.033C106.679 139.95 105.325 140.408 103.585 140.408C101.845 140.408 100.527 139.946 99.6318 139.022ZM101.469 135.478C101.469 136.244 101.666 136.838 102.06 137.261C102.461 137.683 103.012 137.895 103.714 137.895C104.416 137.895 104.964 137.683 105.357 137.261C105.758 136.838 105.959 136.244 105.959 135.478C105.959 134.683 105.755 134.081 105.347 133.673C104.946 133.257 104.401 133.05 103.714 133.05C103.026 133.05 102.479 133.257 102.07 133.673C101.669 134.081 101.469 134.683 101.469 135.478ZM102.274 130.171C102.618 130.529 103.098 130.708 103.714 130.708C104.337 130.708 104.817 130.529 105.153 130.171C105.497 129.813 105.669 129.351 105.669 128.785C105.669 128.169 105.497 127.689 105.153 127.346C104.817 126.995 104.337 126.819 103.714 126.819C103.098 126.819 102.615 126.995 102.264 127.346C101.92 127.689 101.748 128.169 101.748 128.785C101.748 129.351 101.924 129.813 102.274 130.171ZM116.014 140.387C114.03 140.387 112.637 139.692 111.835 138.303C111.04 136.913 110.643 134.933 110.643 132.362C110.643 129.791 111.04 127.808 111.835 126.411C112.637 125.015 114.03 124.316 116.014 124.316C117.997 124.316 119.39 125.015 120.192 126.411C120.987 127.808 121.385 129.791 121.385 132.362C121.385 134.933 120.984 136.913 120.182 138.303C119.387 139.692 117.997 140.387 116.014 140.387ZM117.808 136.466C118.087 135.521 118.227 134.153 118.227 132.362C118.227 130.486 118.083 129.097 117.797 128.194C117.518 127.292 116.923 126.841 116.014 126.841C115.104 126.841 114.503 127.292 114.209 128.194C113.915 129.097 113.769 130.486 113.769 132.362C113.769 134.153 113.915 135.524 114.209 136.477C114.503 137.422 115.104 137.895 116.014 137.895C116.923 137.895 117.521 137.418 117.808 136.466ZM133.147 136.315C133.147 135.205 133.538 134.26 134.318 133.479C135.099 132.706 136.041 132.319 137.144 132.319C138.246 132.319 139.188 132.71 139.969 133.49C140.749 134.271 141.14 135.213 141.14 136.315C141.14 137.418 140.749 138.36 139.969 139.141C139.188 139.921 138.246 140.312 137.144 140.312C136.041 140.312 135.099 139.921 134.318 139.141C133.538 138.36 133.147 137.418 133.147 136.315ZM123.877 131.32C123.096 130.54 122.706 129.598 122.706 128.495C122.706 127.392 123.096 126.451 123.877 125.67C124.658 124.889 125.599 124.499 126.702 124.499C127.805 124.499 128.747 124.889 129.527 125.67C130.308 126.451 130.698 127.392 130.698 128.495C130.698 129.598 130.308 130.54 129.527 131.32C128.754 132.101 127.812 132.491 126.702 132.491C125.599 132.491 124.658 132.101 123.877 131.32ZM128.389 140.408H126.724L135.436 124.424H137.068L128.389 140.408ZM135.94 137.519C136.27 137.855 136.671 138.023 137.144 138.023C137.616 138.023 138.017 137.859 138.347 137.529C138.683 137.193 138.852 136.788 138.852 136.315C138.852 135.843 138.683 135.442 138.347 135.112C138.017 134.776 137.616 134.607 137.144 134.607C136.671 134.607 136.266 134.776 135.93 135.112C135.6 135.442 135.436 135.843 135.436 136.315C135.436 136.788 135.604 137.189 135.94 137.519ZM125.499 129.698C125.828 130.035 126.229 130.203 126.702 130.203C127.175 130.203 127.576 130.038 127.905 129.709C128.242 129.372 128.41 128.968 128.41 128.495C128.41 128.022 128.242 127.621 127.905 127.292C127.576 126.955 127.175 126.787 126.702 126.787C126.229 126.787 125.825 126.955 125.488 127.292C125.159 127.621 124.994 128.022 124.994 128.495C124.994 128.968 125.162 129.369 125.499 129.698Z" fill="white"/>
<path d="M49.6484 193.593C49.2832 193.156 48.7604 192.938 48.0801 192.938C47.1491 192.938 46.5153 193.285 46.1787 193.979C45.9854 194.381 45.8708 195.018 45.835 195.892H42.8594C42.9095 194.567 43.1494 193.496 43.5791 192.68C44.3955 191.126 45.8457 190.349 47.9297 190.349C49.5768 190.349 50.8874 190.807 51.8613 191.724C52.8353 192.633 53.3223 193.84 53.3223 195.344C53.3223 196.497 52.9785 197.521 52.291 198.416C51.8398 199.01 51.0986 199.673 50.0674 200.403L48.8428 201.273C48.0765 201.818 47.5501 202.212 47.2637 202.455C46.9844 202.699 46.748 202.981 46.5547 203.304H53.3545V206H42.6875C42.7161 204.883 42.9561 203.862 43.4072 202.938C43.8441 201.9 44.8753 200.801 46.501 199.641C47.9118 198.631 48.8249 197.908 49.2402 197.471C49.8776 196.79 50.1963 196.046 50.1963 195.236C50.1963 194.577 50.0137 194.03 49.6484 193.593ZM56.1689 205.022C55.2738 204.106 54.8262 202.992 54.8262 201.682C54.8262 200.808 55.0231 200.017 55.417 199.308C55.818 198.599 56.4017 198.065 57.168 197.707C56.416 197.206 55.9255 196.665 55.6963 196.085C55.4743 195.498 55.3633 194.95 55.3633 194.441C55.3633 193.31 55.7894 192.347 56.6416 191.552C57.4938 190.75 58.6969 190.349 60.251 190.349C61.805 190.349 63.0081 190.75 63.8604 191.552C64.7126 192.347 65.1387 193.31 65.1387 194.441C65.1387 194.95 65.0241 195.498 64.7949 196.085C64.5729 196.665 64.0859 197.17 63.334 197.6C64.1003 198.029 64.6768 198.599 65.0635 199.308C65.4502 200.017 65.6436 200.808 65.6436 201.682C65.6436 202.992 65.1566 204.109 64.1826 205.033C63.2158 205.95 61.8623 206.408 60.1221 206.408C58.3818 206.408 57.0641 205.946 56.1689 205.022ZM58.0059 201.478C58.0059 202.244 58.2028 202.838 58.5967 203.261C58.9977 203.683 59.5492 203.895 60.251 203.895C60.9528 203.895 61.5007 203.683 61.8945 203.261C62.2956 202.838 62.4961 202.244 62.4961 201.478C62.4961 200.683 62.292 200.081 61.8838 199.673C61.4827 199.257 60.9385 199.05 60.251 199.05C59.5635 199.05 59.0156 199.257 58.6074 199.673C58.2064 200.081 58.0059 200.683 58.0059 201.478ZM58.8115 196.171C59.1553 196.529 59.6351 196.708 60.251 196.708C60.874 196.708 61.3538 196.529 61.6904 196.171C62.0342 195.813 62.2061 195.351 62.2061 194.785C62.2061 194.169 62.0342 193.689 61.6904 193.346C61.3538 192.995 60.874 192.819 60.251 192.819C59.6351 192.819 59.1517 192.995 58.8008 193.346C58.457 193.689 58.2852 194.169 58.2852 194.785C58.2852 195.351 58.4606 195.813 58.8115 196.171ZM81.1123 206H74.291V190.166H81.1123C82.0934 190.18 82.9098 190.295 83.5615 190.51C84.6715 190.875 85.5703 191.545 86.2578 192.519C86.8092 193.306 87.1852 194.159 87.3857 195.075C87.5863 195.992 87.6865 196.866 87.6865 197.696C87.6865 199.802 87.264 201.585 86.4189 203.046C85.2731 205.015 83.5042 206 81.1123 206ZM83.5723 194.205C83.0638 193.346 82.0576 192.916 80.5537 192.916H77.5029V203.25H80.5537C82.1149 203.25 83.2035 202.48 83.8193 200.94C84.1559 200.095 84.3242 199.089 84.3242 197.922C84.3242 196.311 84.0736 195.072 83.5723 194.205ZM90.3828 195.559C91.1921 194.527 92.5814 194.012 94.5508 194.012C95.8327 194.012 96.9714 194.266 97.9668 194.774C98.9622 195.283 99.46 196.243 99.46 197.653V203.024C99.46 203.397 99.4671 203.848 99.4814 204.378C99.5029 204.779 99.5638 205.051 99.6641 205.194C99.7643 205.338 99.9147 205.456 100.115 205.549V206H96.7852C96.6921 205.764 96.6276 205.542 96.5918 205.334C96.556 205.126 96.5273 204.89 96.5059 204.625C96.0833 205.083 95.5964 205.474 95.0449 205.796C94.3861 206.175 93.6413 206.365 92.8105 206.365C91.7507 206.365 90.8734 206.064 90.1787 205.463C89.4912 204.854 89.1475 203.995 89.1475 202.885C89.1475 201.445 89.7025 200.403 90.8125 199.759C91.4212 199.408 92.3164 199.157 93.498 199.007L94.54 198.878C95.1058 198.806 95.5104 198.717 95.7539 198.609C96.1908 198.423 96.4092 198.133 96.4092 197.739C96.4092 197.259 96.2409 196.93 95.9043 196.751C95.5749 196.565 95.0879 196.472 94.4434 196.472C93.7201 196.472 93.208 196.651 92.9072 197.009C92.6924 197.274 92.5492 197.632 92.4775 198.083H89.5234C89.5879 197.059 89.8743 196.217 90.3828 195.559ZM92.6602 203.787C92.9466 204.023 93.2975 204.142 93.7129 204.142C94.3717 204.142 94.9769 203.948 95.5283 203.562C96.0869 203.175 96.377 202.469 96.3984 201.445V200.307C96.2051 200.428 96.0081 200.529 95.8076 200.607C95.6143 200.679 95.3457 200.747 95.002 200.812L94.3145 200.94C93.6699 201.055 93.208 201.195 92.9287 201.359C92.4561 201.639 92.2197 202.072 92.2197 202.659C92.2197 203.182 92.3665 203.558 92.6602 203.787ZM106.947 202.928L109.364 194.291H112.619L108.602 205.807C107.828 208.027 107.216 209.402 106.765 209.932C106.313 210.469 105.411 210.737 104.058 210.737C103.785 210.737 103.567 210.734 103.402 210.727C103.238 210.727 102.991 210.716 102.661 210.694V208.245L103.048 208.267C103.349 208.281 103.635 208.27 103.907 208.234C104.179 208.199 104.409 208.116 104.595 207.987C104.774 207.866 104.938 207.611 105.089 207.225C105.246 206.838 105.311 206.602 105.282 206.516L100.985 194.291H104.391L106.947 202.928ZM122.502 194.828C123.419 195.415 123.945 196.425 124.081 197.857H121.02C120.977 197.464 120.866 197.152 120.687 196.923C120.35 196.507 119.777 196.3 118.968 196.3C118.302 196.3 117.826 196.404 117.539 196.611C117.26 196.819 117.12 197.062 117.12 197.342C117.12 197.693 117.271 197.947 117.571 198.104C117.872 198.269 118.936 198.552 120.762 198.953C121.979 199.24 122.892 199.673 123.501 200.253C124.103 200.84 124.403 201.574 124.403 202.455C124.403 203.615 123.97 204.564 123.104 205.302C122.244 206.032 120.912 206.397 119.107 206.397C117.267 206.397 115.906 206.011 115.025 205.237C114.152 204.457 113.715 203.465 113.715 202.262H116.819C116.884 202.806 117.023 203.193 117.238 203.422C117.618 203.83 118.32 204.034 119.344 204.034C119.945 204.034 120.422 203.945 120.772 203.766C121.131 203.587 121.31 203.318 121.31 202.96C121.31 202.616 121.166 202.355 120.88 202.176C120.593 201.997 119.53 201.689 117.689 201.252C116.365 200.923 115.43 200.511 114.886 200.017C114.341 199.53 114.069 198.828 114.069 197.911C114.069 196.83 114.492 195.902 115.337 195.129C116.189 194.348 117.385 193.958 118.925 193.958C120.386 193.958 121.578 194.248 122.502 194.828Z" fill="white"/>
<path d="M201.865 132.266C201.493 132.266 201.171 132.312 200.898 132.405C200.419 132.577 200.057 132.896 199.813 133.361L197.063 133.232L198.159 124.628H206.742V127.228H200.372L199.813 130.633C200.286 130.325 200.655 130.121 200.92 130.021C201.364 129.856 201.905 129.773 202.542 129.773C203.831 129.773 204.955 130.207 205.915 131.073C206.875 131.94 207.354 133.2 207.354 134.854C207.354 136.294 206.893 137.579 205.969 138.711C205.045 139.842 203.663 140.408 201.822 140.408C200.34 140.408 199.122 140.011 198.17 139.216C197.217 138.421 196.688 137.293 196.58 135.832H199.631C199.753 136.498 199.985 137.014 200.329 137.379C200.673 137.737 201.174 137.916 201.833 137.916C202.592 137.916 203.169 137.651 203.562 137.121C203.964 136.584 204.164 135.911 204.164 135.102C204.164 134.307 203.978 133.637 203.605 133.093C203.233 132.541 202.653 132.266 201.865 132.266ZM212.629 141.096C212.5 141.626 212.26 142.084 211.909 142.471C211.53 142.886 211.082 143.198 210.566 143.405C210.058 143.62 209.707 143.728 209.514 143.728V142.546C210.13 142.374 210.581 142.088 210.867 141.687C211.161 141.285 211.329 140.723 211.372 140H209.514V136.799H212.822V139.57C212.822 140.057 212.758 140.566 212.629 141.096ZM218.58 127.528C218.236 127.987 218.072 128.599 218.086 129.365H215.229C215.257 128.592 215.39 127.858 215.626 127.163C215.877 126.554 216.271 125.992 216.808 125.477C217.209 125.111 217.685 124.832 218.236 124.639C218.788 124.445 219.465 124.349 220.267 124.349C221.756 124.349 222.956 124.735 223.865 125.509C224.782 126.275 225.24 127.306 225.24 128.603C225.24 129.519 224.968 130.293 224.424 130.923C224.08 131.317 223.722 131.585 223.35 131.729C223.629 131.729 224.03 131.968 224.553 132.448C225.333 133.172 225.724 134.16 225.724 135.413C225.724 136.731 225.265 137.891 224.349 138.894C223.439 139.889 222.089 140.387 220.299 140.387C218.093 140.387 216.561 139.667 215.701 138.228C215.25 137.461 214.999 136.459 214.949 135.22H217.957C217.957 135.843 218.057 136.358 218.258 136.767C218.63 137.519 219.307 137.895 220.288 137.895C220.89 137.895 221.412 137.69 221.856 137.282C222.308 136.867 222.533 136.272 222.533 135.499C222.533 134.475 222.118 133.791 221.287 133.447C220.814 133.254 220.07 133.157 219.053 133.157V130.966C220.048 130.951 220.743 130.855 221.137 130.676C221.817 130.375 222.157 129.766 222.157 128.85C222.157 128.255 221.982 127.772 221.631 127.399C221.287 127.027 220.8 126.841 220.17 126.841C219.447 126.841 218.917 127.07 218.58 127.528ZM238.12 134.253V136.648H236.358V140H233.361V136.648H227.195V133.974L232.921 124.521H236.358V134.253H238.12ZM229.462 134.253H233.361V127.528L229.462 134.253ZM248.551 129.43C247.734 130.59 247.05 131.786 246.499 133.018C246.062 133.984 245.668 135.166 245.317 136.562C244.966 137.959 244.791 139.105 244.791 140H241.611C241.704 137.207 242.621 134.303 244.361 131.288C245.486 129.419 246.427 128.116 247.187 127.378H239.42L239.463 124.628H250.463V127.023C250.005 127.475 249.367 128.277 248.551 129.43ZM255.49 141.096C255.361 141.626 255.121 142.084 254.771 142.471C254.391 142.886 253.943 143.198 253.428 143.405C252.919 143.62 252.568 143.728 252.375 143.728V142.546C252.991 142.374 253.442 142.088 253.729 141.687C254.022 141.285 254.19 140.723 254.233 140H252.375V136.799H255.684V139.57C255.684 140.057 255.619 140.566 255.49 141.096ZM264.879 127.593C264.514 127.156 263.991 126.938 263.311 126.938C262.38 126.938 261.746 127.285 261.409 127.979C261.216 128.381 261.101 129.018 261.065 129.892H258.09C258.14 128.567 258.38 127.496 258.81 126.68C259.626 125.126 261.076 124.349 263.16 124.349C264.807 124.349 266.118 124.807 267.092 125.724C268.066 126.633 268.553 127.84 268.553 129.344C268.553 130.497 268.209 131.521 267.521 132.416C267.07 133.01 266.329 133.673 265.298 134.403L264.073 135.273C263.307 135.818 262.781 136.212 262.494 136.455C262.215 136.699 261.979 136.981 261.785 137.304H268.585V140H257.918C257.947 138.883 258.187 137.862 258.638 136.938C259.075 135.9 260.106 134.801 261.731 133.641C263.142 132.631 264.055 131.908 264.471 131.471C265.108 130.79 265.427 130.046 265.427 129.236C265.427 128.577 265.244 128.03 264.879 127.593ZM277.802 140H274.665V129.258H271.002V127.174C271.969 127.131 272.646 127.066 273.032 126.98C273.648 126.844 274.149 126.572 274.536 126.164C274.801 125.885 275.002 125.512 275.138 125.047C275.216 124.768 275.256 124.56 275.256 124.424H277.802V140ZM285.934 127.528C285.59 127.987 285.425 128.599 285.439 129.365H282.582C282.611 128.592 282.743 127.858 282.979 127.163C283.23 126.554 283.624 125.992 284.161 125.477C284.562 125.111 285.038 124.832 285.59 124.639C286.141 124.445 286.818 124.349 287.62 124.349C289.11 124.349 290.309 124.735 291.219 125.509C292.135 126.275 292.594 127.306 292.594 128.603C292.594 129.519 292.322 130.293 291.777 130.923C291.434 131.317 291.076 131.585 290.703 131.729C290.982 131.729 291.383 131.968 291.906 132.448C292.687 133.172 293.077 134.16 293.077 135.413C293.077 136.731 292.619 137.891 291.702 138.894C290.793 139.889 289.443 140.387 287.652 140.387C285.447 140.387 283.914 139.667 283.055 138.228C282.604 137.461 282.353 136.459 282.303 135.22H285.311C285.311 135.843 285.411 136.358 285.611 136.767C285.984 137.519 286.66 137.895 287.642 137.895C288.243 137.895 288.766 137.69 289.21 137.282C289.661 136.867 289.887 136.272 289.887 135.499C289.887 134.475 289.471 133.791 288.641 133.447C288.168 133.254 287.423 133.157 286.406 133.157V130.966C287.402 130.951 288.096 130.855 288.49 130.676C289.171 130.375 289.511 129.766 289.511 128.85C289.511 128.255 289.335 127.772 288.984 127.399C288.641 127.027 288.154 126.841 287.523 126.841C286.8 126.841 286.27 127.07 285.934 127.528Z" fill="white"/>
<path d="M265.689 195.43C264.873 196.59 264.189 197.786 263.638 199.018C263.201 199.984 262.807 201.166 262.456 202.562C262.105 203.959 261.93 205.105 261.93 206H258.75C258.843 203.207 259.76 200.303 261.5 197.288C262.624 195.419 263.566 194.116 264.325 193.378H256.559L256.602 190.628H267.602V193.023C267.143 193.475 266.506 194.277 265.689 195.43ZM269.621 202.799H272.876V206H269.621V202.799ZM280.428 206.387C278.444 206.387 277.051 205.692 276.249 204.303C275.454 202.913 275.057 200.933 275.057 198.362C275.057 195.791 275.454 193.808 276.249 192.411C277.051 191.015 278.444 190.316 280.428 190.316C282.411 190.316 283.804 191.015 284.606 192.411C285.401 193.808 285.799 195.791 285.799 198.362C285.799 200.933 285.398 202.913 284.596 204.303C283.801 205.692 282.411 206.387 280.428 206.387ZM282.222 202.466C282.501 201.521 282.641 200.153 282.641 198.362C282.641 196.486 282.497 195.097 282.211 194.194C281.932 193.292 281.337 192.841 280.428 192.841C279.518 192.841 278.917 193.292 278.623 194.194C278.329 195.097 278.183 196.486 278.183 198.362C278.183 200.153 278.329 201.524 278.623 202.477C278.917 203.422 279.518 203.895 280.428 203.895C281.337 203.895 281.935 203.418 282.222 202.466ZM292.674 206.387C290.69 206.387 289.297 205.692 288.495 204.303C287.7 202.913 287.303 200.933 287.303 198.362C287.303 195.791 287.7 193.808 288.495 192.411C289.297 191.015 290.69 190.316 292.674 190.316C294.658 190.316 296.05 191.015 296.853 192.411C297.647 193.808 298.045 195.791 298.045 198.362C298.045 200.933 297.644 202.913 296.842 204.303C296.047 205.692 294.658 206.387 292.674 206.387ZM294.468 202.466C294.747 201.521 294.887 200.153 294.887 198.362C294.887 196.486 294.743 195.097 294.457 194.194C294.178 193.292 293.583 192.841 292.674 192.841C291.764 192.841 291.163 193.292 290.869 194.194C290.576 195.097 290.429 196.486 290.429 198.362C290.429 200.153 290.576 201.524 290.869 202.477C291.163 203.422 291.764 203.895 292.674 203.895C293.583 203.895 294.181 203.418 294.468 202.466ZM309.808 202.315C309.808 201.205 310.198 200.26 310.979 199.479C311.759 198.706 312.701 198.319 313.804 198.319C314.907 198.319 315.848 198.71 316.629 199.49C317.41 200.271 317.8 201.213 317.8 202.315C317.8 203.418 317.41 204.36 316.629 205.141C315.848 205.921 314.907 206.312 313.804 206.312C312.701 206.312 311.759 205.921 310.979 205.141C310.198 204.36 309.808 203.418 309.808 202.315ZM300.537 197.32C299.757 196.54 299.366 195.598 299.366 194.495C299.366 193.392 299.757 192.451 300.537 191.67C301.318 190.889 302.259 190.499 303.362 190.499C304.465 190.499 305.407 190.889 306.188 191.67C306.968 192.451 307.358 193.392 307.358 194.495C307.358 195.598 306.968 196.54 306.188 197.32C305.414 198.101 304.472 198.491 303.362 198.491C302.259 198.491 301.318 198.101 300.537 197.32ZM305.049 206.408H303.384L312.096 190.424H313.729L305.049 206.408ZM312.601 203.519C312.93 203.855 313.331 204.023 313.804 204.023C314.276 204.023 314.677 203.859 315.007 203.529C315.343 203.193 315.512 202.788 315.512 202.315C315.512 201.843 315.343 201.442 315.007 201.112C314.677 200.776 314.276 200.607 313.804 200.607C313.331 200.607 312.926 200.776 312.59 201.112C312.26 201.442 312.096 201.843 312.096 202.315C312.096 202.788 312.264 203.189 312.601 203.519ZM302.159 195.698C302.489 196.035 302.89 196.203 303.362 196.203C303.835 196.203 304.236 196.038 304.565 195.709C304.902 195.372 305.07 194.968 305.07 194.495C305.07 194.022 304.902 193.621 304.565 193.292C304.236 192.955 303.835 192.787 303.362 192.787C302.89 192.787 302.485 192.955 302.148 193.292C301.819 193.621 301.654 194.022 301.654 194.495C301.654 194.968 301.823 195.369 302.159 195.698Z" fill="white"/>
<g clip-path="url(#clip0_73_195)">
<path d="M309 122C313.97 122 318 126.03 318 131C318 135.97 313.97 140 309 140C304.03 140 300 135.971 300 131C300 126.029 304.029 122 309 122Z" fill="#53AE94"/>
<path d="M310.111 129.801V128.462H313.172V126.422H304.836V128.462H307.898V129.8C305.409 129.914 303.538 130.407 303.538 130.997C303.538 131.588 305.41 132.081 307.898 132.196V136.484H310.112V132.195C312.596 132.081 314.463 131.588 314.463 130.998C314.463 130.408 312.596 129.916 310.112 129.801M310.112 131.832V131.831C310.049 131.835 309.728 131.854 309.014 131.854C308.442 131.854 308.04 131.838 307.899 131.831V131.832C305.7 131.735 304.059 131.352 304.059 130.894C304.059 130.436 305.7 130.054 307.899 129.956V131.451C308.043 131.461 308.454 131.485 309.023 131.485C309.706 131.485 310.049 131.457 310.112 131.451V129.956C312.306 130.054 313.943 130.437 313.943 130.893C313.943 131.35 312.305 131.733 310.112 131.831" fill="white"/>
</g>
<path d="M42.27 113L47.364 100.04H48.75L53.718 113H52.458L50.964 108.932H45.06L43.53 113H42.27ZM45.474 107.888H50.55L48.012 101.084L45.474 107.888ZM55.4099 113V100.04H60.1439C60.9839 100.04 61.6739 100.136 62.2139 100.328C62.7659 100.52 63.1979 100.784 63.5099 101.12C63.8339 101.456 64.0559 101.846 64.1759 102.29C64.3079 102.722 64.3739 103.178 64.3739 103.658C64.3739 104.378 64.2239 104.972 63.9239 105.44C63.6359 105.908 63.2579 106.28 62.7899 106.556C62.3219 106.82 61.7879 107.006 61.1879 107.114C60.5999 107.222 60.0059 107.276 59.4059 107.276H56.6339V113H55.4099ZM59.4419 106.232C60.0179 106.232 60.5339 106.196 60.9899 106.124C61.4459 106.052 61.8299 105.92 62.1419 105.728C62.4659 105.524 62.7119 105.254 62.8799 104.918C63.0599 104.57 63.1499 104.12 63.1499 103.568C63.1499 102.752 62.8799 102.134 62.3399 101.714C61.8119 101.294 60.9659 101.084 59.8019 101.084H56.6339V106.232H59.4419ZM70.4458 106.286L74.3518 100.04H75.7738L71.0758 107.348V113H69.8518V107.438L65.2258 100.04H66.6298L70.4458 106.286Z" fill="#DFF26A"/>
<path d="M44.458 179V166.04H45.682V177.956H52.63V179H44.458ZM53.956 172.538C53.956 171.59 54.082 170.702 54.334 169.874C54.598 169.046 54.982 168.326 55.486 167.714C55.99 167.09 56.614 166.598 57.358 166.238C58.102 165.878 58.96 165.698 59.932 165.698C60.94 165.698 61.822 165.878 62.578 166.238C63.346 166.586 63.982 167.072 64.486 167.696C65.002 168.308 65.386 169.034 65.638 169.874C65.902 170.702 66.034 171.59 66.034 172.538C66.034 173.474 65.902 174.356 65.638 175.184C65.386 176 65.008 176.72 64.504 177.344C64 177.956 63.37 178.442 62.614 178.802C61.858 179.162 60.982 179.342 59.986 179.342C58.99 179.342 58.114 179.162 57.358 178.802C56.602 178.442 55.972 177.956 55.468 177.344C54.964 176.72 54.586 176 54.334 175.184C54.082 174.356 53.956 173.474 53.956 172.538ZM60.004 178.298C60.844 178.298 61.564 178.142 62.164 177.83C62.776 177.506 63.274 177.08 63.658 176.552C64.054 176.024 64.342 175.412 64.522 174.716C64.714 174.02 64.81 173.294 64.81 172.538C64.81 171.638 64.696 170.834 64.468 170.126C64.252 169.406 63.934 168.794 63.514 168.29C63.094 167.786 62.584 167.402 61.984 167.138C61.384 166.874 60.712 166.742 59.968 166.742C59.14 166.742 58.42 166.904 57.808 167.228C57.208 167.552 56.71 167.984 56.314 168.524C55.93 169.052 55.642 169.664 55.45 170.36C55.27 171.056 55.18 171.782 55.18 172.538C55.18 173.306 55.27 174.038 55.45 174.734C55.642 175.43 55.93 176.042 56.314 176.57C56.71 177.098 57.208 177.518 57.808 177.83C58.42 178.142 59.152 178.298 60.004 178.298ZM77.6677 169.802C77.4157 168.698 76.9477 167.912 76.2637 167.444C75.5797 166.976 74.6857 166.742 73.5817 166.742C72.8017 166.742 72.1297 166.898 71.5657 167.21C71.0017 167.522 70.5337 167.942 70.1617 168.47C69.8017 168.998 69.5317 169.61 69.3517 170.306C69.1837 170.99 69.0997 171.716 69.0997 172.484C69.0997 173.204 69.1717 173.912 69.3157 174.608C69.4717 175.304 69.7237 175.928 70.0717 176.48C70.4197 177.02 70.8877 177.458 71.4757 177.794C72.0637 178.13 72.8017 178.298 73.6897 178.298C74.2417 178.298 74.7457 178.208 75.2017 178.028C75.6577 177.848 76.0537 177.602 76.3897 177.29C76.7377 176.966 77.0257 176.588 77.2537 176.156C77.4937 175.724 77.6737 175.25 77.7937 174.734H79.0717C78.9277 175.358 78.7177 175.952 78.4417 176.516C78.1657 177.068 77.7997 177.554 77.3437 177.974C76.8997 178.394 76.3537 178.73 75.7057 178.982C75.0697 179.222 74.3197 179.342 73.4557 179.342C72.4597 179.342 71.6077 179.162 70.8997 178.802C70.1917 178.43 69.6097 177.932 69.1537 177.308C68.7097 176.684 68.3857 175.964 68.1817 175.148C67.9777 174.32 67.8757 173.444 67.8757 172.52C67.8757 171.284 68.0257 170.234 68.3257 169.37C68.6377 168.506 69.0637 167.804 69.6037 167.264C70.1437 166.712 70.7797 166.316 71.5117 166.076C72.2437 165.824 73.0417 165.698 73.9057 165.698C74.5657 165.698 75.1777 165.788 75.7417 165.968C76.3177 166.136 76.8217 166.394 77.2537 166.742C77.6977 167.09 78.0577 167.522 78.3337 168.038C78.6217 168.542 78.8197 169.13 78.9277 169.802H77.6677ZM81.532 179V166.04H82.756V172.754L89.398 166.04H90.784L85.672 171.206L91.684 179H90.19L84.79 171.962L82.756 173.996V179H81.532ZM98.4216 179V166.04H103.156C103.996 166.04 104.686 166.136 105.226 166.328C105.778 166.52 106.21 166.784 106.522 167.12C106.846 167.456 107.068 167.846 107.188 168.29C107.32 168.722 107.386 169.178 107.386 169.658C107.386 170.378 107.236 170.972 106.936 171.44C106.648 171.908 106.27 172.28 105.802 172.556C105.334 172.82 104.8 173.006 104.2 173.114C103.612 173.222 103.018 173.276 102.418 173.276H99.6456V179H98.4216ZM102.454 172.232C103.03 172.232 103.546 172.196 104.002 172.124C104.458 172.052 104.842 171.92 105.154 171.728C105.478 171.524 105.724 171.254 105.892 170.918C106.072 170.57 106.162 170.12 106.162 169.568C106.162 168.752 105.892 168.134 105.352 167.714C104.824 167.294 103.978 167.084 102.814 167.084H99.6456V172.232H102.454ZM109.479 179V166.04H118.101V167.084H110.703V171.764H117.381V172.808H110.703V177.956H118.281V179H109.479ZM125.505 172.07C125.961 172.07 126.381 172.022 126.765 171.926C127.161 171.83 127.503 171.68 127.791 171.476C128.079 171.26 128.307 170.99 128.475 170.666C128.643 170.342 128.727 169.952 128.727 169.496C128.727 169.016 128.637 168.62 128.457 168.308C128.289 167.996 128.055 167.75 127.755 167.57C127.467 167.39 127.131 167.264 126.747 167.192C126.375 167.12 125.985 167.084 125.577 167.084H121.689V172.07H125.505ZM121.689 173.114V179H120.465V166.04H125.541C126.969 166.04 128.061 166.31 128.817 166.85C129.573 167.378 129.951 168.242 129.951 169.442C129.951 170.258 129.783 170.906 129.447 171.386C129.123 171.866 128.589 172.274 127.845 172.61C128.229 172.742 128.529 172.934 128.745 173.186C128.961 173.438 129.123 173.726 129.231 174.05C129.339 174.374 129.405 174.716 129.429 175.076C129.465 175.436 129.489 175.784 129.501 176.12C129.513 176.612 129.531 177.02 129.555 177.344C129.591 177.668 129.627 177.932 129.663 178.136C129.711 178.34 129.765 178.502 129.825 178.622C129.885 178.73 129.957 178.814 130.041 178.874V179H128.691C128.559 178.784 128.463 178.484 128.403 178.1C128.355 177.716 128.313 177.314 128.277 176.894C128.253 176.474 128.229 176.066 128.205 175.67C128.193 175.274 128.163 174.95 128.115 174.698C128.043 174.35 127.923 174.074 127.755 173.87C127.599 173.654 127.407 173.492 127.179 173.384C126.951 173.276 126.693 173.204 126.405 173.168C126.129 173.132 125.841 173.114 125.541 173.114H121.689ZM132.921 179V166.04H134.145V179H132.921ZM136.995 172.538C136.995 171.59 137.121 170.702 137.373 169.874C137.637 169.046 138.021 168.326 138.525 167.714C139.029 167.09 139.653 166.598 140.397 166.238C141.141 165.878 141.999 165.698 142.971 165.698C143.979 165.698 144.861 165.878 145.617 166.238C146.385 166.586 147.021 167.072 147.525 167.696C148.041 168.308 148.425 169.034 148.677 169.874C148.941 170.702 149.073 171.59 149.073 172.538C149.073 173.474 148.941 174.356 148.677 175.184C148.425 176 148.047 176.72 147.543 177.344C147.039 177.956 146.409 178.442 145.653 178.802C144.897 179.162 144.021 179.342 143.025 179.342C142.029 179.342 141.153 179.162 140.397 178.802C139.641 178.442 139.011 177.956 138.507 177.344C138.003 176.72 137.625 176 137.373 175.184C137.121 174.356 136.995 173.474 136.995 172.538ZM143.043 178.298C143.883 178.298 144.603 178.142 145.203 177.83C145.815 177.506 146.313 177.08 146.697 176.552C147.093 176.024 147.381 175.412 147.561 174.716C147.753 174.02 147.849 173.294 147.849 172.538C147.849 171.638 147.735 170.834 147.507 170.126C147.291 169.406 146.973 168.794 146.553 168.29C146.133 167.786 145.623 167.402 145.023 167.138C144.423 166.874 143.751 166.742 143.007 166.742C142.179 166.742 141.459 166.904 140.847 167.228C140.247 167.552 139.749 167.984 139.353 168.524C138.969 169.052 138.681 169.664 138.489 170.36C138.309 171.056 138.219 171.782 138.219 172.538C138.219 173.306 138.309 174.038 138.489 174.734C138.681 175.43 138.969 176.042 139.353 176.57C139.749 177.098 140.247 177.518 140.847 177.83C141.459 178.142 142.191 178.298 143.043 178.298ZM151.509 179V166.04H155.937C156.297 166.04 156.651 166.052 156.999 166.076C157.347 166.088 157.689 166.13 158.025 166.202C158.361 166.262 158.685 166.358 158.997 166.49C159.321 166.622 159.633 166.796 159.933 167.012C160.365 167.324 160.719 167.708 160.995 168.164C161.271 168.608 161.487 169.082 161.643 169.586C161.811 170.078 161.925 170.582 161.985 171.098C162.057 171.602 162.093 172.07 162.093 172.502C162.093 172.934 162.063 173.372 162.003 173.816C161.955 174.26 161.871 174.698 161.751 175.13C161.631 175.55 161.469 175.958 161.265 176.354C161.073 176.738 160.827 177.092 160.527 177.416C160.227 177.752 159.897 178.022 159.537 178.226C159.189 178.43 158.817 178.592 158.421 178.712C158.037 178.82 157.635 178.898 157.215 178.946C156.795 178.982 156.369 179 155.937 179H151.509ZM152.733 177.956H155.667C156.219 177.956 156.735 177.926 157.215 177.866C157.707 177.794 158.205 177.626 158.709 177.362C159.141 177.146 159.495 176.852 159.771 176.48C160.047 176.108 160.263 175.706 160.419 175.274C160.587 174.83 160.701 174.368 160.761 173.888C160.833 173.408 160.869 172.946 160.869 172.502C160.869 172.034 160.839 171.56 160.779 171.08C160.719 170.588 160.605 170.126 160.437 169.694C160.269 169.25 160.041 168.848 159.753 168.488C159.465 168.116 159.093 167.81 158.637 167.57C158.253 167.366 157.797 167.234 157.269 167.174C156.741 167.114 156.207 167.084 155.667 167.084H152.733V177.956Z" fill="#DFF26A"/>
<path d="M286.288 99.04H295.72V100.084H291.616V112H290.392V100.084H286.288V99.04ZM296.326 99.04H297.604L301.51 110.56L305.398 99.04H306.676L302.176 112H300.826L296.326 99.04ZM308.464 112V99.04H309.688V110.956H316.636V112H308.464Z" fill="#DFF26A"/>
<path d="M212.656 168.802C212.404 167.698 211.936 166.912 211.252 166.444C210.568 165.976 209.674 165.742 208.57 165.742C207.79 165.742 207.118 165.898 206.554 166.21C205.99 166.522 205.522 166.942 205.15 167.47C204.79 167.998 204.52 168.61 204.34 169.306C204.172 169.99 204.088 170.716 204.088 171.484C204.088 172.204 204.16 172.912 204.304 173.608C204.46 174.304 204.712 174.928 205.06 175.48C205.408 176.02 205.876 176.458 206.464 176.794C207.052 177.13 207.79 177.298 208.678 177.298C209.23 177.298 209.734 177.208 210.19 177.028C210.646 176.848 211.042 176.602 211.378 176.29C211.726 175.966 212.014 175.588 212.242 175.156C212.482 174.724 212.662 174.25 212.782 173.734H214.06C213.916 174.358 213.706 174.952 213.43 175.516C213.154 176.068 212.788 176.554 212.332 176.974C211.888 177.394 211.342 177.73 210.694 177.982C210.058 178.222 209.308 178.342 208.444 178.342C207.448 178.342 206.596 178.162 205.888 177.802C205.18 177.43 204.598 176.932 204.142 176.308C203.698 175.684 203.374 174.964 203.17 174.148C202.966 173.32 202.864 172.444 202.864 171.52C202.864 170.284 203.014 169.234 203.314 168.37C203.626 167.506 204.052 166.804 204.592 166.264C205.132 165.712 205.768 165.316 206.5 165.076C207.232 164.824 208.03 164.698 208.894 164.698C209.554 164.698 210.166 164.788 210.73 164.968C211.306 165.136 211.81 165.394 212.242 165.742C212.686 166.09 213.046 166.522 213.322 167.038C213.61 167.542 213.808 168.13 213.916 168.802H212.656ZM215.944 171.538C215.944 170.59 216.07 169.702 216.322 168.874C216.586 168.046 216.97 167.326 217.474 166.714C217.978 166.09 218.602 165.598 219.346 165.238C220.09 164.878 220.948 164.698 221.92 164.698C222.928 164.698 223.81 164.878 224.566 165.238C225.334 165.586 225.97 166.072 226.474 166.696C226.99 167.308 227.374 168.034 227.626 168.874C227.89 169.702 228.022 170.59 228.022 171.538C228.022 172.474 227.89 173.356 227.626 174.184C227.374 175 226.996 175.72 226.492 176.344C225.988 176.956 225.358 177.442 224.602 177.802C223.846 178.162 222.97 178.342 221.974 178.342C220.978 178.342 220.102 178.162 219.346 177.802C218.59 177.442 217.96 176.956 217.456 176.344C216.952 175.72 216.574 175 216.322 174.184C216.07 173.356 215.944 172.474 215.944 171.538ZM221.992 177.298C222.832 177.298 223.552 177.142 224.152 176.83C224.764 176.506 225.262 176.08 225.646 175.552C226.042 175.024 226.33 174.412 226.51 173.716C226.702 173.02 226.798 172.294 226.798 171.538C226.798 170.638 226.684 169.834 226.456 169.126C226.24 168.406 225.922 167.794 225.502 167.29C225.082 166.786 224.572 166.402 223.972 166.138C223.372 165.874 222.7 165.742 221.956 165.742C221.128 165.742 220.408 165.904 219.796 166.228C219.196 166.552 218.698 166.984 218.302 167.524C217.918 168.052 217.63 168.664 217.438 169.36C217.258 170.056 217.168 170.782 217.168 171.538C217.168 172.306 217.258 173.038 217.438 173.734C217.63 174.43 217.918 175.042 218.302 175.57C218.698 176.098 219.196 176.518 219.796 176.83C220.408 177.142 221.14 177.298 221.992 177.298ZM230.404 178V165.04H232.276L236.524 176.47H236.56L240.736 165.04H242.59V178H241.366V166.444H241.33L237.082 178H235.93L231.664 166.444H231.628V178H230.404ZM245.398 178V165.04H247.27L251.518 176.47H251.554L255.73 165.04H257.584V178H256.36V166.444H256.324L252.076 178H250.924L246.658 166.444H246.622V178H245.398ZM260.878 178V165.04H262.102V178H260.878ZM265.96 174.13C266.008 174.706 266.134 175.198 266.338 175.606C266.554 176.002 266.824 176.326 267.148 176.578C267.484 176.83 267.868 177.016 268.3 177.136C268.732 177.244 269.194 177.298 269.686 177.298C270.262 177.298 270.76 177.226 271.18 177.082C271.6 176.938 271.942 176.746 272.206 176.506C272.47 176.254 272.662 175.966 272.782 175.642C272.914 175.318 272.98 174.976 272.98 174.616C272.98 174.112 272.866 173.704 272.638 173.392C272.41 173.08 272.11 172.828 271.738 172.636C271.378 172.432 270.958 172.27 270.478 172.15C270.01 172.03 269.524 171.916 269.02 171.808C268.528 171.688 268.042 171.55 267.562 171.394C267.094 171.238 266.674 171.028 266.302 170.764C265.942 170.5 265.648 170.164 265.42 169.756C265.192 169.336 265.078 168.808 265.078 168.172C265.078 167.728 265.168 167.296 265.348 166.876C265.54 166.456 265.816 166.084 266.176 165.76C266.548 165.436 267.01 165.178 267.562 164.986C268.114 164.794 268.75 164.698 269.47 164.698C270.202 164.698 270.838 164.8 271.378 165.004C271.93 165.208 272.386 165.49 272.746 165.85C273.106 166.198 273.376 166.606 273.556 167.074C273.736 167.542 273.826 168.04 273.826 168.568H272.656C272.656 168.076 272.566 167.65 272.386 167.29C272.218 166.93 271.984 166.636 271.684 166.408C271.384 166.18 271.042 166.012 270.658 165.904C270.274 165.796 269.878 165.742 269.47 165.742C268.846 165.742 268.318 165.832 267.886 166.012C267.466 166.18 267.13 166.402 266.878 166.678C266.626 166.954 266.452 167.26 266.356 167.596C266.26 167.932 266.242 168.268 266.302 168.604C266.374 169.024 266.542 169.36 266.806 169.612C267.07 169.864 267.394 170.074 267.778 170.242C268.162 170.398 268.582 170.53 269.038 170.638C269.506 170.734 269.98 170.842 270.46 170.962C270.94 171.07 271.402 171.202 271.846 171.358C272.302 171.514 272.704 171.724 273.052 171.988C273.4 172.252 273.676 172.594 273.88 173.014C274.096 173.422 274.204 173.938 274.204 174.562C274.204 175.762 273.79 176.692 272.962 177.352C272.134 178.012 270.97 178.342 269.47 178.342C268.798 178.342 268.174 178.252 267.598 178.072C267.022 177.904 266.524 177.646 266.104 177.298C265.684 176.938 265.354 176.5 265.114 175.984C264.886 175.456 264.772 174.838 264.772 174.13H265.96ZM276.964 174.13C277.012 174.706 277.138 175.198 277.342 175.606C277.558 176.002 277.828 176.326 278.152 176.578C278.488 176.83 278.872 177.016 279.304 177.136C279.736 177.244 280.198 177.298 280.69 177.298C281.266 177.298 281.764 177.226 282.184 177.082C282.604 176.938 282.946 176.746 283.21 176.506C283.474 176.254 283.666 175.966 283.786 175.642C283.918 175.318 283.984 174.976 283.984 174.616C283.984 174.112 283.87 173.704 283.642 173.392C283.414 173.08 283.114 172.828 282.742 172.636C282.382 172.432 281.962 172.27 281.482 172.15C281.014 172.03 280.528 171.916 280.024 171.808C279.532 171.688 279.046 171.55 278.566 171.394C278.098 171.238 277.678 171.028 277.306 170.764C276.946 170.5 276.652 170.164 276.424 169.756C276.196 169.336 276.082 168.808 276.082 168.172C276.082 167.728 276.172 167.296 276.352 166.876C276.544 166.456 276.82 166.084 277.18 165.76C277.552 165.436 278.014 165.178 278.566 164.986C279.118 164.794 279.754 164.698 280.474 164.698C281.206 164.698 281.842 164.8 282.382 165.004C282.934 165.208 283.39 165.49 283.75 165.85C284.11 166.198 284.38 166.606 284.56 167.074C284.74 167.542 284.83 168.04 284.83 168.568H283.66C283.66 168.076 283.57 167.65 283.39 167.29C283.222 166.93 282.988 166.636 282.688 166.408C282.388 166.18 282.046 166.012 281.662 165.904C281.278 165.796 280.882 165.742 280.474 165.742C279.85 165.742 279.322 165.832 278.89 166.012C278.47 166.18 278.134 166.402 277.882 166.678C277.63 166.954 277.456 167.26 277.36 167.596C277.264 167.932 277.246 168.268 277.306 168.604C277.378 169.024 277.546 169.36 277.81 169.612C278.074 169.864 278.398 170.074 278.782 170.242C279.166 170.398 279.586 170.53 280.042 170.638C280.51 170.734 280.984 170.842 281.464 170.962C281.944 171.07 282.406 171.202 282.85 171.358C283.306 171.514 283.708 171.724 284.056 171.988C284.404 172.252 284.68 172.594 284.884 173.014C285.1 173.422 285.208 173.938 285.208 174.562C285.208 175.762 284.794 176.692 283.966 177.352C283.138 178.012 281.974 178.342 280.474 178.342C279.802 178.342 279.178 178.252 278.602 178.072C278.026 177.904 277.528 177.646 277.108 177.298C276.688 176.938 276.358 176.5 276.118 175.984C275.89 175.456 275.776 174.838 275.776 174.13H276.964ZM287.896 178V165.04H289.12V178H287.896ZM291.97 171.538C291.97 170.59 292.096 169.702 292.348 168.874C292.612 168.046 292.996 167.326 293.5 166.714C294.004 166.09 294.628 165.598 295.372 165.238C296.116 164.878 296.974 164.698 297.946 164.698C298.954 164.698 299.836 164.878 300.592 165.238C301.36 165.586 301.996 166.072 302.5 166.696C303.016 167.308 303.4 168.034 303.652 168.874C303.916 169.702 304.048 170.59 304.048 171.538C304.048 172.474 303.916 173.356 303.652 174.184C303.4 175 303.022 175.72 302.518 176.344C302.014 176.956 301.384 177.442 300.628 177.802C299.872 178.162 298.996 178.342 298 178.342C297.004 178.342 296.128 178.162 295.372 177.802C294.616 177.442 293.986 176.956 293.482 176.344C292.978 175.72 292.6 175 292.348 174.184C292.096 173.356 291.97 172.474 291.97 171.538ZM298.018 177.298C298.858 177.298 299.578 177.142 300.178 176.83C300.79 176.506 301.288 176.08 301.672 175.552C302.068 175.024 302.356 174.412 302.536 173.716C302.728 173.02 302.824 172.294 302.824 171.538C302.824 170.638 302.71 169.834 302.482 169.126C302.266 168.406 301.948 167.794 301.528 167.29C301.108 166.786 300.598 166.402 299.998 166.138C299.398 165.874 298.726 165.742 297.982 165.742C297.154 165.742 296.434 165.904 295.822 166.228C295.222 166.552 294.724 166.984 294.328 167.524C293.944 168.052 293.656 168.664 293.464 169.36C293.284 170.056 293.194 170.782 293.194 171.538C293.194 172.306 293.284 173.038 293.464 173.734C293.656 174.43 293.944 175.042 294.328 175.57C294.724 176.098 295.222 176.518 295.822 176.83C296.434 177.142 297.166 177.298 298.018 177.298ZM307.707 166.696H307.671V178H306.447V165.04H307.833L315.321 176.362H315.357V165.04H316.581V178H315.159L307.707 166.696Z" fill="#DFF26A"/>
<line x1="42" y1="80.5" x2="318" y2="80.5" stroke="white" stroke-opacity="0.4"/>
<rect x="227" y="40" width="90" height="25" rx="12.5" fill="#DFF26A"/>
<path d="M246.298 57H244.302V50.1641H241.971V48.8379C242.586 48.8105 243.017 48.7695 243.263 48.7148C243.655 48.6283 243.974 48.4551 244.22 48.1953C244.388 48.0176 244.516 47.7806 244.603 47.4844C244.653 47.3066 244.678 47.1745 244.678 47.0879H246.298V57ZM249.668 54.9629H251.739V57H249.668V54.9629ZM256.326 57.2871C255.583 57.2871 254.916 57.0684 254.323 56.6309C253.731 56.1888 253.391 55.5462 253.305 54.7031H255.246C255.292 54.9948 255.415 55.2318 255.615 55.4141C255.816 55.5964 256.082 55.6875 256.415 55.6875C257.058 55.6875 257.509 55.332 257.769 54.6211C257.91 54.2292 257.999 53.6572 258.035 52.9053C257.857 53.1286 257.668 53.2995 257.468 53.418C257.103 53.6367 256.654 53.7461 256.121 53.7461C255.333 53.7461 254.633 53.4749 254.022 52.9326C253.412 52.3857 253.106 51.5996 253.106 50.5742C253.106 49.5124 253.412 48.6533 254.022 47.9971C254.638 47.3363 255.435 47.0059 256.415 47.0059C257.924 47.0059 258.958 47.6735 259.519 49.0088C259.838 49.7653 259.997 50.7611 259.997 51.9961C259.997 53.1947 259.844 54.195 259.539 54.9971C258.956 56.5238 257.885 57.2871 256.326 57.2871ZM255.643 48.9131C255.269 49.2048 255.082 49.6992 255.082 50.3965C255.082 50.9844 255.201 51.4264 255.438 51.7227C255.679 52.0143 256.048 52.1602 256.545 52.1602C256.814 52.1602 257.067 52.0827 257.304 51.9277C257.746 51.6452 257.967 51.1553 257.967 50.458C257.967 49.8975 257.835 49.4531 257.57 49.125C257.311 48.7969 256.953 48.6328 256.497 48.6328C256.164 48.6328 255.88 48.7262 255.643 48.9131ZM266.648 50.2734C266.129 51.0117 265.694 51.7728 265.343 52.5566C265.065 53.1719 264.814 53.9238 264.591 54.8125C264.368 55.7012 264.256 56.4303 264.256 57H262.232C262.292 55.2227 262.875 53.3747 263.982 51.4561C264.698 50.2666 265.297 49.4372 265.78 48.9678H260.838L260.865 47.2178H267.865V48.7422C267.574 49.0293 267.168 49.5397 266.648 50.2734ZM275.241 54.6553C275.241 53.9489 275.49 53.3473 275.986 52.8506C276.483 52.3584 277.082 52.1123 277.784 52.1123C278.486 52.1123 279.085 52.3607 279.582 52.8574C280.079 53.3542 280.327 53.9535 280.327 54.6553C280.327 55.3571 280.079 55.9564 279.582 56.4531C279.085 56.9499 278.486 57.1982 277.784 57.1982C277.082 57.1982 276.483 56.9499 275.986 56.4531C275.49 55.9564 275.241 55.3571 275.241 54.6553ZM269.342 51.4766C268.845 50.9798 268.597 50.3805 268.597 49.6787C268.597 48.9769 268.845 48.3776 269.342 47.8809C269.839 47.3841 270.438 47.1357 271.14 47.1357C271.841 47.1357 272.441 47.3841 272.938 47.8809C273.434 48.3776 273.683 48.9769 273.683 49.6787C273.683 50.3805 273.434 50.9798 272.938 51.4766C272.445 51.9733 271.846 52.2217 271.14 52.2217C270.438 52.2217 269.839 51.9733 269.342 51.4766ZM272.213 57.2598H271.153L276.697 47.0879H277.736L272.213 57.2598ZM277.019 55.4209C277.228 55.6351 277.483 55.7422 277.784 55.7422C278.085 55.7422 278.34 55.6374 278.55 55.4277C278.764 55.2135 278.871 54.9561 278.871 54.6553C278.871 54.3545 278.764 54.0993 278.55 53.8896C278.34 53.6755 278.085 53.5684 277.784 53.5684C277.483 53.5684 277.226 53.6755 277.012 53.8896C276.802 54.0993 276.697 54.3545 276.697 54.6553C276.697 54.9561 276.804 55.2113 277.019 55.4209ZM270.374 50.4443C270.584 50.6585 270.839 50.7656 271.14 50.7656C271.44 50.7656 271.696 50.6608 271.905 50.4512C272.119 50.237 272.227 49.9795 272.227 49.6787C272.227 49.3779 272.119 49.1227 271.905 48.9131C271.696 48.6989 271.44 48.5918 271.14 48.5918C270.839 48.5918 270.581 48.6989 270.367 48.9131C270.158 49.1227 270.053 49.3779 270.053 49.6787C270.053 49.9795 270.16 50.2347 270.374 50.4443Z" fill="#1C1C1C"/>
<path d="M286.017 49.1099H286.833L284.33 57H283.514L286.017 49.1099ZM287.896 54.1909C287.896 54.8068 288.027 55.3224 288.289 55.7378C288.55 56.1532 288.969 56.3608 289.545 56.3608C289.993 56.3608 290.36 56.1693 290.646 55.7861C290.937 55.3994 291.082 54.8462 291.082 54.1265C291.082 53.3996 290.933 52.8625 290.636 52.5151C290.339 52.1642 289.972 51.9888 289.535 51.9888C289.048 51.9888 288.652 52.175 288.348 52.5474C288.047 52.9198 287.896 53.4676 287.896 54.1909ZM289.352 51.1455C289.792 51.1455 290.161 51.2386 290.458 51.4248C290.63 51.5322 290.826 51.7202 291.044 51.9888V49.083H291.973V57H291.103V56.1997C290.877 56.5542 290.611 56.8102 290.303 56.9678C289.995 57.1253 289.642 57.2041 289.245 57.2041C288.604 57.2041 288.049 56.9355 287.58 56.3984C287.111 55.8577 286.876 55.1398 286.876 54.2446C286.876 53.4067 287.089 52.6816 287.515 52.0693C287.945 51.4535 288.557 51.1455 289.352 51.1455ZM294.148 55.4692C294.148 55.7485 294.25 55.9688 294.455 56.1299C294.659 56.291 294.9 56.3716 295.18 56.3716C295.52 56.3716 295.849 56.2928 296.168 56.1353C296.705 55.8739 296.974 55.446 296.974 54.8516V54.0728C296.855 54.1479 296.703 54.2106 296.517 54.2607C296.331 54.3109 296.148 54.3467 295.969 54.3682L295.384 54.4434C295.033 54.4899 294.77 54.5633 294.594 54.6636C294.297 54.8319 294.148 55.1004 294.148 55.4692ZM296.49 53.5142C296.712 53.4855 296.861 53.3924 296.936 53.2349C296.979 53.1489 297 53.0254 297 52.8643C297 52.5348 296.882 52.2967 296.646 52.1499C296.413 51.9995 296.078 51.9243 295.642 51.9243C295.137 51.9243 294.779 52.0604 294.567 52.3325C294.449 52.4829 294.372 52.7067 294.336 53.0039H293.434C293.452 52.2949 293.681 51.8026 294.122 51.5269C294.566 51.2476 295.079 51.1079 295.663 51.1079C296.34 51.1079 296.889 51.2368 297.312 51.4946C297.731 51.7524 297.94 52.1535 297.94 52.6978V56.0117C297.94 56.112 297.96 56.1925 298 56.2534C298.042 56.3143 298.13 56.3447 298.263 56.3447C298.306 56.3447 298.354 56.3429 298.408 56.3394C298.461 56.3322 298.519 56.3232 298.58 56.3125V57.0269C298.429 57.0698 298.315 57.0967 298.236 57.1074C298.157 57.1182 298.05 57.1235 297.914 57.1235C297.581 57.1235 297.339 57.0054 297.188 56.769C297.11 56.6437 297.054 56.4665 297.022 56.2373C296.825 56.4951 296.542 56.7189 296.173 56.9087C295.805 57.0985 295.398 57.1934 294.954 57.1934C294.421 57.1934 293.984 57.0322 293.644 56.71C293.307 56.3841 293.139 55.9777 293.139 55.4907C293.139 54.9572 293.305 54.5436 293.638 54.25C293.971 53.9564 294.408 53.7756 294.949 53.7075L296.49 53.5142ZM303.124 51.2476H304.192C304.056 51.6164 303.754 52.4578 303.285 53.772C302.934 54.7603 302.64 55.5659 302.404 56.189C301.845 57.6571 301.451 58.5522 301.222 58.8745C300.993 59.1968 300.599 59.3579 300.041 59.3579C299.904 59.3579 299.799 59.3525 299.724 59.3418C299.652 59.3311 299.562 59.3114 299.455 59.2827V58.4019C299.623 58.4484 299.745 58.4771 299.82 58.4878C299.896 58.4985 299.962 58.5039 300.019 58.5039C300.198 58.5039 300.329 58.4735 300.411 58.4126C300.497 58.3553 300.569 58.2837 300.626 58.1978C300.644 58.1691 300.708 58.0223 300.819 57.7573C300.93 57.4924 301.011 57.2954 301.061 57.1665L298.934 51.2476H300.03L301.571 55.9312L303.124 51.2476Z" fill="#1C1C1C" fill-opacity="0.7"/>
<defs>
<clipPath id="clip0_73_195">
<rect width="18" height="18" fill="white" transform="translate(300 122)"/>
</clipPath>
</defs>
</svg>
