<svg width="369" height="334" viewBox="0 0 369 334" fill="none" xmlns="http://www.w3.org/2000/svg">
<g filter="url(#filter0_d_73_194)">
<rect x="4.5" y="0.5" width="360" height="325" rx="25.5" fill="white" stroke="#E9E9E9"/>
<rect x="22" y="251" width="325" height="53" rx="16" fill="#DFF26A"/>
<path d="M157.982 282.033C157.016 282.918 155.779 283.36 154.273 283.36C152.41 283.36 150.945 282.763 149.879 281.567C148.812 280.366 148.279 278.72 148.279 276.628C148.279 274.366 148.886 272.623 150.099 271.398C151.153 270.332 152.495 269.799 154.124 269.799C156.304 269.799 157.897 270.514 158.905 271.943C159.462 272.746 159.761 273.552 159.802 274.36H157.095C156.919 273.739 156.693 273.271 156.418 272.954C155.926 272.392 155.196 272.11 154.229 272.11C153.245 272.11 152.469 272.509 151.9 273.306C151.332 274.097 151.048 275.219 151.048 276.672C151.048 278.125 151.347 279.215 151.944 279.941C152.548 280.662 153.312 281.022 154.238 281.022C155.188 281.022 155.911 280.712 156.409 280.091C156.685 279.757 156.913 279.256 157.095 278.588H159.775C159.541 280 158.943 281.148 157.982 282.033ZM170.305 277.375V283H167.747V277.173C167.747 276.657 167.659 276.241 167.483 275.925C167.255 275.479 166.821 275.257 166.183 275.257C165.521 275.257 165.017 275.479 164.671 275.925C164.331 276.364 164.161 276.994 164.161 277.814V283H161.665V270.089H164.161V274.668C164.524 274.111 164.943 273.725 165.418 273.508C165.898 273.285 166.402 273.174 166.93 273.174C167.521 273.174 168.058 273.276 168.538 273.481C169.024 273.687 169.423 274 169.733 274.422C169.997 274.779 170.158 275.148 170.217 275.529C170.275 275.904 170.305 276.52 170.305 277.375ZM180.641 274.633C181.449 275.646 181.854 276.845 181.854 278.228C181.854 279.634 181.449 280.838 180.641 281.84C179.832 282.836 178.604 283.334 176.958 283.334C175.312 283.334 174.084 282.836 173.275 281.84C172.467 280.838 172.062 279.634 172.062 278.228C172.062 276.845 172.467 275.646 173.275 274.633C174.084 273.619 175.312 273.112 176.958 273.112C178.604 273.112 179.832 273.619 180.641 274.633ZM176.949 275.23C176.217 275.23 175.651 275.491 175.253 276.013C174.86 276.528 174.664 277.267 174.664 278.228C174.664 279.188 174.86 279.93 175.253 280.451C175.651 280.973 176.217 281.233 176.949 281.233C177.682 281.233 178.244 280.973 178.637 280.451C179.029 279.93 179.226 279.188 179.226 278.228C179.226 277.267 179.029 276.528 178.637 276.013C178.244 275.491 177.682 275.23 176.949 275.23ZM191.645 274.633C192.453 275.646 192.857 276.845 192.857 278.228C192.857 279.634 192.453 280.838 191.645 281.84C190.836 282.836 189.608 283.334 187.962 283.334C186.315 283.334 185.088 282.836 184.279 281.84C183.471 280.838 183.066 279.634 183.066 278.228C183.066 276.845 183.471 275.646 184.279 274.633C185.088 273.619 186.315 273.112 187.962 273.112C189.608 273.112 190.836 273.619 191.645 274.633ZM187.953 275.23C187.221 275.23 186.655 275.491 186.257 276.013C185.864 276.528 185.668 277.267 185.668 278.228C185.668 279.188 185.864 279.93 186.257 280.451C186.655 280.973 187.221 281.233 187.953 281.233C188.686 281.233 189.248 280.973 189.641 280.451C190.033 279.93 190.229 279.188 190.229 278.228C190.229 277.267 190.033 276.528 189.641 276.013C189.248 275.491 188.686 275.23 187.953 275.23ZM201.26 273.859C202.01 274.34 202.44 275.166 202.552 276.338H200.047C200.012 276.016 199.921 275.761 199.774 275.573C199.499 275.233 199.03 275.063 198.368 275.063C197.823 275.063 197.434 275.148 197.199 275.318C196.971 275.488 196.856 275.688 196.856 275.916C196.856 276.203 196.979 276.411 197.226 276.54C197.472 276.675 198.342 276.906 199.836 277.234C200.832 277.469 201.579 277.823 202.077 278.298C202.569 278.778 202.815 279.379 202.815 280.1C202.815 281.049 202.461 281.825 201.752 282.429C201.049 283.026 199.959 283.325 198.482 283.325C196.977 283.325 195.863 283.009 195.143 282.376C194.428 281.737 194.07 280.926 194.07 279.941H196.61C196.663 280.387 196.777 280.703 196.953 280.891C197.264 281.225 197.838 281.392 198.676 281.392C199.168 281.392 199.558 281.318 199.845 281.172C200.138 281.025 200.284 280.806 200.284 280.513C200.284 280.231 200.167 280.018 199.933 279.871C199.698 279.725 198.828 279.473 197.322 279.115C196.238 278.846 195.474 278.509 195.028 278.104C194.583 277.706 194.36 277.132 194.36 276.382C194.36 275.497 194.706 274.738 195.397 274.105C196.095 273.467 197.073 273.147 198.333 273.147C199.528 273.147 200.504 273.385 201.26 273.859ZM212.879 280.188C212.814 280.756 212.519 281.333 211.991 281.919C211.171 282.851 210.022 283.316 208.546 283.316C207.327 283.316 206.252 282.924 205.32 282.139C204.389 281.354 203.923 280.076 203.923 278.307C203.923 276.648 204.342 275.377 205.18 274.492C206.023 273.607 207.116 273.165 208.458 273.165C209.255 273.165 209.973 273.314 210.611 273.613C211.25 273.912 211.777 274.384 212.193 275.028C212.568 275.597 212.812 276.256 212.923 277.006C212.987 277.445 213.014 278.078 213.002 278.904H206.445C206.48 279.865 206.782 280.539 207.351 280.926C207.696 281.166 208.112 281.286 208.599 281.286C209.114 281.286 209.533 281.14 209.855 280.847C210.031 280.688 210.187 280.469 210.321 280.188H212.879ZM210.4 277.252C210.359 276.59 210.157 276.089 209.794 275.749C209.437 275.403 208.991 275.23 208.458 275.23C207.878 275.23 207.427 275.412 207.104 275.775C206.788 276.139 206.589 276.631 206.507 277.252H210.4Z" fill="#1C1C1C"/>
<path d="M226 280.531L231 274.871L226 269.21" stroke="#1C1C1C" stroke-width="2" stroke-linecap="round" stroke-linejoin="round"/>
<rect x="24" y="20" width="321" height="214" rx="16" fill="#1C1C1C"/>
<path d="M51.5605 62H47.917V43.2871H53.6045L57.0068 58.001L60.3838 43.2871H66.0078V62H62.3643V49.3428C62.3643 48.9788 62.3685 48.471 62.377 47.8193C62.3854 47.1592 62.3896 46.6514 62.3896 46.2959L58.8477 62H55.0518L51.5352 46.2959C51.5352 46.6514 51.5394 47.1592 51.5479 47.8193C51.5563 48.471 51.5605 48.9788 51.5605 49.3428V62ZM69.334 43.2871H73.2188V62H69.334V43.2871ZM84.9365 62H76.875V43.2871H84.9365C86.096 43.304 87.0609 43.4395 87.8311 43.6934C89.1429 44.125 90.2051 44.9163 91.0176 46.0674C91.6693 46.9984 92.1136 48.0055 92.3506 49.0889C92.5876 50.1722 92.7061 51.2048 92.7061 52.1865C92.7061 54.6748 92.2067 56.7822 91.208 58.5088C89.8538 60.8363 87.7633 62 84.9365 62ZM87.8438 48.0605C87.2428 47.0449 86.0537 46.5371 84.2764 46.5371H80.6709V58.75H84.2764C86.1214 58.75 87.4079 57.8402 88.1357 56.0205C88.5335 55.0218 88.7324 53.8327 88.7324 52.4531C88.7324 50.5488 88.4362 49.0846 87.8438 48.0605ZM116.497 43.2871V46.6006H110.898V62H106.963V46.6006H101.339V43.2871H116.497ZM131.82 53.8242H122.73V58.6357H133.09V62H118.909V43.2871H132.633V46.6006H122.73V50.5742H131.82V53.8242ZM144.084 54.6621H140.047V62H136.226V43.2871H145.404C146.716 43.3125 147.723 43.4733 148.426 43.7695C149.137 44.0658 149.738 44.5016 150.229 45.0771C150.635 45.5511 150.956 46.0758 151.193 46.6514C151.43 47.2269 151.549 47.8828 151.549 48.6191C151.549 49.5078 151.325 50.3838 150.876 51.2471C150.427 52.1019 149.687 52.707 148.654 53.0625C149.518 53.4095 150.127 53.9046 150.482 54.5479C150.846 55.1826 151.028 56.1559 151.028 57.4678V58.7246C151.028 59.5794 151.062 60.1592 151.13 60.4639C151.231 60.9463 151.468 61.3018 151.841 61.5303V62H147.537C147.419 61.5853 147.334 61.251 147.283 60.9971C147.182 60.4723 147.127 59.9349 147.118 59.3848L147.093 57.6455C147.076 56.4521 146.856 55.6566 146.433 55.2588C146.018 54.861 145.235 54.6621 144.084 54.6621ZM146.458 51.2598C147.237 50.9043 147.626 50.2018 147.626 49.1523C147.626 48.0182 147.249 47.2565 146.496 46.8672C146.073 46.6471 145.438 46.5371 144.592 46.5371H140.047V51.5645H144.478C145.358 51.5645 146.018 51.4629 146.458 51.2598ZM158.506 62H154.862V43.2871H160.55L163.952 58.001L167.329 43.2871H172.953V62H169.31V49.3428C169.31 48.9788 169.314 48.471 169.322 47.8193C169.331 47.1592 169.335 46.6514 169.335 46.2959L165.793 62H161.997L158.48 46.2959C158.48 46.6514 158.485 47.1592 158.493 47.8193C158.502 48.471 158.506 48.9788 158.506 49.3428V62Z" fill="white"/>
<path d="M55.5391 133.544C56.0117 133.544 56.3877 133.361 56.667 132.996C56.9463 132.624 57.1504 132.176 57.2793 131.653H59.1055C58.9121 132.985 58.5146 134.128 57.9131 135.08C57.3187 136.033 56.513 136.509 55.4961 136.509C55.2956 136.509 55.0843 136.491 54.8623 136.455C54.4326 136.391 53.9242 136.237 53.3369 135.993L51.0918 135.145C50.8841 135.066 50.6299 134.994 50.3291 134.93C50.0283 134.865 49.8063 134.833 49.6631 134.833C49.2549 134.833 48.8932 134.991 48.5781 135.306C48.263 135.614 48.0374 136.086 47.9014 136.724H46.043C46.1647 135.871 46.3366 135.137 46.5586 134.521C46.7878 133.906 47.0671 133.401 47.3965 133.007C47.7474 132.591 48.109 132.301 48.4814 132.137C48.8538 131.965 49.237 131.879 49.6309 131.879C49.8027 131.879 50.0283 131.9 50.3076 131.943C50.7516 132.015 51.1634 132.122 51.543 132.266L54.0459 133.232C54.3395 133.347 54.6224 133.429 54.8945 133.479C55.1738 133.522 55.3887 133.544 55.5391 133.544ZM63.0586 127.528C62.7148 127.987 62.5501 128.599 62.5645 129.365H59.707C59.7357 128.592 59.8682 127.858 60.1045 127.163C60.3551 126.554 60.749 125.992 61.2861 125.477C61.6872 125.111 62.1634 124.832 62.7148 124.639C63.2663 124.445 63.943 124.349 64.7451 124.349C66.2347 124.349 67.4342 124.735 68.3438 125.509C69.2604 126.275 69.7188 127.306 69.7188 128.603C69.7188 129.519 69.4466 130.293 68.9023 130.923C68.5586 131.317 68.2005 131.585 67.8281 131.729C68.1074 131.729 68.5085 131.968 69.0312 132.448C69.8118 133.172 70.2021 134.16 70.2021 135.413C70.2021 136.731 69.7438 137.891 68.8271 138.894C67.9176 139.889 66.5677 140.387 64.7773 140.387C62.5716 140.387 61.0391 139.667 60.1797 138.228C59.7285 137.461 59.4779 136.459 59.4277 135.22H62.4355C62.4355 135.843 62.5358 136.358 62.7363 136.767C63.1087 137.519 63.7855 137.895 64.7666 137.895C65.3682 137.895 65.891 137.69 66.335 137.282C66.7861 136.867 67.0117 136.272 67.0117 135.499C67.0117 134.475 66.5964 133.791 65.7656 133.447C65.293 133.254 64.5482 133.157 63.5312 133.157V130.966C64.5267 130.951 65.2214 130.855 65.6152 130.676C66.2956 130.375 66.6357 129.766 66.6357 128.85C66.6357 128.255 66.4603 127.772 66.1094 127.399C65.7656 127.027 65.2786 126.841 64.6484 126.841C63.9251 126.841 63.3952 127.07 63.0586 127.528ZM75.4766 141.096C75.3477 141.626 75.1077 142.084 74.7568 142.471C74.3773 142.886 73.9297 143.198 73.4141 143.405C72.9056 143.62 72.5547 143.728 72.3613 143.728V142.546C72.9772 142.374 73.4284 142.088 73.7148 141.687C74.0085 141.285 74.1768 140.723 74.2197 140H72.3613V136.799H75.6699V139.57C75.6699 140.057 75.6055 140.566 75.4766 141.096ZM85.542 140H82.4053V129.258H78.7422V127.174C79.709 127.131 80.3857 127.066 80.7725 126.98C81.3883 126.844 81.8896 126.572 82.2764 126.164C82.5413 125.885 82.7419 125.512 82.8779 125.047C82.9567 124.768 82.9961 124.56 82.9961 124.424H85.542V140ZM95.5215 140.387C93.5378 140.387 92.1449 139.692 91.3428 138.303C90.5479 136.913 90.1504 134.933 90.1504 132.362C90.1504 129.791 90.5479 127.808 91.3428 126.411C92.1449 125.015 93.5378 124.316 95.5215 124.316C97.5052 124.316 98.8981 125.015 99.7002 126.411C100.495 127.808 100.893 129.791 100.893 132.362C100.893 134.933 100.492 136.913 99.6895 138.303C98.8945 139.692 97.5052 140.387 95.5215 140.387ZM97.3154 136.466C97.5947 135.521 97.7344 134.153 97.7344 132.362C97.7344 130.486 97.5911 129.097 97.3047 128.194C97.0254 127.292 96.431 126.841 95.5215 126.841C94.612 126.841 94.0104 127.292 93.7168 128.194C93.4232 129.097 93.2764 130.486 93.2764 132.362C93.2764 134.153 93.4232 135.524 93.7168 136.477C94.0104 137.422 94.612 137.895 95.5215 137.895C96.431 137.895 97.029 137.418 97.3154 136.466ZM107.768 140.387C105.784 140.387 104.391 139.692 103.589 138.303C102.794 136.913 102.396 134.933 102.396 132.362C102.396 129.791 102.794 127.808 103.589 126.411C104.391 125.015 105.784 124.316 107.768 124.316C109.751 124.316 111.144 125.015 111.946 126.411C112.741 127.808 113.139 129.791 113.139 132.362C113.139 134.933 112.738 136.913 111.936 138.303C111.141 139.692 109.751 140.387 107.768 140.387ZM109.562 136.466C109.841 135.521 109.98 134.153 109.98 132.362C109.98 130.486 109.837 129.097 109.551 128.194C109.271 127.292 108.677 126.841 107.768 126.841C106.858 126.841 106.257 127.292 105.963 128.194C105.669 129.097 105.522 130.486 105.522 132.362C105.522 134.153 105.669 135.524 105.963 136.477C106.257 137.422 106.858 137.895 107.768 137.895C108.677 137.895 109.275 137.418 109.562 136.466ZM124.901 136.315C124.901 135.205 125.292 134.26 126.072 133.479C126.853 132.706 127.795 132.319 128.897 132.319C130 132.319 130.942 132.71 131.723 133.49C132.503 134.271 132.894 135.213 132.894 136.315C132.894 137.418 132.503 138.36 131.723 139.141C130.942 139.921 130 140.312 128.897 140.312C127.795 140.312 126.853 139.921 126.072 139.141C125.292 138.36 124.901 137.418 124.901 136.315ZM115.631 131.32C114.85 130.54 114.46 129.598 114.46 128.495C114.46 127.392 114.85 126.451 115.631 125.67C116.411 124.889 117.353 124.499 118.456 124.499C119.559 124.499 120.501 124.889 121.281 125.67C122.062 126.451 122.452 127.392 122.452 128.495C122.452 129.598 122.062 130.54 121.281 131.32C120.508 132.101 119.566 132.491 118.456 132.491C117.353 132.491 116.411 132.101 115.631 131.32ZM120.143 140.408H118.478L127.189 124.424H128.822L120.143 140.408ZM127.694 137.519C128.024 137.855 128.425 138.023 128.897 138.023C129.37 138.023 129.771 137.859 130.101 137.529C130.437 137.193 130.605 136.788 130.605 136.315C130.605 135.843 130.437 135.442 130.101 135.112C129.771 134.776 129.37 134.607 128.897 134.607C128.425 134.607 128.02 134.776 127.684 135.112C127.354 135.442 127.189 135.843 127.189 136.315C127.189 136.788 127.358 137.189 127.694 137.519ZM117.253 129.698C117.582 130.035 117.983 130.203 118.456 130.203C118.929 130.203 119.33 130.038 119.659 129.709C119.996 129.372 120.164 128.968 120.164 128.495C120.164 128.022 119.996 127.621 119.659 127.292C119.33 126.955 118.929 126.787 118.456 126.787C117.983 126.787 117.579 126.955 117.242 127.292C116.913 127.621 116.748 128.022 116.748 128.495C116.748 128.968 116.916 129.369 117.253 129.698Z" fill="white"/>
<path d="M54.3252 206H51.1885V195.258H47.5254V193.174C48.4922 193.131 49.1689 193.066 49.5557 192.98C50.1715 192.844 50.6729 192.572 51.0596 192.164C51.3245 191.885 51.5251 191.512 51.6611 191.047C51.7399 190.768 51.7793 190.56 51.7793 190.424H54.3252V206ZM65.8945 193.593C65.5293 193.156 65.0065 192.938 64.3262 192.938C63.3952 192.938 62.7614 193.285 62.4248 193.979C62.2314 194.381 62.1169 195.018 62.0811 195.892H59.1055C59.1556 194.567 59.3955 193.496 59.8252 192.68C60.6416 191.126 62.0918 190.349 64.1758 190.349C65.8229 190.349 67.1335 190.807 68.1074 191.724C69.0814 192.633 69.5684 193.84 69.5684 195.344C69.5684 196.497 69.2246 197.521 68.5371 198.416C68.0859 199.01 67.3447 199.673 66.3135 200.403L65.0889 201.273C64.3226 201.818 63.7962 202.212 63.5098 202.455C63.2305 202.699 62.9941 202.981 62.8008 203.304H69.6006V206H58.9336C58.9622 204.883 59.2021 203.862 59.6533 202.938C60.0902 201.9 61.1214 200.801 62.7471 199.641C64.1579 198.631 65.071 197.908 65.4863 197.471C66.1237 196.79 66.4424 196.046 66.4424 195.236C66.4424 194.577 66.2598 194.03 65.8945 193.593ZM85.1123 206H78.291V190.166H85.1123C86.0934 190.18 86.9098 190.295 87.5615 190.51C88.6715 190.875 89.5703 191.545 90.2578 192.519C90.8092 193.306 91.1852 194.159 91.3857 195.075C91.5863 195.992 91.6865 196.866 91.6865 197.696C91.6865 199.802 91.264 201.585 90.4189 203.046C89.2731 205.015 87.5042 206 85.1123 206ZM87.5723 194.205C87.0638 193.346 86.0576 192.916 84.5537 192.916H81.5029V203.25H84.5537C86.1149 203.25 87.2035 202.48 87.8193 200.94C88.1559 200.095 88.3242 199.089 88.3242 197.922C88.3242 196.311 88.0736 195.072 87.5723 194.205ZM94.3828 195.559C95.1921 194.527 96.5814 194.012 98.5508 194.012C99.8327 194.012 100.971 194.266 101.967 194.774C102.962 195.283 103.46 196.243 103.46 197.653V203.024C103.46 203.397 103.467 203.848 103.481 204.378C103.503 204.779 103.564 205.051 103.664 205.194C103.764 205.338 103.915 205.456 104.115 205.549V206H100.785C100.692 205.764 100.628 205.542 100.592 205.334C100.556 205.126 100.527 204.89 100.506 204.625C100.083 205.083 99.5964 205.474 99.0449 205.796C98.3861 206.175 97.6413 206.365 96.8105 206.365C95.7507 206.365 94.8734 206.064 94.1787 205.463C93.4912 204.854 93.1475 203.995 93.1475 202.885C93.1475 201.445 93.7025 200.403 94.8125 199.759C95.4212 199.408 96.3164 199.157 97.498 199.007L98.54 198.878C99.1058 198.806 99.5104 198.717 99.7539 198.609C100.191 198.423 100.409 198.133 100.409 197.739C100.409 197.259 100.241 196.93 99.9043 196.751C99.5749 196.565 99.0879 196.472 98.4434 196.472C97.7201 196.472 97.208 196.651 96.9072 197.009C96.6924 197.274 96.5492 197.632 96.4775 198.083H93.5234C93.5879 197.059 93.8743 196.217 94.3828 195.559ZM96.6602 203.787C96.9466 204.023 97.2975 204.142 97.7129 204.142C98.3717 204.142 98.9769 203.948 99.5283 203.562C100.087 203.175 100.377 202.469 100.398 201.445V200.307C100.205 200.428 100.008 200.529 99.8076 200.607C99.6143 200.679 99.3457 200.747 99.002 200.812L98.3145 200.94C97.6699 201.055 97.208 201.195 96.9287 201.359C96.4561 201.639 96.2197 202.072 96.2197 202.659C96.2197 203.182 96.3665 203.558 96.6602 203.787ZM110.947 202.928L113.364 194.291H116.619L112.602 205.807C111.828 208.027 111.216 209.402 110.765 209.932C110.313 210.469 109.411 210.737 108.058 210.737C107.785 210.737 107.567 210.734 107.402 210.727C107.238 210.727 106.991 210.716 106.661 210.694V208.245L107.048 208.267C107.349 208.281 107.635 208.27 107.907 208.234C108.179 208.199 108.409 208.116 108.595 207.987C108.774 207.866 108.938 207.611 109.089 207.225C109.246 206.838 109.311 206.602 109.282 206.516L104.985 194.291H108.391L110.947 202.928ZM126.502 194.828C127.419 195.415 127.945 196.425 128.081 197.857H125.02C124.977 197.464 124.866 197.152 124.687 196.923C124.35 196.507 123.777 196.3 122.968 196.3C122.302 196.3 121.826 196.404 121.539 196.611C121.26 196.819 121.12 197.062 121.12 197.342C121.12 197.693 121.271 197.947 121.571 198.104C121.872 198.269 122.936 198.552 124.762 198.953C125.979 199.24 126.892 199.673 127.501 200.253C128.103 200.84 128.403 201.574 128.403 202.455C128.403 203.615 127.97 204.564 127.104 205.302C126.244 206.032 124.912 206.397 123.107 206.397C121.267 206.397 119.906 206.011 119.025 205.237C118.152 204.457 117.715 203.465 117.715 202.262H120.819C120.884 202.806 121.023 203.193 121.238 203.422C121.618 203.83 122.32 204.034 123.344 204.034C123.945 204.034 124.422 203.945 124.772 203.766C125.131 203.587 125.31 203.318 125.31 202.96C125.31 202.616 125.166 202.355 124.88 202.176C124.593 201.997 123.53 201.689 121.689 201.252C120.365 200.923 119.43 200.511 118.886 200.017C118.341 199.53 118.069 198.828 118.069 197.911C118.069 196.83 118.492 195.902 119.337 195.129C120.189 194.348 121.385 193.958 122.925 193.958C124.386 193.958 125.578 194.248 126.502 194.828Z" fill="white"/>
<path d="M205.865 132.266C205.493 132.266 205.171 132.312 204.898 132.405C204.419 132.577 204.057 132.896 203.813 133.361L201.063 133.232L202.159 124.628H210.742V127.228H204.372L203.813 130.633C204.286 130.325 204.655 130.121 204.92 130.021C205.364 129.856 205.905 129.773 206.542 129.773C207.831 129.773 208.955 130.207 209.915 131.073C210.875 131.94 211.354 133.2 211.354 134.854C211.354 136.294 210.893 137.579 209.969 138.711C209.045 139.842 207.663 140.408 205.822 140.408C204.34 140.408 203.122 140.011 202.17 139.216C201.217 138.421 200.688 137.293 200.58 135.832H203.631C203.753 136.498 203.985 137.014 204.329 137.379C204.673 137.737 205.174 137.916 205.833 137.916C206.592 137.916 207.169 137.651 207.562 137.121C207.964 136.584 208.164 135.911 208.164 135.102C208.164 134.307 207.978 133.637 207.605 133.093C207.233 132.541 206.653 132.266 205.865 132.266ZM216.629 141.096C216.5 141.626 216.26 142.084 215.909 142.471C215.53 142.886 215.082 143.198 214.566 143.405C214.058 143.62 213.707 143.728 213.514 143.728V142.546C214.13 142.374 214.581 142.088 214.867 141.687C215.161 141.285 215.329 140.723 215.372 140H213.514V136.799H216.822V139.57C216.822 140.057 216.758 140.566 216.629 141.096ZM222.58 127.528C222.236 127.987 222.072 128.599 222.086 129.365H219.229C219.257 128.592 219.39 127.858 219.626 127.163C219.877 126.554 220.271 125.992 220.808 125.477C221.209 125.111 221.685 124.832 222.236 124.639C222.788 124.445 223.465 124.349 224.267 124.349C225.756 124.349 226.956 124.735 227.865 125.509C228.782 126.275 229.24 127.306 229.24 128.603C229.24 129.519 228.968 130.293 228.424 130.923C228.08 131.317 227.722 131.585 227.35 131.729C227.629 131.729 228.03 131.968 228.553 132.448C229.333 133.172 229.724 134.16 229.724 135.413C229.724 136.731 229.265 137.891 228.349 138.894C227.439 139.889 226.089 140.387 224.299 140.387C222.093 140.387 220.561 139.667 219.701 138.228C219.25 137.461 218.999 136.459 218.949 135.22H221.957C221.957 135.843 222.057 136.358 222.258 136.767C222.63 137.519 223.307 137.895 224.288 137.895C224.89 137.895 225.412 137.69 225.856 137.282C226.308 136.867 226.533 136.272 226.533 135.499C226.533 134.475 226.118 133.791 225.287 133.447C224.814 133.254 224.07 133.157 223.053 133.157V130.966C224.048 130.951 224.743 130.855 225.137 130.676C225.817 130.375 226.157 129.766 226.157 128.85C226.157 128.255 225.982 127.772 225.631 127.399C225.287 127.027 224.8 126.841 224.17 126.841C223.447 126.841 222.917 127.07 222.58 127.528ZM242.12 134.253V136.648H240.358V140H237.361V136.648H231.195V133.974L236.921 124.521H240.358V134.253H242.12ZM233.462 134.253H237.361V127.528L233.462 134.253ZM252.551 129.43C251.734 130.59 251.05 131.786 250.499 133.018C250.062 133.984 249.668 135.166 249.317 136.562C248.966 137.959 248.791 139.105 248.791 140H245.611C245.704 137.207 246.621 134.303 248.361 131.288C249.486 129.419 250.427 128.116 251.187 127.378H243.42L243.463 124.628H254.463V127.023C254.005 127.475 253.367 128.277 252.551 129.43ZM259.49 141.096C259.361 141.626 259.121 142.084 258.771 142.471C258.391 142.886 257.943 143.198 257.428 143.405C256.919 143.62 256.568 143.728 256.375 143.728V142.546C256.991 142.374 257.442 142.088 257.729 141.687C258.022 141.285 258.19 140.723 258.233 140H256.375V136.799H259.684V139.57C259.684 140.057 259.619 140.566 259.49 141.096ZM268.879 127.593C268.514 127.156 267.991 126.938 267.311 126.938C266.38 126.938 265.746 127.285 265.409 127.979C265.216 128.381 265.101 129.018 265.065 129.892H262.09C262.14 128.567 262.38 127.496 262.81 126.68C263.626 125.126 265.076 124.349 267.16 124.349C268.807 124.349 270.118 124.807 271.092 125.724C272.066 126.633 272.553 127.84 272.553 129.344C272.553 130.497 272.209 131.521 271.521 132.416C271.07 133.01 270.329 133.673 269.298 134.403L268.073 135.273C267.307 135.818 266.781 136.212 266.494 136.455C266.215 136.699 265.979 136.981 265.785 137.304H272.585V140H261.918C261.947 138.883 262.187 137.862 262.638 136.938C263.075 135.9 264.106 134.801 265.731 133.641C267.142 132.631 268.055 131.908 268.471 131.471C269.108 130.79 269.427 130.046 269.427 129.236C269.427 128.577 269.244 128.03 268.879 127.593ZM281.802 140H278.665V129.258H275.002V127.174C275.969 127.131 276.646 127.066 277.032 126.98C277.648 126.844 278.149 126.572 278.536 126.164C278.801 125.885 279.002 125.512 279.138 125.047C279.216 124.768 279.256 124.56 279.256 124.424H281.802V140ZM289.934 127.528C289.59 127.987 289.425 128.599 289.439 129.365H286.582C286.611 128.592 286.743 127.858 286.979 127.163C287.23 126.554 287.624 125.992 288.161 125.477C288.562 125.111 289.038 124.832 289.59 124.639C290.141 124.445 290.818 124.349 291.62 124.349C293.11 124.349 294.309 124.735 295.219 125.509C296.135 126.275 296.594 127.306 296.594 128.603C296.594 129.519 296.322 130.293 295.777 130.923C295.434 131.317 295.076 131.585 294.703 131.729C294.982 131.729 295.383 131.968 295.906 132.448C296.687 133.172 297.077 134.16 297.077 135.413C297.077 136.731 296.619 137.891 295.702 138.894C294.793 139.889 293.443 140.387 291.652 140.387C289.447 140.387 287.914 139.667 287.055 138.228C286.604 137.461 286.353 136.459 286.303 135.22H289.311C289.311 135.843 289.411 136.358 289.611 136.767C289.984 137.519 290.66 137.895 291.642 137.895C292.243 137.895 292.766 137.69 293.21 137.282C293.661 136.867 293.887 136.272 293.887 135.499C293.887 134.475 293.471 133.791 292.641 133.447C292.168 133.254 291.423 133.157 290.406 133.157V130.966C291.402 130.951 292.096 130.855 292.49 130.676C293.171 130.375 293.511 129.766 293.511 128.85C293.511 128.255 293.335 127.772 292.984 127.399C292.641 127.027 292.154 126.841 291.523 126.841C290.8 126.841 290.27 127.07 289.934 127.528Z" fill="white"/>
<path d="M265.865 198.266C265.493 198.266 265.171 198.312 264.898 198.405C264.419 198.577 264.057 198.896 263.813 199.361L261.063 199.232L262.159 190.628H270.742V193.228H264.372L263.813 196.633C264.286 196.325 264.655 196.121 264.92 196.021C265.364 195.856 265.905 195.773 266.542 195.773C267.831 195.773 268.955 196.207 269.915 197.073C270.875 197.94 271.354 199.2 271.354 200.854C271.354 202.294 270.893 203.579 269.969 204.711C269.045 205.842 267.663 206.408 265.822 206.408C264.34 206.408 263.122 206.011 262.17 205.216C261.217 204.421 260.688 203.293 260.58 201.832H263.631C263.753 202.498 263.985 203.014 264.329 203.379C264.673 203.737 265.174 203.916 265.833 203.916C266.592 203.916 267.169 203.651 267.562 203.121C267.964 202.584 268.164 201.911 268.164 201.102C268.164 200.307 267.978 199.637 267.605 199.093C267.233 198.541 266.653 198.266 265.865 198.266ZM273.621 202.799H276.876V206H273.621V202.799ZM284.428 206.387C282.444 206.387 281.051 205.692 280.249 204.303C279.454 202.913 279.057 200.933 279.057 198.362C279.057 195.791 279.454 193.808 280.249 192.411C281.051 191.015 282.444 190.316 284.428 190.316C286.411 190.316 287.804 191.015 288.606 192.411C289.401 193.808 289.799 195.791 289.799 198.362C289.799 200.933 289.398 202.913 288.596 204.303C287.801 205.692 286.411 206.387 284.428 206.387ZM286.222 202.466C286.501 201.521 286.641 200.153 286.641 198.362C286.641 196.486 286.497 195.097 286.211 194.194C285.932 193.292 285.337 192.841 284.428 192.841C283.518 192.841 282.917 193.292 282.623 194.194C282.329 195.097 282.183 196.486 282.183 198.362C282.183 200.153 282.329 201.524 282.623 202.477C282.917 203.422 283.518 203.895 284.428 203.895C285.337 203.895 285.935 203.418 286.222 202.466ZM296.674 206.387C294.69 206.387 293.297 205.692 292.495 204.303C291.7 202.913 291.303 200.933 291.303 198.362C291.303 195.791 291.7 193.808 292.495 192.411C293.297 191.015 294.69 190.316 296.674 190.316C298.658 190.316 300.05 191.015 300.853 192.411C301.647 193.808 302.045 195.791 302.045 198.362C302.045 200.933 301.644 202.913 300.842 204.303C300.047 205.692 298.658 206.387 296.674 206.387ZM298.468 202.466C298.747 201.521 298.887 200.153 298.887 198.362C298.887 196.486 298.743 195.097 298.457 194.194C298.178 193.292 297.583 192.841 296.674 192.841C295.764 192.841 295.163 193.292 294.869 194.194C294.576 195.097 294.429 196.486 294.429 198.362C294.429 200.153 294.576 201.524 294.869 202.477C295.163 203.422 295.764 203.895 296.674 203.895C297.583 203.895 298.181 203.418 298.468 202.466ZM313.808 202.315C313.808 201.205 314.198 200.26 314.979 199.479C315.759 198.706 316.701 198.319 317.804 198.319C318.907 198.319 319.848 198.71 320.629 199.49C321.41 200.271 321.8 201.213 321.8 202.315C321.8 203.418 321.41 204.36 320.629 205.141C319.848 205.921 318.907 206.312 317.804 206.312C316.701 206.312 315.759 205.921 314.979 205.141C314.198 204.36 313.808 203.418 313.808 202.315ZM304.537 197.32C303.757 196.54 303.366 195.598 303.366 194.495C303.366 193.392 303.757 192.451 304.537 191.67C305.318 190.889 306.259 190.499 307.362 190.499C308.465 190.499 309.407 190.889 310.188 191.67C310.968 192.451 311.358 193.392 311.358 194.495C311.358 195.598 310.968 196.54 310.188 197.32C309.414 198.101 308.472 198.491 307.362 198.491C306.259 198.491 305.318 198.101 304.537 197.32ZM309.049 206.408H307.384L316.096 190.424H317.729L309.049 206.408ZM316.601 203.519C316.93 203.855 317.331 204.023 317.804 204.023C318.276 204.023 318.677 203.859 319.007 203.529C319.343 203.193 319.512 202.788 319.512 202.315C319.512 201.843 319.343 201.442 319.007 201.112C318.677 200.776 318.276 200.607 317.804 200.607C317.331 200.607 316.926 200.776 316.59 201.112C316.26 201.442 316.096 201.843 316.096 202.315C316.096 202.788 316.264 203.189 316.601 203.519ZM306.159 195.698C306.489 196.035 306.89 196.203 307.362 196.203C307.835 196.203 308.236 196.038 308.565 195.709C308.902 195.372 309.07 194.968 309.07 194.495C309.07 194.022 308.902 193.621 308.565 193.292C308.236 192.955 307.835 192.787 307.362 192.787C306.89 192.787 306.485 192.955 306.148 193.292C305.819 193.621 305.654 194.022 305.654 194.495C305.654 194.968 305.823 195.369 306.159 195.698Z" fill="white"/>
<g clip-path="url(#clip0_73_194)">
<path d="M313 122C317.97 122 322 126.03 322 131C322 135.97 317.97 140 313 140C308.03 140 304 135.971 304 131C304 126.029 308.029 122 313 122Z" fill="#53AE94"/>
<path d="M314.111 129.801V128.462H317.172V126.422H308.835V128.462H311.897V129.8C309.409 129.914 307.538 130.407 307.538 130.997C307.538 131.588 309.41 132.081 311.897 132.196V136.484H314.111V132.195C316.595 132.081 318.463 131.588 318.463 130.998C318.463 130.408 316.595 129.916 314.111 129.801M314.111 131.832V131.831C314.049 131.835 313.728 131.854 313.013 131.854C312.442 131.854 312.04 131.838 311.899 131.831V131.832C309.7 131.735 308.059 131.352 308.059 130.894C308.059 130.436 309.7 130.054 311.899 129.956V131.451C312.043 131.461 312.454 131.485 313.023 131.485C313.706 131.485 314.049 131.457 314.112 131.451V129.956C316.306 130.054 317.943 130.437 317.943 130.893C317.943 131.35 316.305 131.733 314.112 131.831" fill="white"/>
</g>
<path d="M46.27 113L51.364 100.04H52.75L57.718 113H56.458L54.964 108.932H49.06L47.53 113H46.27ZM49.474 107.888H54.55L52.012 101.084L49.474 107.888ZM59.4099 113V100.04H64.1439C64.9839 100.04 65.6739 100.136 66.2139 100.328C66.7659 100.52 67.1979 100.784 67.5099 101.12C67.8339 101.456 68.0559 101.846 68.1759 102.29C68.3079 102.722 68.3739 103.178 68.3739 103.658C68.3739 104.378 68.2239 104.972 67.9239 105.44C67.6359 105.908 67.2579 106.28 66.7899 106.556C66.3219 106.82 65.7879 107.006 65.1879 107.114C64.5999 107.222 64.0059 107.276 63.4059 107.276H60.6339V113H59.4099ZM63.4419 106.232C64.0179 106.232 64.5339 106.196 64.9899 106.124C65.4459 106.052 65.8299 105.92 66.1419 105.728C66.4659 105.524 66.7119 105.254 66.8799 104.918C67.0599 104.57 67.1499 104.12 67.1499 103.568C67.1499 102.752 66.8799 102.134 66.3399 101.714C65.8119 101.294 64.9659 101.084 63.8019 101.084H60.6339V106.232H63.4419ZM74.4458 106.286L78.3518 100.04H79.7738L75.0758 107.348V113H73.8518V107.438L69.2258 100.04H70.6298L74.4458 106.286Z" fill="#DFF26A"/>
<path d="M48.458 179V166.04H49.682V177.956H56.63V179H48.458ZM57.956 172.538C57.956 171.59 58.082 170.702 58.334 169.874C58.598 169.046 58.982 168.326 59.486 167.714C59.99 167.09 60.614 166.598 61.358 166.238C62.102 165.878 62.96 165.698 63.932 165.698C64.94 165.698 65.822 165.878 66.578 166.238C67.346 166.586 67.982 167.072 68.486 167.696C69.002 168.308 69.386 169.034 69.638 169.874C69.902 170.702 70.034 171.59 70.034 172.538C70.034 173.474 69.902 174.356 69.638 175.184C69.386 176 69.008 176.72 68.504 177.344C68 177.956 67.37 178.442 66.614 178.802C65.858 179.162 64.982 179.342 63.986 179.342C62.99 179.342 62.114 179.162 61.358 178.802C60.602 178.442 59.972 177.956 59.468 177.344C58.964 176.72 58.586 176 58.334 175.184C58.082 174.356 57.956 173.474 57.956 172.538ZM64.004 178.298C64.844 178.298 65.564 178.142 66.164 177.83C66.776 177.506 67.274 177.08 67.658 176.552C68.054 176.024 68.342 175.412 68.522 174.716C68.714 174.02 68.81 173.294 68.81 172.538C68.81 171.638 68.696 170.834 68.468 170.126C68.252 169.406 67.934 168.794 67.514 168.29C67.094 167.786 66.584 167.402 65.984 167.138C65.384 166.874 64.712 166.742 63.968 166.742C63.14 166.742 62.42 166.904 61.808 167.228C61.208 167.552 60.71 167.984 60.314 168.524C59.93 169.052 59.642 169.664 59.45 170.36C59.27 171.056 59.18 171.782 59.18 172.538C59.18 173.306 59.27 174.038 59.45 174.734C59.642 175.43 59.93 176.042 60.314 176.57C60.71 177.098 61.208 177.518 61.808 177.83C62.42 178.142 63.152 178.298 64.004 178.298ZM81.6677 169.802C81.4157 168.698 80.9477 167.912 80.2637 167.444C79.5797 166.976 78.6857 166.742 77.5817 166.742C76.8017 166.742 76.1297 166.898 75.5657 167.21C75.0017 167.522 74.5337 167.942 74.1617 168.47C73.8017 168.998 73.5317 169.61 73.3517 170.306C73.1837 170.99 73.0997 171.716 73.0997 172.484C73.0997 173.204 73.1717 173.912 73.3157 174.608C73.4717 175.304 73.7237 175.928 74.0717 176.48C74.4197 177.02 74.8877 177.458 75.4757 177.794C76.0637 178.13 76.8017 178.298 77.6897 178.298C78.2417 178.298 78.7457 178.208 79.2017 178.028C79.6577 177.848 80.0537 177.602 80.3897 177.29C80.7377 176.966 81.0257 176.588 81.2537 176.156C81.4937 175.724 81.6737 175.25 81.7937 174.734H83.0717C82.9277 175.358 82.7177 175.952 82.4417 176.516C82.1657 177.068 81.7997 177.554 81.3437 177.974C80.8997 178.394 80.3537 178.73 79.7057 178.982C79.0697 179.222 78.3197 179.342 77.4557 179.342C76.4597 179.342 75.6077 179.162 74.8997 178.802C74.1917 178.43 73.6097 177.932 73.1537 177.308C72.7097 176.684 72.3857 175.964 72.1817 175.148C71.9777 174.32 71.8757 173.444 71.8757 172.52C71.8757 171.284 72.0257 170.234 72.3257 169.37C72.6377 168.506 73.0637 167.804 73.6037 167.264C74.1437 166.712 74.7797 166.316 75.5117 166.076C76.2437 165.824 77.0417 165.698 77.9057 165.698C78.5657 165.698 79.1777 165.788 79.7417 165.968C80.3177 166.136 80.8217 166.394 81.2537 166.742C81.6977 167.09 82.0577 167.522 82.3337 168.038C82.6217 168.542 82.8197 169.13 82.9277 169.802H81.6677ZM85.532 179V166.04H86.756V172.754L93.398 166.04H94.784L89.672 171.206L95.684 179H94.19L88.79 171.962L86.756 173.996V179H85.532ZM102.422 179V166.04H107.156C107.996 166.04 108.686 166.136 109.226 166.328C109.778 166.52 110.21 166.784 110.522 167.12C110.846 167.456 111.068 167.846 111.188 168.29C111.32 168.722 111.386 169.178 111.386 169.658C111.386 170.378 111.236 170.972 110.936 171.44C110.648 171.908 110.27 172.28 109.802 172.556C109.334 172.82 108.8 173.006 108.2 173.114C107.612 173.222 107.018 173.276 106.418 173.276H103.646V179H102.422ZM106.454 172.232C107.03 172.232 107.546 172.196 108.002 172.124C108.458 172.052 108.842 171.92 109.154 171.728C109.478 171.524 109.724 171.254 109.892 170.918C110.072 170.57 110.162 170.12 110.162 169.568C110.162 168.752 109.892 168.134 109.352 167.714C108.824 167.294 107.978 167.084 106.814 167.084H103.646V172.232H106.454ZM113.479 179V166.04H122.101V167.084H114.703V171.764H121.381V172.808H114.703V177.956H122.281V179H113.479ZM129.505 172.07C129.961 172.07 130.381 172.022 130.765 171.926C131.161 171.83 131.503 171.68 131.791 171.476C132.079 171.26 132.307 170.99 132.475 170.666C132.643 170.342 132.727 169.952 132.727 169.496C132.727 169.016 132.637 168.62 132.457 168.308C132.289 167.996 132.055 167.75 131.755 167.57C131.467 167.39 131.131 167.264 130.747 167.192C130.375 167.12 129.985 167.084 129.577 167.084H125.689V172.07H129.505ZM125.689 173.114V179H124.465V166.04H129.541C130.969 166.04 132.061 166.31 132.817 166.85C133.573 167.378 133.951 168.242 133.951 169.442C133.951 170.258 133.783 170.906 133.447 171.386C133.123 171.866 132.589 172.274 131.845 172.61C132.229 172.742 132.529 172.934 132.745 173.186C132.961 173.438 133.123 173.726 133.231 174.05C133.339 174.374 133.405 174.716 133.429 175.076C133.465 175.436 133.489 175.784 133.501 176.12C133.513 176.612 133.531 177.02 133.555 177.344C133.591 177.668 133.627 177.932 133.663 178.136C133.711 178.34 133.765 178.502 133.825 178.622C133.885 178.73 133.957 178.814 134.041 178.874V179H132.691C132.559 178.784 132.463 178.484 132.403 178.1C132.355 177.716 132.313 177.314 132.277 176.894C132.253 176.474 132.229 176.066 132.205 175.67C132.193 175.274 132.163 174.95 132.115 174.698C132.043 174.35 131.923 174.074 131.755 173.87C131.599 173.654 131.407 173.492 131.179 173.384C130.951 173.276 130.693 173.204 130.405 173.168C130.129 173.132 129.841 173.114 129.541 173.114H125.689ZM136.921 179V166.04H138.145V179H136.921ZM140.995 172.538C140.995 171.59 141.121 170.702 141.373 169.874C141.637 169.046 142.021 168.326 142.525 167.714C143.029 167.09 143.653 166.598 144.397 166.238C145.141 165.878 145.999 165.698 146.971 165.698C147.979 165.698 148.861 165.878 149.617 166.238C150.385 166.586 151.021 167.072 151.525 167.696C152.041 168.308 152.425 169.034 152.677 169.874C152.941 170.702 153.073 171.59 153.073 172.538C153.073 173.474 152.941 174.356 152.677 175.184C152.425 176 152.047 176.72 151.543 177.344C151.039 177.956 150.409 178.442 149.653 178.802C148.897 179.162 148.021 179.342 147.025 179.342C146.029 179.342 145.153 179.162 144.397 178.802C143.641 178.442 143.011 177.956 142.507 177.344C142.003 176.72 141.625 176 141.373 175.184C141.121 174.356 140.995 173.474 140.995 172.538ZM147.043 178.298C147.883 178.298 148.603 178.142 149.203 177.83C149.815 177.506 150.313 177.08 150.697 176.552C151.093 176.024 151.381 175.412 151.561 174.716C151.753 174.02 151.849 173.294 151.849 172.538C151.849 171.638 151.735 170.834 151.507 170.126C151.291 169.406 150.973 168.794 150.553 168.29C150.133 167.786 149.623 167.402 149.023 167.138C148.423 166.874 147.751 166.742 147.007 166.742C146.179 166.742 145.459 166.904 144.847 167.228C144.247 167.552 143.749 167.984 143.353 168.524C142.969 169.052 142.681 169.664 142.489 170.36C142.309 171.056 142.219 171.782 142.219 172.538C142.219 173.306 142.309 174.038 142.489 174.734C142.681 175.43 142.969 176.042 143.353 176.57C143.749 177.098 144.247 177.518 144.847 177.83C145.459 178.142 146.191 178.298 147.043 178.298ZM155.509 179V166.04H159.937C160.297 166.04 160.651 166.052 160.999 166.076C161.347 166.088 161.689 166.13 162.025 166.202C162.361 166.262 162.685 166.358 162.997 166.49C163.321 166.622 163.633 166.796 163.933 167.012C164.365 167.324 164.719 167.708 164.995 168.164C165.271 168.608 165.487 169.082 165.643 169.586C165.811 170.078 165.925 170.582 165.985 171.098C166.057 171.602 166.093 172.07 166.093 172.502C166.093 172.934 166.063 173.372 166.003 173.816C165.955 174.26 165.871 174.698 165.751 175.13C165.631 175.55 165.469 175.958 165.265 176.354C165.073 176.738 164.827 177.092 164.527 177.416C164.227 177.752 163.897 178.022 163.537 178.226C163.189 178.43 162.817 178.592 162.421 178.712C162.037 178.82 161.635 178.898 161.215 178.946C160.795 178.982 160.369 179 159.937 179H155.509ZM156.733 177.956H159.667C160.219 177.956 160.735 177.926 161.215 177.866C161.707 177.794 162.205 177.626 162.709 177.362C163.141 177.146 163.495 176.852 163.771 176.48C164.047 176.108 164.263 175.706 164.419 175.274C164.587 174.83 164.701 174.368 164.761 173.888C164.833 173.408 164.869 172.946 164.869 172.502C164.869 172.034 164.839 171.56 164.779 171.08C164.719 170.588 164.605 170.126 164.437 169.694C164.269 169.25 164.041 168.848 163.753 168.488C163.465 168.116 163.093 167.81 162.637 167.57C162.253 167.366 161.797 167.234 161.269 167.174C160.741 167.114 160.207 167.084 159.667 167.084H156.733V177.956Z" fill="#DFF26A"/>
<path d="M290.288 99.04H299.72V100.084H295.616V112H294.392V100.084H290.288V99.04ZM300.326 99.04H301.604L305.51 110.56L309.398 99.04H310.676L306.176 112H304.826L300.326 99.04ZM312.464 112V99.04H313.688V110.956H320.636V112H312.464Z" fill="#DFF26A"/>
<path d="M216.656 168.802C216.404 167.698 215.936 166.912 215.252 166.444C214.568 165.976 213.674 165.742 212.57 165.742C211.79 165.742 211.118 165.898 210.554 166.21C209.99 166.522 209.522 166.942 209.15 167.47C208.79 167.998 208.52 168.61 208.34 169.306C208.172 169.99 208.088 170.716 208.088 171.484C208.088 172.204 208.16 172.912 208.304 173.608C208.46 174.304 208.712 174.928 209.06 175.48C209.408 176.02 209.876 176.458 210.464 176.794C211.052 177.13 211.79 177.298 212.678 177.298C213.23 177.298 213.734 177.208 214.19 177.028C214.646 176.848 215.042 176.602 215.378 176.29C215.726 175.966 216.014 175.588 216.242 175.156C216.482 174.724 216.662 174.25 216.782 173.734H218.06C217.916 174.358 217.706 174.952 217.43 175.516C217.154 176.068 216.788 176.554 216.332 176.974C215.888 177.394 215.342 177.73 214.694 177.982C214.058 178.222 213.308 178.342 212.444 178.342C211.448 178.342 210.596 178.162 209.888 177.802C209.18 177.43 208.598 176.932 208.142 176.308C207.698 175.684 207.374 174.964 207.17 174.148C206.966 173.32 206.864 172.444 206.864 171.52C206.864 170.284 207.014 169.234 207.314 168.37C207.626 167.506 208.052 166.804 208.592 166.264C209.132 165.712 209.768 165.316 210.5 165.076C211.232 164.824 212.03 164.698 212.894 164.698C213.554 164.698 214.166 164.788 214.73 164.968C215.306 165.136 215.81 165.394 216.242 165.742C216.686 166.09 217.046 166.522 217.322 167.038C217.61 167.542 217.808 168.13 217.916 168.802H216.656ZM219.944 171.538C219.944 170.59 220.07 169.702 220.322 168.874C220.586 168.046 220.97 167.326 221.474 166.714C221.978 166.09 222.602 165.598 223.346 165.238C224.09 164.878 224.948 164.698 225.92 164.698C226.928 164.698 227.81 164.878 228.566 165.238C229.334 165.586 229.97 166.072 230.474 166.696C230.99 167.308 231.374 168.034 231.626 168.874C231.89 169.702 232.022 170.59 232.022 171.538C232.022 172.474 231.89 173.356 231.626 174.184C231.374 175 230.996 175.72 230.492 176.344C229.988 176.956 229.358 177.442 228.602 177.802C227.846 178.162 226.97 178.342 225.974 178.342C224.978 178.342 224.102 178.162 223.346 177.802C222.59 177.442 221.96 176.956 221.456 176.344C220.952 175.72 220.574 175 220.322 174.184C220.07 173.356 219.944 172.474 219.944 171.538ZM225.992 177.298C226.832 177.298 227.552 177.142 228.152 176.83C228.764 176.506 229.262 176.08 229.646 175.552C230.042 175.024 230.33 174.412 230.51 173.716C230.702 173.02 230.798 172.294 230.798 171.538C230.798 170.638 230.684 169.834 230.456 169.126C230.24 168.406 229.922 167.794 229.502 167.29C229.082 166.786 228.572 166.402 227.972 166.138C227.372 165.874 226.7 165.742 225.956 165.742C225.128 165.742 224.408 165.904 223.796 166.228C223.196 166.552 222.698 166.984 222.302 167.524C221.918 168.052 221.63 168.664 221.438 169.36C221.258 170.056 221.168 170.782 221.168 171.538C221.168 172.306 221.258 173.038 221.438 173.734C221.63 174.43 221.918 175.042 222.302 175.57C222.698 176.098 223.196 176.518 223.796 176.83C224.408 177.142 225.14 177.298 225.992 177.298ZM234.404 178V165.04H236.276L240.524 176.47H240.56L244.736 165.04H246.59V178H245.366V166.444H245.33L241.082 178H239.93L235.664 166.444H235.628V178H234.404ZM249.398 178V165.04H251.27L255.518 176.47H255.554L259.73 165.04H261.584V178H260.36V166.444H260.324L256.076 178H254.924L250.658 166.444H250.622V178H249.398ZM264.878 178V165.04H266.102V178H264.878ZM269.96 174.13C270.008 174.706 270.134 175.198 270.338 175.606C270.554 176.002 270.824 176.326 271.148 176.578C271.484 176.83 271.868 177.016 272.3 177.136C272.732 177.244 273.194 177.298 273.686 177.298C274.262 177.298 274.76 177.226 275.18 177.082C275.6 176.938 275.942 176.746 276.206 176.506C276.47 176.254 276.662 175.966 276.782 175.642C276.914 175.318 276.98 174.976 276.98 174.616C276.98 174.112 276.866 173.704 276.638 173.392C276.41 173.08 276.11 172.828 275.738 172.636C275.378 172.432 274.958 172.27 274.478 172.15C274.01 172.03 273.524 171.916 273.02 171.808C272.528 171.688 272.042 171.55 271.562 171.394C271.094 171.238 270.674 171.028 270.302 170.764C269.942 170.5 269.648 170.164 269.42 169.756C269.192 169.336 269.078 168.808 269.078 168.172C269.078 167.728 269.168 167.296 269.348 166.876C269.54 166.456 269.816 166.084 270.176 165.76C270.548 165.436 271.01 165.178 271.562 164.986C272.114 164.794 272.75 164.698 273.47 164.698C274.202 164.698 274.838 164.8 275.378 165.004C275.93 165.208 276.386 165.49 276.746 165.85C277.106 166.198 277.376 166.606 277.556 167.074C277.736 167.542 277.826 168.04 277.826 168.568H276.656C276.656 168.076 276.566 167.65 276.386 167.29C276.218 166.93 275.984 166.636 275.684 166.408C275.384 166.18 275.042 166.012 274.658 165.904C274.274 165.796 273.878 165.742 273.47 165.742C272.846 165.742 272.318 165.832 271.886 166.012C271.466 166.18 271.13 166.402 270.878 166.678C270.626 166.954 270.452 167.26 270.356 167.596C270.26 167.932 270.242 168.268 270.302 168.604C270.374 169.024 270.542 169.36 270.806 169.612C271.07 169.864 271.394 170.074 271.778 170.242C272.162 170.398 272.582 170.53 273.038 170.638C273.506 170.734 273.98 170.842 274.46 170.962C274.94 171.07 275.402 171.202 275.846 171.358C276.302 171.514 276.704 171.724 277.052 171.988C277.4 172.252 277.676 172.594 277.88 173.014C278.096 173.422 278.204 173.938 278.204 174.562C278.204 175.762 277.79 176.692 276.962 177.352C276.134 178.012 274.97 178.342 273.47 178.342C272.798 178.342 272.174 178.252 271.598 178.072C271.022 177.904 270.524 177.646 270.104 177.298C269.684 176.938 269.354 176.5 269.114 175.984C268.886 175.456 268.772 174.838 268.772 174.13H269.96ZM280.964 174.13C281.012 174.706 281.138 175.198 281.342 175.606C281.558 176.002 281.828 176.326 282.152 176.578C282.488 176.83 282.872 177.016 283.304 177.136C283.736 177.244 284.198 177.298 284.69 177.298C285.266 177.298 285.764 177.226 286.184 177.082C286.604 176.938 286.946 176.746 287.21 176.506C287.474 176.254 287.666 175.966 287.786 175.642C287.918 175.318 287.984 174.976 287.984 174.616C287.984 174.112 287.87 173.704 287.642 173.392C287.414 173.08 287.114 172.828 286.742 172.636C286.382 172.432 285.962 172.27 285.482 172.15C285.014 172.03 284.528 171.916 284.024 171.808C283.532 171.688 283.046 171.55 282.566 171.394C282.098 171.238 281.678 171.028 281.306 170.764C280.946 170.5 280.652 170.164 280.424 169.756C280.196 169.336 280.082 168.808 280.082 168.172C280.082 167.728 280.172 167.296 280.352 166.876C280.544 166.456 280.82 166.084 281.18 165.76C281.552 165.436 282.014 165.178 282.566 164.986C283.118 164.794 283.754 164.698 284.474 164.698C285.206 164.698 285.842 164.8 286.382 165.004C286.934 165.208 287.39 165.49 287.75 165.85C288.11 166.198 288.38 166.606 288.56 167.074C288.74 167.542 288.83 168.04 288.83 168.568H287.66C287.66 168.076 287.57 167.65 287.39 167.29C287.222 166.93 286.988 166.636 286.688 166.408C286.388 166.18 286.046 166.012 285.662 165.904C285.278 165.796 284.882 165.742 284.474 165.742C283.85 165.742 283.322 165.832 282.89 166.012C282.47 166.18 282.134 166.402 281.882 166.678C281.63 166.954 281.456 167.26 281.36 167.596C281.264 167.932 281.246 168.268 281.306 168.604C281.378 169.024 281.546 169.36 281.81 169.612C282.074 169.864 282.398 170.074 282.782 170.242C283.166 170.398 283.586 170.53 284.042 170.638C284.51 170.734 284.984 170.842 285.464 170.962C285.944 171.07 286.406 171.202 286.85 171.358C287.306 171.514 287.708 171.724 288.056 171.988C288.404 172.252 288.68 172.594 288.884 173.014C289.1 173.422 289.208 173.938 289.208 174.562C289.208 175.762 288.794 176.692 287.966 177.352C287.138 178.012 285.974 178.342 284.474 178.342C283.802 178.342 283.178 178.252 282.602 178.072C282.026 177.904 281.528 177.646 281.108 177.298C280.688 176.938 280.358 176.5 280.118 175.984C279.89 175.456 279.776 174.838 279.776 174.13H280.964ZM291.896 178V165.04H293.12V178H291.896ZM295.97 171.538C295.97 170.59 296.096 169.702 296.348 168.874C296.612 168.046 296.996 167.326 297.5 166.714C298.004 166.09 298.628 165.598 299.372 165.238C300.116 164.878 300.974 164.698 301.946 164.698C302.954 164.698 303.836 164.878 304.592 165.238C305.36 165.586 305.996 166.072 306.5 166.696C307.016 167.308 307.4 168.034 307.652 168.874C307.916 169.702 308.048 170.59 308.048 171.538C308.048 172.474 307.916 173.356 307.652 174.184C307.4 175 307.022 175.72 306.518 176.344C306.014 176.956 305.384 177.442 304.628 177.802C303.872 178.162 302.996 178.342 302 178.342C301.004 178.342 300.128 178.162 299.372 177.802C298.616 177.442 297.986 176.956 297.482 176.344C296.978 175.72 296.6 175 296.348 174.184C296.096 173.356 295.97 172.474 295.97 171.538ZM302.018 177.298C302.858 177.298 303.578 177.142 304.178 176.83C304.79 176.506 305.288 176.08 305.672 175.552C306.068 175.024 306.356 174.412 306.536 173.716C306.728 173.02 306.824 172.294 306.824 171.538C306.824 170.638 306.71 169.834 306.482 169.126C306.266 168.406 305.948 167.794 305.528 167.29C305.108 166.786 304.598 166.402 303.998 166.138C303.398 165.874 302.726 165.742 301.982 165.742C301.154 165.742 300.434 165.904 299.822 166.228C299.222 166.552 298.724 166.984 298.328 167.524C297.944 168.052 297.656 168.664 297.464 169.36C297.284 170.056 297.194 170.782 297.194 171.538C297.194 172.306 297.284 173.038 297.464 173.734C297.656 174.43 297.944 175.042 298.328 175.57C298.724 176.098 299.222 176.518 299.822 176.83C300.434 177.142 301.166 177.298 302.018 177.298ZM311.707 166.696H311.671V178H310.447V165.04H311.833L319.321 176.362H319.357V165.04H320.581V178H319.159L311.707 166.696Z" fill="#DFF26A"/>
<line x1="46" y1="80.5" x2="322" y2="80.5" stroke="white" stroke-opacity="0.4"/>
<rect x="231" y="40" width="90" height="25" rx="12.5" fill="#DFF26A"/>
<path d="M250.298 57H248.302V50.1641H245.971V48.8379C246.586 48.8105 247.017 48.7695 247.263 48.7148C247.655 48.6283 247.974 48.4551 248.22 48.1953C248.388 48.0176 248.516 47.7806 248.603 47.4844C248.653 47.3066 248.678 47.1745 248.678 47.0879H250.298V57ZM253.668 54.9629H255.739V57H253.668V54.9629ZM260.545 57.2461C259.283 57.2461 258.396 56.804 257.886 55.9199C257.38 55.0358 257.127 53.7757 257.127 52.1396C257.127 50.5036 257.38 49.2412 257.886 48.3525C258.396 47.4639 259.283 47.0195 260.545 47.0195C261.807 47.0195 262.694 47.4639 263.204 48.3525C263.71 49.2412 263.963 50.5036 263.963 52.1396C263.963 53.7757 263.708 55.0358 263.197 55.9199C262.691 56.804 261.807 57.2461 260.545 57.2461ZM261.687 54.751C261.864 54.1494 261.953 53.279 261.953 52.1396C261.953 50.9456 261.862 50.0615 261.68 49.4873C261.502 48.9131 261.124 48.626 260.545 48.626C259.966 48.626 259.583 48.9131 259.396 49.4873C259.21 50.0615 259.116 50.9456 259.116 52.1396C259.116 53.279 259.21 54.1517 259.396 54.7578C259.583 55.3594 259.966 55.6602 260.545 55.6602C261.124 55.6602 261.504 55.3571 261.687 54.751ZM268.338 57.2461C267.076 57.2461 266.189 56.804 265.679 55.9199C265.173 55.0358 264.92 53.7757 264.92 52.1396C264.92 50.5036 265.173 49.2412 265.679 48.3525C266.189 47.4639 267.076 47.0195 268.338 47.0195C269.6 47.0195 270.487 47.4639 270.997 48.3525C271.503 49.2412 271.756 50.5036 271.756 52.1396C271.756 53.7757 271.501 55.0358 270.99 55.9199C270.484 56.804 269.6 57.2461 268.338 57.2461ZM269.479 54.751C269.657 54.1494 269.746 53.279 269.746 52.1396C269.746 50.9456 269.655 50.0615 269.473 49.4873C269.295 48.9131 268.917 48.626 268.338 48.626C267.759 48.626 267.376 48.9131 267.189 49.4873C267.003 50.0615 266.909 50.9456 266.909 52.1396C266.909 53.279 267.003 54.1517 267.189 54.7578C267.376 55.3594 267.759 55.6602 268.338 55.6602C268.917 55.6602 269.297 55.3571 269.479 54.751ZM279.241 54.6553C279.241 53.9489 279.49 53.3473 279.986 52.8506C280.483 52.3584 281.082 52.1123 281.784 52.1123C282.486 52.1123 283.085 52.3607 283.582 52.8574C284.079 53.3542 284.327 53.9535 284.327 54.6553C284.327 55.3571 284.079 55.9564 283.582 56.4531C283.085 56.9499 282.486 57.1982 281.784 57.1982C281.082 57.1982 280.483 56.9499 279.986 56.4531C279.49 55.9564 279.241 55.3571 279.241 54.6553ZM273.342 51.4766C272.845 50.9798 272.597 50.3805 272.597 49.6787C272.597 48.9769 272.845 48.3776 273.342 47.8809C273.839 47.3841 274.438 47.1357 275.14 47.1357C275.841 47.1357 276.441 47.3841 276.938 47.8809C277.434 48.3776 277.683 48.9769 277.683 49.6787C277.683 50.3805 277.434 50.9798 276.938 51.4766C276.445 51.9733 275.846 52.2217 275.14 52.2217C274.438 52.2217 273.839 51.9733 273.342 51.4766ZM276.213 57.2598H275.153L280.697 47.0879H281.736L276.213 57.2598ZM281.019 55.4209C281.228 55.6351 281.483 55.7422 281.784 55.7422C282.085 55.7422 282.34 55.6374 282.55 55.4277C282.764 55.2135 282.871 54.9561 282.871 54.6553C282.871 54.3545 282.764 54.0993 282.55 53.8896C282.34 53.6755 282.085 53.5684 281.784 53.5684C281.483 53.5684 281.226 53.6755 281.012 53.8896C280.802 54.0993 280.697 54.3545 280.697 54.6553C280.697 54.9561 280.804 55.2113 281.019 55.4209ZM274.374 50.4443C274.584 50.6585 274.839 50.7656 275.14 50.7656C275.44 50.7656 275.696 50.6608 275.905 50.4512C276.119 50.237 276.227 49.9795 276.227 49.6787C276.227 49.3779 276.119 49.1227 275.905 48.9131C275.696 48.6989 275.44 48.5918 275.14 48.5918C274.839 48.5918 274.581 48.6989 274.367 48.9131C274.158 49.1227 274.053 49.3779 274.053 49.6787C274.053 49.9795 274.16 50.2347 274.374 50.4443Z" fill="#1C1C1C"/>
<path d="M290.017 49.1099H290.833L288.33 57H287.514L290.017 49.1099ZM291.896 54.1909C291.896 54.8068 292.027 55.3224 292.289 55.7378C292.55 56.1532 292.969 56.3608 293.545 56.3608C293.993 56.3608 294.36 56.1693 294.646 55.7861C294.937 55.3994 295.082 54.8462 295.082 54.1265C295.082 53.3996 294.933 52.8625 294.636 52.5151C294.339 52.1642 293.972 51.9888 293.535 51.9888C293.048 51.9888 292.652 52.175 292.348 52.5474C292.047 52.9198 291.896 53.4676 291.896 54.1909ZM293.352 51.1455C293.792 51.1455 294.161 51.2386 294.458 51.4248C294.63 51.5322 294.826 51.7202 295.044 51.9888V49.083H295.973V57H295.103V56.1997C294.877 56.5542 294.611 56.8102 294.303 56.9678C293.995 57.1253 293.642 57.2041 293.245 57.2041C292.604 57.2041 292.049 56.9355 291.58 56.3984C291.111 55.8577 290.876 55.1398 290.876 54.2446C290.876 53.4067 291.089 52.6816 291.515 52.0693C291.945 51.4535 292.557 51.1455 293.352 51.1455ZM298.148 55.4692C298.148 55.7485 298.25 55.9688 298.455 56.1299C298.659 56.291 298.9 56.3716 299.18 56.3716C299.52 56.3716 299.849 56.2928 300.168 56.1353C300.705 55.8739 300.974 55.446 300.974 54.8516V54.0728C300.855 54.1479 300.703 54.2106 300.517 54.2607C300.331 54.3109 300.148 54.3467 299.969 54.3682L299.384 54.4434C299.033 54.4899 298.77 54.5633 298.594 54.6636C298.297 54.8319 298.148 55.1004 298.148 55.4692ZM300.49 53.5142C300.712 53.4855 300.861 53.3924 300.936 53.2349C300.979 53.1489 301 53.0254 301 52.8643C301 52.5348 300.882 52.2967 300.646 52.1499C300.413 51.9995 300.078 51.9243 299.642 51.9243C299.137 51.9243 298.779 52.0604 298.567 52.3325C298.449 52.4829 298.372 52.7067 298.336 53.0039H297.434C297.452 52.2949 297.681 51.8026 298.122 51.5269C298.566 51.2476 299.079 51.1079 299.663 51.1079C300.34 51.1079 300.889 51.2368 301.312 51.4946C301.731 51.7524 301.94 52.1535 301.94 52.6978V56.0117C301.94 56.112 301.96 56.1925 302 56.2534C302.042 56.3143 302.13 56.3447 302.263 56.3447C302.306 56.3447 302.354 56.3429 302.408 56.3394C302.461 56.3322 302.519 56.3232 302.58 56.3125V57.0269C302.429 57.0698 302.315 57.0967 302.236 57.1074C302.157 57.1182 302.05 57.1235 301.914 57.1235C301.581 57.1235 301.339 57.0054 301.188 56.769C301.11 56.6437 301.054 56.4665 301.022 56.2373C300.825 56.4951 300.542 56.7189 300.173 56.9087C299.805 57.0985 299.398 57.1934 298.954 57.1934C298.421 57.1934 297.984 57.0322 297.644 56.71C297.307 56.3841 297.139 55.9777 297.139 55.4907C297.139 54.9572 297.305 54.5436 297.638 54.25C297.971 53.9564 298.408 53.7756 298.949 53.7075L300.49 53.5142ZM307.124 51.2476H308.192C308.056 51.6164 307.754 52.4578 307.285 53.772C306.934 54.7603 306.64 55.5659 306.404 56.189C305.845 57.6571 305.451 58.5522 305.222 58.8745C304.993 59.1968 304.599 59.3579 304.041 59.3579C303.904 59.3579 303.799 59.3525 303.724 59.3418C303.652 59.3311 303.562 59.3114 303.455 59.2827V58.4019C303.623 58.4484 303.745 58.4771 303.82 58.4878C303.896 58.4985 303.962 58.5039 304.019 58.5039C304.198 58.5039 304.329 58.4735 304.411 58.4126C304.497 58.3553 304.569 58.2837 304.626 58.1978C304.644 58.1691 304.708 58.0223 304.819 57.7573C304.93 57.4924 305.011 57.2954 305.061 57.1665L302.934 51.2476H304.03L305.571 55.9312L307.124 51.2476Z" fill="#1C1C1C" fill-opacity="0.7"/>
</g>
<defs>
<filter id="filter0_d_73_194" x="0" y="0" width="369" height="334" filterUnits="userSpaceOnUse" color-interpolation-filters="sRGB">
<feFlood flood-opacity="0" result="BackgroundImageFix"/>
<feColorMatrix in="SourceAlpha" type="matrix" values="0 0 0 0 0 0 0 0 0 0 0 0 0 0 0 0 0 0 127 0" result="hardAlpha"/>
<feOffset dy="4"/>
<feGaussianBlur stdDeviation="2"/>
<feComposite in2="hardAlpha" operator="out"/>
<feColorMatrix type="matrix" values="0 0 0 0 0 0 0 0 0 0 0 0 0 0 0 0 0 0 0.25 0"/>
<feBlend mode="normal" in2="BackgroundImageFix" result="effect1_dropShadow_73_194"/>
<feBlend mode="normal" in="SourceGraphic" in2="effect1_dropShadow_73_194" result="shape"/>
</filter>
<clipPath id="clip0_73_194">
<rect width="18" height="18" fill="white" transform="translate(304 122)"/>
</clipPath>
</defs>
</svg>
