<svg width="4" height="13" viewBox="0 0 4 13" fill="none" xmlns="http://www.w3.org/2000/svg">
<path d="M3.72062 4.64675L0.714998 5.02344L0.607373 5.52219L1.198 5.63112C1.58387 5.723 1.66 5.86213 1.576 6.24669L0.607373 10.7984C0.352748 11.9757 0.745186 12.5296 1.66787 12.5296C2.38319 12.5296 3.214 12.1989 3.59069 11.7448L3.70619 11.1987C3.44369 11.4297 3.06044 11.5216 2.80581 11.5216C2.44487 11.5216 2.31362 11.2683 2.40681 10.8221L3.72062 4.64675ZM3.8125 1.90625C3.8125 2.25435 3.67422 2.58819 3.42808 2.83433C3.18193 3.08047 2.84809 3.21875 2.5 3.21875C2.1519 3.21875 1.81806 3.08047 1.57192 2.83433C1.32578 2.58819 1.1875 2.25435 1.1875 1.90625C1.1875 1.55815 1.32578 1.22431 1.57192 0.978172C1.81806 0.732031 2.1519 0.59375 2.5 0.59375C2.84809 0.59375 3.18193 0.732031 3.42808 0.978172C3.67422 1.22431 3.8125 1.55815 3.8125 1.90625Z" fill="black"/>
</svg>
